Monoid-Retina.sfdir
StartChar: exclam
Encoding: 33 33 56
GlifName: exclam
Width: 1024
VWidth: 0
Flags: W
HStem: -16 288<474.535 677.465> 1388 20G<502 650>
VStem: 432 288<26.5349 229.465> 512 128<512 1408>
LayerCount: 5
Back
Fore
SplineSet
576 272 m 0xe0
 661 272 720 213 720 128 c 0
 720 43 661 -16 576 -16 c 0
 491 -16 432 43 432 128 c 0
 432 213 491 272 576 272 c 0xe0
640 512 m 1xd0
 512 512 l 1
 502 1408 l 1
 650 1408 l 1
 640 512 l 1xd0
EndSplineSet
Validated: 1
Layer: 2
Layer: 3
Layer: 4
EndChar
StartChar: quotedbl
Encoding: 34 34 57
GlifName: quotedbl
Width: 1024
VWidth: 0
Flags: W
HStem: 1388 20G<320 448 704 832>
VStem: 320 128<768 1408> 704 128<768 1408>
LayerCount: 5
Back
Fore
SplineSet
704 1408 m 5
 832 1408 l 5
 832 768 l 5
 704 768 l 5
 704 1408 l 5
320 1408 m 5
 448 1408 l 5
 448 768 l 5
 320 768 l 5
 320 1408 l 5
EndSplineSet
Layer: 2
Layer: 3
Layer: 4
EndChar
StartChar: dollar
Encoding: 36 36 59
GlifName: dollar
Width: 1024
VWidth: 0
Flags: W
HStem: -16 120<512 646.626> 1304 120<357.518 512>
VStem: 98 128<911.716 1182.78> 384 128<-128 -16 108 662> 512 128<782 1299 1424 1536> 798 128<249.246 522.265>
LayerCount: 5
Back
SplineSet
620 -16 m 4
 486 -16 366 -2 250 16 c 5
 250 139 l 5
 364 121 492 104 620 104 c 4
 799 104 926 209 926 385 c 4
 926 508 857 597 768 632 c 4
 654 678 544 650 411 721 c 4
 304 778 226 895 226 1045 c 4
 226 1266 385 1424 620 1424 c 4
 756 1424 877 1410.85714286 990 1399 c 5
 990 1278 l 5
 878 1290.37037037 745 1304 620 1304 c 4
 455 1304 354 1198 354 1045 c 4
 354 942 405 863 477 825 c 4
 575 773 700 788 816 742 c 4
 945 691 1054 566 1054 385 c 4
 1054 143 869 -16 620 -16 c 4
EndSplineSet
Fore
SplineSet
512 1536 m 5xec
 640 1536 l 5
 640 1419 l 5
 717 1414 793 1407 862 1399 c 5
 862 1278 l 5
 799 1285 717 1294 640 1299 c 5
 640 758 l 5xec
 797 716 926 589 926 385 c 4
 926 150 751 -8 512 -16 c 5
 512 -128 l 5
 384 -128 l 5
 384 -13 l 5
 294 -8 205 3 122 16 c 5
 122 139 l 5
 203 126 295 114 384 108 c 5
 384 682 l 5xf4
 221 723 98 847 98 1045 c 4
 98 1178 167 1424 512 1424 c 5
 512 1536 l 5xec
512 1304 m 5
 259 1304 226 1133 226 1045 c 4
 226 841 396 791 512 782 c 5
 512 1304 l 5
512 662 m 5xf4
 512 104 l 5xec
 680 112 798 216 798 385 c 4
 798 579 652 651 512 662 c 5xf4
EndSplineSet
Validated: 1
Layer: 2
Layer: 3
Layer: 4
Substitution2: "'ss01' Style Set 1 lookup 0 subtable" dollar.empty
EndChar
StartChar: percent
Encoding: 37 37 60
GlifName: percent
Width: 1024
VWidth: 0
Flags: W
HStem: -16 120<610.268 797.732> 408 120<610.268 797.732> 880 120<226.268 413.732> 1304 120<226.268 413.732>
VStem: 48 128<1049.17 1254.83> 432 128<153.173 358.827> 464 128<1049.17 1254.83> 848 128<153.173 358.827>
LayerCount: 5
Back
SplineSet
128 256 m 5
 1024 1152 l 1029
EndSplineSet
Fore
SplineSet
108 212 m 1xf9
 20 300 l 1
 916 1196 l 1
 1004 1108 l 1
 108 212 l 1xf9
320 1304 m 0
 236 1304 176 1250 176 1152 c 0
 176 1054 236 1000 320 1000 c 0
 404 1000 464 1054 464 1152 c 0xfb
 464 1250 404 1304 320 1304 c 0
320 1424 m 0
 481 1424 592 1304 592 1152 c 0
 592 1000 481 880 320 880 c 0
 159 880 48 1000 48 1152 c 0
 48 1304 159 1424 320 1424 c 0
704 408 m 0
 620 408 560 354 560 256 c 0xfd
 560 158 620 104 704 104 c 0
 788 104 848 158 848 256 c 0
 848 354 788 408 704 408 c 0
704 528 m 0
 865 528 976 408 976 256 c 0
 976 104 865 -16 704 -16 c 0
 543 -16 432 104 432 256 c 0
 432 408 543 528 704 528 c 0
EndSplineSet
Validated: 1
Layer: 2
SplineSet
128 1408 m 5
 1024 1408 l 5
 1024 0 l 5
 128 0 l 5
 128 1408 l 5
EndSplineSet
Layer: 3
SplineSet
768 468 m 4
 890.525 468 976 381.08828125 976 256 c 4
 976 130.91171875 890.525 44 768 44 c 4
 645.475 44 560 130.91171875 560 256 c 4
 560 381.08828125 645.475 468 768 468 c 4
128 434 m 1
 1024 1130 l 1
 1024 974 l 1
 128 278 l 1
 128 434 l 1
EndSplineSet
Layer: 4
EndChar
StartChar: quotesingle
Encoding: 39 39 62
GlifName: quotesingle
Width: 1024
VWidth: 0
Flags: W
HStem: 1388 20G<448 576>
VStem: 448 128<768 1408>
LayerCount: 5
Back
Fore
SplineSet
448 1408 m 1
 576 1408 l 1
 576 768 l 1
 448 768 l 1
 448 1408 l 1
EndSplineSet
Validated: 1
Layer: 2
Layer: 3
Layer: 4
EndChar
StartChar: parenleft
Encoding: 40 40 63
GlifName: parenleft
Width: 1024
VWidth: 0
Flags: W
VStem: 360 128<401.453 1004.38>
LayerCount: 5
Back
SplineSet
488 703 m 4
 488 556 513 409 575 281 c 4
 641 145 753 32 886 -30 c 5
 835 -140 l 5
 670 -64 537 71 459 231 c 4
 387 379 360 543 360 703 c 4
 360 863 387 1027 459 1175 c 4
 537 1335 670 1470 835 1546 c 5
 886 1436 l 5
 753 1374 641 1261 575 1125 c 4
 513 997 488 850 488 703 c 4
EndSplineSet
Fore
SplineSet
835 1546 m 1
 890 1441 l 1
 641 1316 488 1074 488 703 c 0
 488 332 641 89 890 -35 c 1
 835 -140 l 1
 544 1 360 281 360 703 c 0
 360 1125 544 1404 835 1546 c 1
EndSplineSet
Validated: 1
Layer: 2
SplineSet
860 1491 m 4
 710.626953125 1422.12890625 588.694335938 1298.03808594 517 1150 c 4
 450.10546875 1011.87304688 424 856.473632812 424 703 c 4
 424 549.526367188 450.10546875 394.126953125 517 256 c 4
 588.694335938 107.961914062 710.626953125 -16.12890625 860 -85 c 1028
  Spiro
    860 1491 {
    517 1150 o
    424 703 o
    517 256 o
    860 -85 o
    0 0 z
  EndSpiro
EndSplineSet
Layer: 3
Layer: 4
Substitution2: "Single Substitution lookup 16 subtable" parenleft.shrug
EndChar
StartChar: parenright
Encoding: 41 41 64
GlifName: parenright
Width: 1024
VWidth: 0
Flags: W
VStem: 600 128<431.964 973.895>
LayerCount: 5
Back
Fore
SplineSet
253 1546 m 1
 544 1404 728 1125 728 703 c 0
 728 281 544 1 253 -140 c 1
 198 -35 l 1
 447 89 600 332 600 703 c 0
 600 1074 447 1316 198 1441 c 1
 253 1546 l 1
EndSplineSet
Validated: 1
Layer: 2
Layer: 3
Layer: 4
Substitution2: "Single Substitution lookup 17 subtable" parenright.shrug
EndChar
StartChar: plus
Encoding: 43 43 66
GlifName: plus
Width: 1024
VWidth: 0
Flags: W
HStem: 516 120<64 448 576 960> 1004 20G<448 576>
VStem: 448 128<128 516 636 1024>
LayerCount: 5
Back
Fore
SplineSet
576 636 m 1
 960 636 l 1
 960 516 l 1
 576 516 l 1
 576 128 l 1
 448 128 l 1
 448 516 l 1
 64 516 l 1
 64 636 l 1
 448 636 l 1
 448 1024 l 1
 576 1024 l 1
 576 636 l 1
EndSplineSet
Validated: 1
Layer: 2
Layer: 3
Layer: 4
EndChar
StartChar: comma
Encoding: 44 44 67
GlifName: comma
Width: 1024
VWidth: 0
Flags: W
HStem: -272 120<384 480.514> 128 240<384 512>
VStem: 384 256<128 368> 512 128<-105.261 128>
LayerCount: 5
Back
SplineSet
384 368 m 1xe0
 640 368 l 1xe0
 640 23 l 2xd0
 640 -37 640 -107 588 -177 c 0
 546 -234 474 -272 384 -272 c 1
 384 -152 l 1xe0
 431 -152 463 -135 484 -107 c 4
 512 -70 512 -27 512 23 c 2
 512 128 l 1xd0
 384 128 l 1
 384 368 l 1xe0
EndSplineSet
Fore
SplineSet
384 368 m 1xe0
 640 368 l 1xe0
 640 23 l 2xd0
 640 -37 640 -107 588 -177 c 0
 546 -234 474 -272 384 -272 c 1
 384 -152 l 1xe0
 431 -152 463 -135 484 -107 c 0
 512 -70 512 -27 512 23 c 2
 512 128 l 1xd0
 384 128 l 1
 384 368 l 1xe0
EndSplineSet
Validated: 1
Layer: 2
SplineSet
354 -213 m 5
 391 -159 450 -76 450 -9 c 4
 450 95 368 149 368 256 c 4
 368 343 430 400 512 400 c 4
 589 400 656 347 656 224 c 4
 656 4 561 -155 454 -286 c 5
 354 -213 l 5
EndSplineSet
Layer: 3
Layer: 4
Position2: "Single Positioning lookup 26 subtable" dx=-128 dy=0 dh=0 dv=0
Position2: "Single Positioning lookup 20 subtable" dx=64 dy=0 dh=0 dv=0
Position2: "Single Positioning lookup 19 subtable" dx=64 dy=0 dh=0 dv=0
Position2: "Single Positioning lookup 17 subtable" dx=0 dy=0 dh=0 dv=0
Position2: "Single Positioning lookup 15 subtable" dx=0 dy=0 dh=0 dv=0
Position2: "Single Positioning lookup 12 subtable" dx=128 dy=0 dh=0 dv=0
Position2: "Single Positioning lookup 10 subtable" dx=64 dy=0 dh=0 dv=0
Position2: "Single Positioning lookup 8 subtable" dx=-64 dy=0 dh=0 dv=0
Position2: "Single Positioning lookup 4 subtable" dx=64 dy=0 dh=0 dv=0
Position2: "Single Positioning lookup 3 subtable" dx=64 dy=0 dh=0 dv=0
Position2: "Single Positioning lookup 1 subtable" dx=64 dy=0 dh=0 dv=0
EndChar
StartChar: period
Encoding: 46 46 68
GlifName: period
Width: 1024
VWidth: 0
Flags: W
HStem: 0 240<384 640>
VStem: 384 256<0 240>
LayerCount: 5
Back
Fore
SplineSet
384 240 m 1
 640 240 l 1
 640 0 l 1
 384 0 l 1
 384 240 l 1
EndSplineSet
Validated: 1
Layer: 2
Layer: 3
Layer: 4
EndChar
StartChar: one
Encoding: 49 49 71
GlifName: one
Width: 1024
VWidth: 0
Flags: W
HStem: 0 21G<640 768> 1388 20G<632.517 768>
VStem: 640 128<0 1246>
LayerCount: 5
Back
SplineSet
660 1408 m 1xa0
 768 1408 l 1
 768 0 l 1
 640 0 l 1
 640 1246 l 1
 630 1246 l 1
 319 1022 l 1
 256 1114 l 1
 660 1408 l 1xa0
EndSplineSet
Fore
SplineSet
660 1408 m 1
 768 1408 l 1
 768 0 l 1
 640 0 l 1
 640 1246 l 1
 630 1246 l 1
 319 1022 l 1
 256 1114 l 1
 660 1408 l 1
EndSplineSet
Validated: 1
Layer: 2
Layer: 3
Layer: 4
Substitution2: "'ss05' Style Set 5 lookup 4 subtable" one.base
EndChar
StartChar: four
Encoding: 52 52 74
GlifName: four
Width: 1024
VWidth: 0
Flags: W
HStem: 0 21G<704 832> 384 120<282 704 832 960>
VStem: 704 128<0 384 504 896>
LayerCount: 5
Back
Fore
SplineSet
832 0 m 5
 704 0 l 5
 704 384 l 5
 128 384 l 5
 128 484 l 5
 617 1436 l 5
 726 1380 l 5
 282 514 l 5
 282 504 l 5
 704 504 l 5
 704 896 l 5
 832 896 l 5
 832 504 l 5
 960 504 l 5
 960 384 l 5
 832 384 l 5
 832 0 l 5
EndSplineSet
Validated: 1
Layer: 2
SplineSet
1024 448 m 29
 174 448 l 29
 384 1408 l 1053
832 0 m 29
 832 1408 l 1053
EndSplineSet
Layer: 3
Layer: 4
Substitution2: "'ss12' Style Set 12 lookup 11 subtable" four.triangle
EndChar
StartChar: five
Encoding: 53 53 75
GlifName: five
Width: 1024
VWidth: 0
Flags: W
HStem: -16 120<259.799 704.237> 792 120<462.464 709.999> 1288 120<384 896>
VStem: 256 128<816 1288> 800 128<210.398 688.554>
LayerCount: 5
Back
Fore
SplineSet
256 137 m 1
 335 122 456 104 560 104 c 0
 763 104 800 260 800 449 c 0
 800 624 764 792 592 792 c 0
 498 792 426 744 383 683 c 1
 256 717 l 1
 256 1408 l 1
 896 1408 l 1
 896 1288 l 1
 384 1288 l 1
 384 816 l 1
 394 816 l 1
 453 872 514 912 612 912 c 0
 838 912 928 732 928 447 c 0
 928 130 804 -16 560 -16 c 0
 448 -16 338 1 256 15 c 1
 256 137 l 1
EndSplineSet
Validated: 1
Layer: 2
SplineSet
592 852 m 4
 569.874950019 852 547.708987409 850.270562295 526 846 c 4
 485.669098677 838.066160283 447.076701406 820.262547848 416.241313788 793.083396194 c 4
 385.40592617 765.904244539 362.748306891 730.14912327 348.306511624 691.665854651 c 4
 319.422921089 614.699317412 319.999999999 530.20772261 320 448 c 4
 320 365.79227739 319.422921091 281.300682587 348.306511626 204.334145348 c 4
 362.748306893 165.850876729 385.405926172 130.09575546 416.241313789 102.916603806 c 4
 447.076701407 75.7374521517 485.669098677 57.9338397167 526 50 c 4
 547.708987409 45.7294377049 569.874950019 44 592 44 c 4
 614.125049981 44 636.291012591 45.7294377049 658 50 c 4
 698.330901323 57.9338397167 736.923298594 75.7374521519 767.758686212 102.916603806 c 4
 798.59407383 130.095755461 821.251693109 165.85087673 835.693488376 204.334145349 c 4
 864.577078911 281.300682588 864.000000001 365.79227739 864 448 c 4
 864 530.20772261 864.577078909 614.699317413 835.693488374 691.665854652 c 4
 821.251693107 730.149123271 798.594073828 765.90424454 767.758686211 793.083396194 c 4
 736.923298593 820.262547848 698.330901323 838.066160283 658 846 c 4
 636.291012591 850.270562295 614.125049981 852 592 852 c 4
  Spiro
    592 852 o
    526 846 o
    320 448 o
    526 50 o
    592 44 o
    658 50 o
    864 448 o
    658 846 o
    0 0 z
  EndSpiro
EndSplineSet
Layer: 3
SplineSet
592 852 m 0
 541.044412231 852.064572582 490.06628348 840.780119853 444 819 c 0
 395.114545029 795.886977027 352.009337263 760.582127836 320 717 c 1
 320 1344 l 1
 896 1344 l 1
 1254 867 l 1
 188 128 l 1
 256.9832888 106.595441015 326.580513009 87.0606703136 397 71 c 0
 460.460079435 56.5265714443 524.91036818 44.0405660285 590 44 c 0
 635.733671888 43.971497251 682.219553902 51.2991600935 723 72 c 0
 752.406637576 86.9273035217 778.299863741 108.637763448 798.336743045 134.831239576 c 0
 818.37362235 161.024715705 832.567915771 191.399200784 842 223 c 0
 863.621048561 295.438116312 862.991426408 372.410759925 864 448 c 0
 864.758837055 504.87231624 865.753677476 562.087025231 857.05428616 618.295181035 c 0
 848.354894845 674.50333684 827.479228702 730.114618938 789 772 c 0
 764.31687897 798.868052323 733.135295531 819.565543469 699.124306827 832.771653678 c 0
 665.113318124 845.977763887 628.484881276 851.953765169 592 852 c 0
  Spiro
    592 852 o
    444 819 o
    320 717 v
    320 1344 v
    896 1344 v
    1254 867 v
    188 128 v
    397 71 o
    590 44 o
    723 72 o
    842 223 o
    864 448 o
    789 772 o
    0 0 z
  EndSpiro
EndSplineSet
Layer: 4
SplineSet
765 703 m 5xf0
 866 640 928 519 928 377 c 4
 928 376 928 375 928 374 c 4
 927 157 806 -16 546 -16 c 4
 443 -16 341 -4 256 10 c 5
 256 131 l 5
 340 117 445 104 536 104 c 4
 740 104 800 223 800 374 c 4xe8
 800 491 754 593 666 628 c 4
 633 641 591 644 542 644 c 6
 384 644 l 5
 384 764 l 5
 543 764 l 6
 590 764 629 767 659 780 c 4
 743 816 780 919 780 1034 c 4
 780 1191 726 1304 536 1304 c 4
 436 1304 339 1288 256 1276 c 5
 256 1396 l 5
 338 1410 429 1424 536 1424 c 4
 797 1424 908 1258 908 1034 c 4
 908 899 859 779 765 713 c 5
 765 703 l 5xf0
EndSplineSet
EndChar
StartChar: six
Encoding: 54 54 76
GlifName: six
Width: 1024
VWidth: 0
Flags: W
HStem: -16 120<411.787 645.364> 792 120<422.342 644.108>
VStem: 192 128<210.173 679.135> 736 128<210.238 685.311>
LayerCount: 5
Back
Fore
SplineSet
320 448 m 4
 320 261 341 104 528 104 c 4
 715 104 736 261 736 448 c 4
 736 635 715 792 528 792 c 4
 341 792 320 635 320 448 c 4
192 447 m 4
 192 919 389 1198 603 1444 c 5
 698 1362 l 5
 573 1217 455 1066 385 864 c 5
 395 860 l 5
 439 895 490 912 548 912 c 4
 696 912 793 829 836 712 c 4
 864 635 864 550 864 448 c 4
 864 366 864 271 832 184 c 4
 789 67 686 -16 538 -16 c 4
 371 -16 268 66 224 184 c 4
 196 259 192 330 192 447 c 4
EndSplineSet
Validated: 1
Layer: 2
SplineSet
592 852 m 4
 569.874950019 852 547.708987409 850.270562295 526 846 c 4
 485.669098677 838.066160283 447.076701406 820.262547848 416.241313788 793.083396194 c 4
 385.40592617 765.904244539 362.748306891 730.14912327 348.306511624 691.665854651 c 4
 319.422921089 614.699317412 319.999999999 530.20772261 320 448 c 4
 320 365.79227739 319.422921091 281.300682587 348.306511626 204.334145348 c 4
 362.748306893 165.850876729 385.405926172 130.09575546 416.241313789 102.916603806 c 4
 447.076701407 75.7374521517 485.669098677 57.9338397167 526 50 c 4
 547.708987409 45.7294377049 569.874950019 44 592 44 c 4
 614.125049981 44 636.291012591 45.7294377049 658 50 c 4
 698.330901323 57.9338397167 736.923298594 75.7374521519 767.758686212 102.916603806 c 4
 798.59407383 130.095755461 821.251693109 165.85087673 835.693488376 204.334145349 c 4
 864.577078911 281.300682588 864.000000001 365.79227739 864 448 c 4
 864 530.20772261 864.577078909 614.699317413 835.693488374 691.665854652 c 4
 821.251693107 730.149123271 798.594073828 765.90424454 767.758686211 793.083396194 c 4
 736.923298593 820.262547848 698.330901323 838.066160283 658 846 c 4
 636.291012591 850.270562295 614.125049981 852 592 852 c 4
  Spiro
    592 852 o
    526 846 o
    320 448 o
    526 50 o
    592 44 o
    658 50 o
    864 448 o
    658 846 o
    0 0 z
  EndSpiro
EndSplineSet
Layer: 3
Layer: 4
Substitution2: "'ss13' Style Set 13 lookup 12 subtable" six.round
EndChar
StartChar: seven
Encoding: 55 55 77
GlifName: seven
Width: 1024
VWidth: 0
Flags: W
HStem: 0 21G<363 499.102> 1288 120<192 825>
LayerCount: 5
Back
Fore
SplineSet
640 975 m 1052,0,-1
192 1288 m 1,1,-1
 192 1408 l 1,2,-1
 960 1408 l 1,3,-1
 960 1318 l 1,4,-1
 492 0 l 1,5,-1
 363 0 l 1,6,-1
 825 1278 l 1,7,-1
 825 1288 l 1,8,-1
 192 1288 l 1,1,-1
EndSplineSet
Layer: 2
Layer: 3
Layer: 4
EndChar
StartChar: eight
Encoding: 56 56 78
GlifName: eight
Width: 1024
VWidth: 0
Flags: W
HStem: -16 120<392.7 631.3> 654 120<405.94 618.06> 1304 120<400.236 623.764>
VStem: 160 128<218.77 533.589> 180 128<885.787 1202.65> 716 128<885.787 1202.65> 736 128<218.77 533.589>
LayerCount: 5
Back
Fore
SplineSet
512 1304 m 0xec
 367 1304 308 1187 308 1045 c 0
 308 902 369 774 512 774 c 0
 655 774 716 902 716 1045 c 0
 716 1187 657 1304 512 1304 c 0xec
512 1424 m 0
 731 1424 844 1254 844 1045 c 0xec
 844 900 797 789 687 723 c 1
 687 713 l 1
 807 648 864 529 864 374 c 0
 864 156 741 -16 512 -16 c 0
 283 -16 160 156 160 374 c 0xf2
 160 529 217 648 337 713 c 1
 337 723 l 1
 227 789 180 900 180 1045 c 0
 180 1254 293 1424 512 1424 c 0
512 654 m 0
 356 654 288 526 288 374 c 0
 288 222 356 104 512 104 c 0
 668 104 736 222 736 374 c 0xf2
 736 526 668 654 512 654 c 0
EndSplineSet
Validated: 1
Layer: 2
Layer: 3
SplineSet
576 1364 m 0
 553.831802792 1364 531.627683605 1361.86541564 510 1357 c 0
 476.318733698 1349.42298146 444.167348932 1334.74286822 416.927495224 1313.53368908 c 0
 389.687641517 1292.32450994 367.524237056 1264.89514465 351.170123291 1234.49149565 c 0
 318.46189576 1173.68419764 308 1103.04603999 308 1034 c 0
 308 964.953960006 318.46189576 894.315802358 351.170123291 833.508504353 c 0
 367.524237056 803.104855351 389.687641517 775.675490058 416.927495224 754.466310921 c 0
 444.167348932 733.257131784 476.318733698 718.577018541 510 711 c 0
 531.627683605 706.134584365 553.831802792 704 576 704 c 0
 598.168197208 704 620.372316395 706.134584365 642 711 c 0
 675.681266302 718.577018541 707.832651068 733.257131784 735.072504776 754.466310921 c 0
 762.312358483 775.675490059 784.475762944 803.104855351 800.829876709 833.508504353 c 0
 833.53810424 894.315802358 844 964.953960006 844 1034 c 0
 844 1103.04603999 833.53810424 1173.68419764 800.829876709 1234.49149565 c 0
 784.475762944 1264.89514465 762.312358483 1292.32450994 735.072504776 1313.53368908 c 0
 707.832651068 1334.74286822 675.681266302 1349.42298146 642 1357 c 0
 620.372316395 1361.86541564 598.168197208 1364 576 1364 c 0
  Spiro
    576 1364 o
    510 1357 o
    308 1034 o
    510 711 o
    576 704 o
    642 711 o
    844 1034 o
    642 1357 o
    0 0 z
  EndSpiro
576 704 m 0
 553.875934641 704 531.720863017 702.204566307 510 698 c 0
 474.928969672 691.211205633 441.06317059 677.63836591 411.735969344 657.242774125 c 0
 382.408768098 636.847182339 357.814620754 609.900635488 339.187230459 579.419736092 c 0
 301.932449867 518.457937301 288 445.444101148 288 374 c 1
 288 302.555898852 301.932449867 229.542062699 339.187230459 168.580263908 c 0
 357.814620754 138.099364512 382.408768098 111.152817661 411.735969344 90.7572258754 c 0
 441.06317059 70.3616340899 474.928969672 56.7887943665 510 50 c 0
 531.720863017 45.7954336926 553.875934641 44 576 44 c 0
 598.124065359 44 620.279136983 45.7954336926 642 50 c 0
 677.071030328 56.7887943665 710.93682941 70.3616340899 740.264030656 90.7572258754 c 0
 769.591231902 111.152817661 794.185379246 138.099364512 812.812769541 168.580263908 c 0
 850.067550133 229.542062699 864 302.555898852 864 374 c 0
 864 445.444101148 850.067550133 518.457937301 812.812769541 579.419736092 c 0
 794.185379246 609.900635488 769.591231902 636.847182339 740.264030656 657.242774125 c 0
 710.93682941 677.63836591 677.071030328 691.211205634 642 698 c 0
 620.279136983 702.204566307 598.124065359 704 576 704 c 0
  Spiro
    576 704 o
    510 698 o
    288 374 o
    510 50 o
    576 44 o
    642 50 o
    864 374 o
    642 698 o
    0 0 z
  EndSpiro
EndSplineSet
Layer: 4
EndChar
StartChar: nine
Encoding: 57 57 79
GlifName: nine
Width: 1024
VWidth: 0
Flags: W
HStem: 496 120<379.892 601.658> 1304 120<377.627 614.07>
VStem: 160 128<722.689 1197.76> 704 128<728.865 1197.83>
LayerCount: 5
Back
Fore
SplineSet
704 960 m 4
 704 1147 683 1304 496 1304 c 4
 309 1304 288 1147 288 960 c 4
 288 773 309 616 496 616 c 4
 683 616 704 773 704 960 c 4
832 961 m 4
 832 489 635 210 421 -36 c 5
 326 46 l 5
 451 191 569 342 639 544 c 5
 629 548 l 5
 585 513 534 496 476 496 c 4
 328 496 231 579 188 696 c 4
 160 773 160 858 160 960 c 4
 160 1042 160 1137 192 1224 c 4
 235 1341 338 1424 496 1424 c 4
 653 1424 756 1342 800 1224 c 4
 828 1149 832 1078 832 961 c 4
EndSplineSet
Validated: 1
Layer: 2
Layer: 3
Layer: 4
Substitution2: "'ss13' Style Set 13 lookup 12 subtable" nine.round
EndChar
StartChar: colon
Encoding: 58 58 80
GlifName: colon
Width: 1024
VWidth: 0
Flags: W
HStem: 0 240<384 640> 784 240<384 640>
VStem: 384 256<0 240 784 1024>
LayerCount: 5
Back
Fore
SplineSet
384 240 m 1
 640 240 l 1
 640 0 l 1
 384 0 l 1
 384 240 l 1
384 1024 m 1
 640 1024 l 1
 640 784 l 1
 384 784 l 1
 384 1024 l 1
EndSplineSet
Validated: 1
Layer: 2
Layer: 3
Layer: 4
Substitution2: "Single Substitution lookup 92 subtable" colon.2r
Substitution2: "Single Substitution lookup 91 subtable" colon.2l
Substitution2: "Single Substitution lookup 58 subtable" larsenwork7
Position2: "Single Positioning lookup 26 subtable" dx=-128 dy=0 dh=0 dv=0
Position2: "Single Positioning lookup 20 subtable" dx=64 dy=0 dh=0 dv=0
Position2: "Single Positioning lookup 19 subtable" dx=64 dy=0 dh=0 dv=0
Position2: "Single Positioning lookup 17 subtable" dx=0 dy=0 dh=0 dv=0
Position2: "Single Positioning lookup 15 subtable" dx=0 dy=0 dh=0 dv=0
Position2: "Single Positioning lookup 12 subtable" dx=128 dy=0 dh=0 dv=0
Position2: "Single Positioning lookup 10 subtable" dx=64 dy=0 dh=0 dv=0
Position2: "Single Positioning lookup 8 subtable" dx=-64 dy=0 dh=0 dv=0
Position2: "Single Positioning lookup 4 subtable" dx=64 dy=0 dh=0 dv=0
Position2: "Single Positioning lookup 3 subtable" dx=64 dy=0 dh=0 dv=0
Position2: "Single Positioning lookup 1 subtable" dx=64 dy=0 dh=0 dv=0
EndChar
StartChar: semicolon
Encoding: 59 59 81
GlifName: semicolon
Width: 1024
VWidth: 0
Flags: W
HStem: -272 120<384 480.514> 128 240<384 512> 784 240<384 640>
VStem: 384 256<128 368 784 1024> 512 128<-105.261 128>
LayerCount: 5
Back
Fore
SplineSet
384 1024 m 1xf0
 640 1024 l 1
 640 784 l 1
 384 784 l 1
 384 1024 l 1xf0
384 368 m 1
 640 368 l 1xf0
 640 23 l 2xe8
 640 -37 640 -107 588 -177 c 0
 546 -234 474 -272 384 -272 c 1
 384 -152 l 1xf0
 431 -152 463 -135 484 -107 c 0
 512 -70 512 -27 512 23 c 2
 512 128 l 1xe8
 384 128 l 1
 384 368 l 1
EndSplineSet
Validated: 1
Layer: 2
SplineSet
358 -213 m 1
 380.994413195 -181.69285483 403.917945798 -150.250435725 424 -117 c 0
 433.851478194 -100.688623725 442.851692062 -83.780147782 449.395361157 -65.8834158638 c 0
 456.053556917 -47.6734570702 460.003241955 -28.6635387582 460.003241955 -9.05022964713 c 0
 460.003241955 16.8779091753 452.767099315 42.4309219012 441.890196228 65.9777943897 c 0
 430.880506029 89.8121311657 416.600817622 111.967234576 404 135 c 0
 383.53156845 172.413808898 368.031281324 213.534062194 367.999806048 256.263299414 c 0
 367.999806048 275.83128092 371.214400008 295.474642964 378.305609789 313.711798576 c 0
 385.428625689 332.030753083 396.542498162 348.828123527 410.892489593 362.259400297 c 0
 437.859983274 387.500382019 475.300411084 400.000394041 512.364789292 400.000394041 c 0
 531.240065923 400.000394041 550.16904185 396.834681944 567.796086177 390.086586206 c 0
 585.53668789 383.295017718 601.876436513 372.734133867 615 359 c 0
 631.216079933 342.029471164 642.176485992 320.452346946 648.279766933 297.787174123 c 0
 654.360568314 275.205481495 656.000067077 251.646733801 656.000067077 228.259368753 c 0
 655.985360001 171.390679288 649.851154118 114.580988461 638 59 c 0
 623.712404579 -8.00770813646 596.422868992 -71.7612084615 562 -131 c 0
 530.330881427 -185.49982434 493.729154174 -237.063732949 454 -286 c 1
 358 -213 l 1
  Spiro
    358 -213 v
    424 -117 o
    460 -10 o
    404 135 o
    368 256 o
    410.892 362.259 o
    512 400 o
    615 359 o
    656 228 o
    638 59 o
    562 -131 o
    454 -286 v
    0 0 z
  EndSpiro
EndSplineSet
Layer: 3
SplineSet
512 119 m 1
 427.294117647 119 368 175 368 256 c 0
 368 337 427.294117647 393 512 393 c 0
 588.764705882 393 640 335.289190129 640 239 c 2
 640 -256 l 1
 512 -256 l 1
 512 119 l 1
EndSplineSet
Layer: 4
Position2: "Single Positioning lookup 26 subtable" dx=-128 dy=0 dh=0 dv=0
Position2: "Single Positioning lookup 20 subtable" dx=64 dy=0 dh=0 dv=0
Position2: "Single Positioning lookup 19 subtable" dx=64 dy=0 dh=0 dv=0
Position2: "Single Positioning lookup 17 subtable" dx=0 dy=0 dh=0 dv=0
Position2: "Single Positioning lookup 15 subtable" dx=0 dy=0 dh=0 dv=0
Position2: "Single Positioning lookup 12 subtable" dx=128 dy=0 dh=0 dv=0
Position2: "Single Positioning lookup 10 subtable" dx=64 dy=0 dh=0 dv=0
Position2: "Single Positioning lookup 8 subtable" dx=-64 dy=0 dh=0 dv=0
Position2: "Single Positioning lookup 4 subtable" dx=64 dy=0 dh=0 dv=0
Position2: "Single Positioning lookup 3 subtable" dx=64 dy=0 dh=0 dv=0
Position2: "Single Positioning lookup 1 subtable" dx=64 dy=0 dh=0 dv=0
EndChar
StartChar: less
Encoding: 60 60 82
GlifName: less
Width: 1024
VWidth: 0
Flags: W
LayerCount: 5
Back
Fore
SplineSet
389 571 m 5
 900 95 l 5
 814 5 l 5
 256 531 l 5
 256 621 l 5
 814 1147 l 5
 900 1057 l 5
 389 581 l 5
 389 571 l 5
EndSplineSet
Validated: 1
Layer: 2
SplineSet
856 50 m 5
 298 576 l 5
 856 1102 l 1029
EndSplineSet
Layer: 3
Layer: 4
Substitution2: "Single Substitution lookup 47 subtable" less2
Substitution2: "Single Substitution lookup 46 subtable" less1
Substitution2: "Single Substitution lookup 27 subtable" larsenwork3
Substitution2: "Single Substitution lookup 20 subtable" larsenwork
Substitution2: "Single Substitution lookup 16 subtable" larsenwork1
Substitution2: "Single Substitution lookup 15 subtable" larsenwork1
Substitution2: "Single Substitution lookup 9 subtable" larsenwork
Substitution2: "Single Substitution lookup 2 subtable" larsenwork5
EndChar
StartChar: equal
Encoding: 61 61 83
GlifName: equal
Width: 1024
VWidth: 0
Flags: W
HStem: 260 120<192 960> 772 120<192 960>
LayerCount: 5
Back
Fore
SplineSet
192 380 m 5
 960 380 l 5
 960 260 l 5
 192 260 l 5
 192 380 l 5
192 892 m 5
 960 892 l 5
 960 772 l 5
 192 772 l 5
 192 892 l 5
EndSplineSet
Validated: 1
Layer: 2
Layer: 3
Layer: 4
Substitution2: "Single Substitution lookup 32 subtable" equalmore
Substitution2: "Single Substitution lookup 31 subtable" equalmore
Substitution2: "Single Substitution lookup 30 subtable" greaterequalliga
Substitution2: "Single Substitution lookup 28 subtable" lessequalliga
Substitution2: "Single Substitution lookup 26 subtable" notequalliga
Substitution2: "Single Substitution lookup 24 subtable" notequaltypeliga
Substitution2: "Single Substitution lookup 23 subtable" larsenwork1
EndChar
StartChar: greater
Encoding: 62 62 84
GlifName: greater
Width: 1024
VWidth: 0
Flags: W
LayerCount: 5
Back
Fore
SplineSet
252 1057 m 1
 338 1147 l 1
 896 621 l 1
 896 531 l 1
 338 5 l 1
 252 95 l 1
 763 571 l 1
 763 581 l 1
 252 1057 l 1
EndSplineSet
Validated: 1
Layer: 2
Layer: 3
Layer: 4
Substitution2: "Single Substitution lookup 67 subtable" greater2
Substitution2: "Single Substitution lookup 66 subtable" greater1
Substitution2: "Single Substitution lookup 46 subtable" ligaequalarrow
Substitution2: "Single Substitution lookup 43 subtable" larsenwork4
Substitution2: "Single Substitution lookup 35 subtable" ligaarrowright
Substitution2: "Single Substitution lookup 31 subtable" ligaarrowrighttwoheads
Substitution2: "Single Substitution lookup 30 subtable" larsenwork1
Substitution2: "Single Substitution lookup 25 subtable" ligaarrowrightlong
EndChar
StartChar: at
Encoding: 64 64 86
GlifName: at
Width: 1024
VWidth: 0
Flags: W
HStem: 0 120<348.338 877.778> 21 120<311.717 560.183 568.012 883> 368 120<518.21 714.773> 896 110<528.381 832> 1288 120<348.38 739.034>
VStem: 64 128<278.584 1129.42> 320 128<562.733 812.043> 832 128<384 507 615.721 896 1006 1196.23>
LayerCount: 5
Back
Fore
SplineSet
832 896 m 1x3f
 668 896 l 2
 613 896 555 896 504 842 c 0
 468 804 448 746 448 687 c 0
 448 578 509 488 616 488 c 0
 827 488 832 725 832 855 c 2
 832 896 l 1x3f
960 1016 m 2
 960 384 l 1
 832 384 l 1
 832 507 l 1
 822 507 l 1
 763 419 692 368 592 368 c 0
 441 368 320 500 320 685 c 0
 320 767 345 854 408 917 c 0
 498 1006 608 1006 670 1006 c 2
 832 1006 l 1
 832 1054 832 1100 822 1139 c 0
 804 1211 757 1259 684 1278 c 0
 650 1287 609 1288 563 1288 c 0
 504 1288 449 1287 402 1275 c 0
 298 1248 232 1180 205 1075 c 0
 192 1024 192 972 192 913 c 2
 192 495 l 2
 192 436 192 384 205 333 c 0
 231 228 298 160 402 133 c 0
 449 121 504 120 563 120 c 0xbf
 662 120 771 128 883 141 c 1
 883 21 l 1x7f
 772 8 670 0 563 0 c 0xbf
 503 0 437 0 369 17 c 0
 227 52 117 152 80 307 c 0
 64 374 64 436 64 495 c 2
 64 913 l 2
 64 972 64 1034 80 1101 c 0
 117 1256 227 1356 369 1391 c 0
 437 1408 503 1408 563 1408 c 0
 610 1408 662 1408 717 1394 c 0
 835 1364 918 1282 947 1164 c 0
 960 1112 960 1061 960 1016 c 2
EndSplineSet
Validated: 1
Layer: 2
SplineSet
896 402 m 6
 896 507 l 5
 886 507 l 5
 830 419 763 368 668 368 c 4
 615 368 507 394 443 490 c 4
 409 541 384 608 384 685 c 4
 384 767 409 854 472 917 c 4
 562 1007 672 1006 734 1006 c 6
 896 1006 l 5
 896 1054 896 1100 886 1139 c 4
 867.566599529 1210.89026184 821 1259 748 1278 c 4
 713.962976325 1286.85895137 673 1288 627 1288 c 4
 568 1288 513 1287 466 1275 c 4
 361.892057635 1248.41924876 296 1180 269 1075 c 4
 255.892773465 1024.02745236 256 972 256 913 c 6
 256 495 l 6
 256 436 256 384 269 333 c 4
 295.779120591 227.943449988 362 160 466 133 c 4
 512.951268933 120.810728258 568 120 627 120 c 4
 673 120 714 121 748 130 c 4
 820.920594459 149.302510298 868 197 886 269 c 4
 895.76488306 308.05953224 896 354 896 402 c 6
1024 391 m 6
 1024 346.304054054 1023.79231324 295.699782259 1011 244 c 4
 982 126 898.99131199 44.0341521428 781 14 c 4
 726 -3.5527136788e-15 674 0 627 0 c 4
 567 0 501.056010408 0.225631237525 433 17 c 4
 291 52 181.01412028 152.003371327 144 307 c 4
 128 374 128 436 128 495 c 6
 128 913 l 6
 128 972 128.006103738 1033.99854268 144 1101 c 4
 181 1256 291.116866649 1355.52921666 433 1391 c 4
 501 1408 567 1408 627 1408 c 4
 674 1408 725.995950206 1407.98408046 781 1394 c 4
 899 1364 981.529176941 1281.88329224 1011 1164 c 4
 1024 1112 1024 1061 1024 1016 c 6
 1024 391 l 6
896 805 m 6
 896 896 l 5
 732 896 l 6
 677 896 619.083272506 895.92123209 568 842 c 4
 532 804 512 746 512 687 c 4
 512 578 585 488 692 488 c 4
 782 488 843.967374495 548.013794261 874 619 c 4
 896 671 896 733 896 805 c 6
EndSplineSet
Layer: 3
Layer: 4
EndChar
StartChar: A
Encoding: 65 65 29
GlifName: A_
Width: 1024
VWidth: 0
Flags: W
HStem: 0 21G<39 179.5 844.5 985> 388 120<250 774> 1388 20G<325 699>
VStem: 39 135<0 253.02> 850 135<0 253.803>
AnchorPoint: "bottom" 916 0 basechar 0
AnchorPoint: "top" 512 1408 basechar 0
LayerCount: 5
Back
Fore
SplineSet
39 0 m 1
 92 496 203 971 447 1408 c 1
 577 1408 l 1
 821 971 932 496 985 0 c 1
 850 0 l 1
 839 136 819 265 795 388 c 1
 229 388 l 1
 210 265 185 136 174 0 c 1
 39 0 l 1
774 508 m 1
 706 796 633 1054 517 1279 c 1
 507 1279 l 1
 391 1054 318 796 250 508 c 1
 774 508 l 1
EndSplineSet
Validated: 1
Layer: 2
Layer: 3
Layer: 4
Position2: "Single Positioning lookup 25 subtable" dx=-128 dy=0 dh=0 dv=0
Position2: "Single Positioning lookup 24 subtable" dx=0 dy=0 dh=0 dv=0
EndChar
StartChar: B
Encoding: 66 66 30
GlifName: B_
Width: 1024
VWidth: 0
Flags: W
HStem: 0 120<256 710.131> 648 120<256 640.993> 1288 120<256 645.336>
VStem: 128 128<120 648 768 1288> 767 128<892.587 1162.61> 832 128<244.266 528.153>
LayerCount: 5
Back
SplineSet
449 768 m 6xf8
 525 768 565 769 601 778 c 4
 709 804 784 896 784 1028 c 4
 784 1160 709 1254 601 1278 c 4
 565 1286 525 1288 449 1288 c 6
 256 1288 l 5
 256 768 l 5
 449 768 l 6xf8
912 1028 m 4
 912 896 849 798 763 748 c 5
 925 704 1040 566 1040 384 c 4xf4
 1040 193 928 54 776 16 c 4
 712 0 648 0 563 0 c 6
 128 0 l 5
 128 1408 l 5
 449 1408 l 6
 526 1408 578 1408 633 1395 c 4
 792 1357 912 1222 912 1028 c 4
256 648 m 5
 256 120 l 5
 563 120 l 6
 644 120 699 120 744 132 c 4
 843 158 912 254 912 384 c 4
 912 514 844 612 744 636 c 4
 699 647 644 648 563 648 c 6
 256 648 l 5
EndSplineSet
Fore
SplineSet
432 768 m 2xf8
 508 768 548 769 584 778 c 0
 692 804 767 896 767 1028 c 0
 767 1160 692 1254 584 1278 c 0
 548 1286 508 1288 432 1288 c 2
 256 1288 l 1
 256 768 l 1
 432 768 l 2xf8
128 1408 m 1
 432 1408 l 2
 509 1408 561 1408 616 1395 c 0
 775 1357 895 1222 895 1028 c 0xf8
 895 888 826 785 721 732 c 1
 721 722 l 1
 860 676 960 553 960 384 c 0xf4
 960 193 848 54 696 16 c 0
 632 0 568 0 483 0 c 2
 128 0 l 1
 128 1408 l 1
256 648 m 1
 256 120 l 1
 483 120 l 2
 564 120 619 120 664 132 c 0
 763 158 832 254 832 384 c 0xf4
 832 514 764 612 664 636 c 0
 619 647 564 648 483 648 c 2
 256 648 l 1
EndSplineSet
Validated: 1
Layer: 2
SplineSet
636 640 m 0
 789.15625 640 896 535.05 896 384 c 0
 896 232.95 789.15625 128 636 128 c 0
 482.84375 128 376 232.95 376 384 c 4
 376 535.05 482.84375 640 636 640 c 0
636 1476 m 0
 826.85625 1476 960 1344.8125 960 1156 c 0
 960 967.1875 826.85625 836 636 836 c 0
 445.14375 836 312 967.1875 312 1156 c 0
 312 1344.8125 445.14375 1476 636 1476 c 0
EndSplineSet
Layer: 3
SplineSet
601 640 m 2
 638.062501111 640 675.469476633 639.327092325 711.51549472 630.706560515 c 0
 747.561512807 622.086028706 781.87092644 605.604172083 810.129770314 581.623623059 c 0
 838.388614186 557.643074034 860.400761005 526.574299373 874.738600141 492.397474514 c 0
 889.076439276 458.220649654 896.000000001 421.062501111 896 384 c 0
 896 346.937498889 889.076439274 309.779350346 874.738600137 275.602525486 c 0
 860.400761 241.425700626 838.38861418 210.356925966 810.129770306 186.376376942 c 0
 781.870926433 162.395827918 747.561512802 145.913971295 711.515494716 137.293439486 c 0
 675.46947663 128.672907676 638.06250111 128 601 128 c 2
 202 128 l 1
 202 640 l 1
 601 640 l 2
  Spiro
    601 640 ]
    896 384 o
    601 128 [
    202 128 v
    202 640 v
    0 0 z
  EndSpiro
591 1476 m 2
 637.344591086 1476 684.119104348 1475.16033304 729.195309328 1464.39200598 c 0
 774.271514308 1453.62367893 817.181439155 1433.03380997 852.533391598 1403.06615104 c 0
 887.88534404 1373.09849212 915.433566213 1334.26472568 933.381291036 1291.53651138 c 0
 951.329015858 1248.80829709 960.000000001 1202.34459109 960 1156 c 0
 960 1109.65540891 951.329015855 1063.19170291 933.381291031 1020.46348862 c 0
 915.433566207 977.735274323 887.885344032 938.901507883 852.533391589 908.933848959 c 0
 817.181439148 878.966190035 774.271514302 858.376321073 729.195309324 847.607994019 c 0
 684.119104346 836.839666965 637.344591085 836 591 836 c 2
 192 836 l 1
 192 1476 l 1
 591 1476 l 2
  Spiro
    591 1476 ]
    960 1156 o
    591 836 [
    192 836 v
    192 1476 v
    0 0 z
  EndSpiro
EndSplineSet
Layer: 4
Position2: "Single Positioning lookup 25 subtable" dx=-128 dy=0 dh=0 dv=0
Position2: "Single Positioning lookup 24 subtable" dx=0 dy=0 dh=0 dv=0
EndChar
StartChar: D
Encoding: 68 68 32
GlifName: D_
Width: 1024
VWidth: 0
Flags: W
HStem: 0 120<320 682.099> 1288 120<320 682.099>
VStem: 192 128<120 1288> 912 128<374.669 1033.33>
AnchorPoint: "top" 640 1408 basechar 0
LayerCount: 5
Back
Fore
SplineSet
474 1408 m 6
 717 1408 859 1306 943 1171 c 4
 1025 1040 1040 877 1040 704 c 4
 1040 531 1025 368 943 237 c 4
 859 102 717 0 474 0 c 6
 192 0 l 5
 192 1408 l 5
 474 1408 l 6
912 704 m 4
 912 888 893 1030 825 1126 c 4
 766 1210 670 1288 474 1288 c 6
 320 1288 l 5
 320 120 l 5
 474 120 l 6
 670 120 766 198 825 282 c 4
 893 378 912 520 912 704 c 4
EndSplineSet
Validated: 1
Layer: 2
Layer: 3
Layer: 4
EndChar
StartChar: F
Encoding: 70 70 34
GlifName: F_
Width: 1024
VWidth: 0
Flags: WO
HStem: 0 21G<192 320> 640 120<320 832> 1288 120<320 960>
VStem: 192 128<0 640 760 1288>
LayerCount: 5
Back
Fore
SplineSet
192 1408 m 5
 960 1408 l 5
 960 1288 l 5
 320 1288 l 5
 320 760 l 5
 832 760 l 5
 832 640 l 5
 320 640 l 5
 320 0 l 5
 192 0 l 5
 192 1408 l 5
EndSplineSet
Layer: 2
Layer: 3
Layer: 4
EndChar
StartChar: G
Encoding: 71 71 35
GlifName: G_
Width: 1024
VWidth: 0
Flags: W
HStem: -16 120<425.833 828.627> 648 120<576 832> 1304 120<437.577 905.539>
VStem: 112 128<349.635 1058.53> 832 128<121.42 648>
LayerCount: 5
Back
SplineSet
643 1424 m 4
 766 1424 885 1413.10526316 994 1397 c 5
 994 1277 l 5
 881 1292.49180328 755 1304 643 1304 c 4
 430 1304 312 1188 268 1016 c 4
 243 919 240 813 240 704 c 4
 240 595 243 489 268 392 c 4
 312 220 430 104 643 104 c 4
 724 104 811 113.176470588 896 128 c 5
 896 648 l 5
 640 648 l 5
 640 768 l 5
 1024 768 l 5
 1024 34 l 5
 907 6.30769230769 777 -16 643 -16 c 4
 366 -16 199 142 143 364 c 4
 114 478 112 594 112 704 c 4
 112 814 114 930 143 1044 c 4
 201 1266 366 1424 643 1424 c 4
EndSplineSet
Fore
SplineSet
609 1424 m 0
 714 1424 817 1415 910 1402 c 1
 910 1282 l 1
 813 1295 705 1304 609 1304 c 0
 415.345679012 1304 312.20003515 1187.49613638 268 1016 c 0
 243 919 240 813 240 704 c 0
 240 595 243 489 268 392 c 0
 311.882522142 221.735814088 402.352 104 579 104 c 0
 660 104 747 113 832 128 c 1
 832 648 l 1
 576 648 l 1
 576 768 l 1
 960 768 l 1
 960 34 l 1
 843 6 713 -16 579 -16 c 0
 337.456 -16 199.038980301 143.708836058 143 364 c 0
 114 478 112 594 112 704 c 0
 112 814 114 930 143 1044 c 0
 199.34839759 1265.50749397 350.501886792 1424 609 1424 c 0
EndSplineSet
Validated: 1
Layer: 2
Layer: 3
Layer: 4
EndChar
StartChar: I
Encoding: 73 73 37
GlifName: I_
Width: 1024
VWidth: 0
Flags: W
HStem: 0 120<192 448 576 832> 1288 120<192 448 576 832>
VStem: 448 128<120 1288>
AnchorPoint: "top" 512 1408 basechar 0
AnchorPoint: "bottom" 512 0 basechar 0
LayerCount: 5
Back
Fore
SplineSet
832 1408 m 1
 832 1288 l 1
 576 1288 l 1
 576 120 l 1
 832 120 l 1
 832 0 l 1
 192 0 l 1
 192 120 l 1
 448 120 l 1
 448 1288 l 1
 192 1288 l 1
 192 1408 l 1
 832 1408 l 1
EndSplineSet
Validated: 1
Layer: 2
Layer: 3
Layer: 4
EndChar
StartChar: J
Encoding: 74 74 38
GlifName: J_
Width: 1024
VWidth: 0
InSpiro: 1
Flags: W
HStem: -16 120<259.67 667.873> 1388 20G<768 896>
VStem: 768 128<216.393 1408>
AnchorPoint: "top" 832 1408 basechar 0
LayerCount: 5
Back
SplineSet
896 512 m 6
 896 391 894 286 856 193 c 4
 809 78 703 -16 534 -16 c 4
 441 -16 341 -5 224 15 c 5
 224 136 l 5
 342 116 444 104 534 104 c 4
 635 104 700 152 736 235 c 4
 768 308 768 410 768 512 c 6
 768 1288 l 5
 256 1288 l 5
 256 1408 l 5
 469 1408 683 1408 896 1408 c 5
 896 512 l 6
  Spiro
    896 512 ]
    894.079 396.296 o
    883.241 290.047 o
    856 193 o
    789.272 87.7966 o
    682.021 12.5751 o
    534 -16 o
    438.395 -12.4145 o
    335.597 -1.91214 o
    224 15 v
    224 136 v
    336.707 118.829 o
    439.95 107.844 o
    534 104 o
    623.181 119.488 o
    690.13 164.206 o
    736 235 o
    758.504 316.503 o
    766.818 411.173 o
    768 512 [
    768 1288 v
    256 1288 v
    256 1408 v
    896 1408 v
    0 0 z
  EndSpiro
EndSplineSet
Fore
SplineSet
896 512 m 2
 896 395 895 286 856 193 c 0
 808 79 706 -16 544 -16 c 0
 428 -16 335 -2 256 8 c 1
 256 129 l 1
 333 118 433 104 537 104 c 0
 636 104 700 153 736 235 c 0
 768 308 768 410 768 512 c 2
 768 1408 l 1
 896 1408 l 1
 896 512 l 2
  Spiro
    896 512 ]
    894.301 398.074 o
    883.686 290.934 o
    856 193 o
    789.862 88.2411 o
    686.1 12.797 o
    544 -16 o
    435.435 -12.0073 o
    339.911 -2.656 o
    256 8 v
    256 129 v
    339.873 117.641 o
    435.136 108.03 o
    537 104 o
    624.516 119.71 o
    690.463 164.651 o
    736 235 o
    758.504 316.503 o
    766.818 411.173 o
    768 512 [
    768 1408 v
    896 1408 v
    0 0 z
  EndSpiro
EndSplineSet
Validated: 1
Layer: 2
Layer: 3
Layer: 4
EndChar
StartChar: K
Encoding: 75 75 39
GlifName: K_
Width: 1024
VWidth: 0
Flags: W
HStem: 0 21G<64 192 826.881 998> 1388 20G<64 192 749.338 905>
VStem: 64 128<0 558 719 1408>
AnchorPoint: "bottom" 512 0 basechar 0
LayerCount: 5
Back
Fore
SplineSet
192 0 m 1
 64 0 l 1
 64 1408 l 1
 192 1408 l 1
 192 719 l 1
 766 1408 l 1
 905 1408 l 1
 417 813 l 1
 998 0 l 1
 841 0 l 1
 332 721 l 1
 192 558 l 1
 192 0 l 1
EndSplineSet
Validated: 1
Layer: 2
SplineSet
502 768 m 5
 1052 -138 l 1029
320 520 m 5
 1152 1806 l 1029
384 1408 m 5
 384 0 l 5
 256 0 l 5
 256 1408 l 5
 384 1408 l 5
512 752 m 5
 1052 -138 l 1029
320 520 m 5
 1152 1806 l 1029
EndSplineSet
Layer: 3
Layer: 4
EndChar
StartChar: L
Encoding: 76 76 40
GlifName: L_
Width: 1024
VWidth: 0
Flags: W
HStem: 0 120<256 896> 1388 20G<128 256>
VStem: 128 128<120 1408>
AnchorPoint: "bottom" 512 0 basechar 0
AnchorPoint: "top" 192 1408 basechar 0
LayerCount: 5
Back
Fore
SplineSet
128 0 m 5
 128 1408 l 5
 256 1408 l 5
 256 120 l 5
 896 120 l 5
 896 0 l 5
 128 0 l 5
EndSplineSet
Validated: 1
Layer: 2
Layer: 3
Layer: 4
EndChar
StartChar: M
Encoding: 77 77 28
GlifName: M_
Width: 1024
VWidth: 0
Flags: W
HStem: 0 21G<64 192 832 960> 1388 20G<64 202.032 822 960>
VStem: 64 128<0 1150> 832 128<0 1150>
LayerCount: 5
Back
Fore
SplineSet
192 0 m 1
 64 0 l 1
 64 1408 l 1
 192 1408 l 1
 507 780 l 1
 518 780 l 1
 832 1408 l 1
 960 1408 l 1
 960 0 l 1
 832 0 l 1
 832 1150 l 1
 822 1150 l 1
 567 640 l 1
 457 640 l 1
 202 1150 l 1
 192 1150 l 1
 192 0 l 1
EndSplineSet
Validated: 1
Layer: 2
SplineSet
192 0 m 29
 192 1521 l 29
 576 900 l 29
 960 1521 l 29
 960 0 l 1053
EndSplineSet
Layer: 3
Layer: 4
Position2: "Single Positioning lookup 25 subtable" dx=-128 dy=0 dh=0 dv=0
Position2: "Single Positioning lookup 24 subtable" dx=0 dy=0 dh=0 dv=0
EndChar
StartChar: N
Encoding: 78 78 41
GlifName: N_
Width: 1024
VWidth: 0
Flags: W
HStem: 0 21G<128 256 759.099 896> 1388 20G<128 263.918 768 896>
VStem: 128 128<0 1128> 768 128<280 1408>
AnchorPoint: "top" 512 1408 basechar 0
LayerCount: 5
Back
Fore
SplineSet
256 0 m 1
 128 0 l 1
 128 1408 l 1
 255 1408 l 1
 758 280 l 1
 768 280 l 1
 768 1408 l 1
 896 1408 l 1
 896 0 l 1
 768 0 l 1
 266 1128 l 1
 256 1128 l 1
 256 0 l 1
EndSplineSet
Validated: 1
Layer: 2
SplineSet
192 0 m 5
 192 1521 l 5
 960 15 l 5
 960 1536 l 1029
EndSplineSet
Layer: 3
Layer: 4
Position2: "Single Positioning lookup 25 subtable" dx=-128 dy=0 dh=0 dv=0
Position2: "Single Positioning lookup 24 subtable" dx=0 dy=0 dh=0 dv=0
EndChar
StartChar: O
Encoding: 79 79 42
GlifName: O_
Width: 1024
VWidth: 0
Flags: W
HStem: -16 120<434.322 717.678> 1304 120<434.322 717.678>
VStem: 128 128<324.778 1083.22> 896 128<324.778 1083.22>
AnchorPoint: "bottom" 576 0 basechar 0
AnchorPoint: "top" 576 1408 basechar 0
LayerCount: 5
Back
SplineSet
576 1304 m 4
 525.10546875 1304 473.454101562 1289.10351562 429.995117188 1261.38964844 c 4
 392.141601562 1237.25 359.087890625 1202.52148438 334.169921875 1161.90039062 c 4
 309.174804688 1121.15429688 291.654296875 1073.96777344 280.184570312 1024.19921875 c 4
 257.024414062 923.701171875 256 815.397460938 256 704 c 4
 256 592.602539062 257.024414062 484.298828125 280.184570312 383.80078125 c 4
 291.653320312 334.033203125 309.174804688 286.844726562 334.169921875 246.100585938 c 4
 359.088867188 205.477539062 392.140625 170.750976562 429.995117188 146.611328125 c 4
 473.456054688 118.895507812 525.10546875 104 576 104 c 4
 626.89453125 104 678.545898438 118.896484375 722.00390625 146.610351562 c 4
 759.859375 170.750976562 792.911132812 205.478515625 817.830078125 246.100585938 c 4
 842.826171875 286.845703125 860.345703125 334.032226562 871.815429688 383.80078125 c 4
 894.975585938 484.298828125 896 592.603515625 896 704 c 4
 896 815.397460938 894.975585938 923.700195312 871.815429688 1024.19921875 c 4
 860.345703125 1073.96777344 842.825195312 1121.15429688 817.830078125 1161.90039062 c 4
 792.911132812 1202.52148438 759.859375 1237.24902344 722.00390625 1261.38964844 c 4
 678.544921875 1289.10351562 626.893554688 1304 576 1304 c 4
  Spiro
    576 1304 o
    525.235 1299.12 o
    475.806 1284.74 o
    429.995 1261.39 o
    393.899 1233.92 o
    361.646 1200.35 o
    334.17 1161.9 o
    311.634 1119.19 o
    293.708 1072.92 o
    280.185 1024.2 o
    263.632 921.379 o
    257.12 814.083 o
    256 704 o
    257.12 593.917 o
    263.632 486.621 o
    280.185 383.801 o
    293.708 335.084 o
    311.634 288.805 o
    334.17 246.101 o
    361.646 207.653 o
    393.899 174.076 o
    429.995 146.611 o
    475.806 123.265 o
    525.235 108.879 o
    576 104 o
    626.765 108.879 o
    676.194 123.265 o
    722.004 146.61 o
    758.101 174.075 o
    790.353 207.653 o
    817.83 246.101 o
    840.367 288.805 o
    858.292 335.083 o
    871.815 383.801 o
    888.368 486.621 o
    894.88 593.918 o
    896 704 o
    894.88 814.083 o
    888.368 921.379 o
    871.815 1024.2 o
    858.292 1072.92 o
    840.366 1119.19 o
    817.83 1161.9 o
    790.353 1200.35 o
    758.101 1233.92 o
    722.004 1261.39 o
    676.194 1284.74 o
    626.764 1299.12 o
    0 0 z
  EndSpiro
576 1424 m 4
 653.198242188 1424 729.455078125 1401.76855469 793.99609375 1360.61035156 c 4
 850.166015625 1324.79003906 895.397460938 1276.15820312 928.7890625 1221.72460938 c 4
 962.106445312 1167.41308594 983.35546875 1108.44140625 996.928710938 1049.54003906 c 4
 1023.85449219 932.701171875 1024 815.635742188 1024 704 c 4
 1024 592.36328125 1023.85449219 475.298828125 996.928710938 358.458984375 c 4
 983.35546875 299.559570312 962.10546875 240.5859375 928.7890625 186.276367188 c 4
 895.397460938 131.841796875 850.166015625 83.208984375 793.99609375 47.3896484375 c 4
 729.454101562 6.23046875 653.197265625 -16 576 -16 c 4
 498.802734375 -16 422.543945312 6.2314453125 358.004882812 47.3896484375 c 4
 301.833984375 83.208984375 256.602539062 131.842773438 223.2109375 186.275390625 c 4
 189.893554688 240.586914062 168.645507812 299.559570312 155.071289062 358.458984375 c 4
 128.145507812 475.297851562 128 592.364257812 128 704 c 4
 128 815.63671875 128.145507812 932.701171875 155.071289062 1049.54003906 c 4
 168.64453125 1108.44140625 189.893554688 1167.41308594 223.2109375 1221.72460938 c 4
 256.603515625 1276.15917969 301.833007812 1324.7890625 358.004882812 1360.61132812 c 4
 422.545898438 1401.76855469 498.802734375 1424 576 1424 c 4
  Spiro
    576 1424 o
    652.41 1416.73 o
    726.02 1395.31 o
    793.996 1360.61 o
    846.438 1320.82 o
    891.525 1273.91 o
    928.789 1221.72 o
    958.221 1166.09 o
    980.653 1108.23 o
    996.929 1049.54 o
    1015.9 932.952 o
    1022.97 817.122 o
    1024 704 o
    1022.97 590.878 o
    1015.9 475.048 o
    996.929 358.459 o
    980.653 299.769 o
    958.22 241.908 o
    928.789 186.276 o
    891.525 134.085 o
    846.438 87.1769 o
    793.996 47.3896 o
    726.019 12.6905 o
    652.409 -8.72658 o
    576 -16 o
    499.59 -8.72636 o
    425.98 12.6909 o
    358.005 47.3896 o
    305.563 87.1771 o
    260.475 134.085 o
    223.211 186.275 o
    193.78 241.908 o
    171.347 299.769 o
    155.071 358.459 o
    136.098 475.048 o
    129.032 590.878 o
    128 704 o
    129.032 817.122 o
    136.098 932.952 o
    155.071 1049.54 o
    171.347 1108.23 o
    193.779 1166.09 o
    223.211 1221.72 o
    260.475 1273.92 o
    305.562 1320.82 o
    358.005 1360.61 o
    425.981 1395.31 o
    499.591 1416.73 o
    0 0 z
  EndSpiro
EndSplineSet
Fore
SplineSet
576 1304 m 0
 464 1304 380 1238 334 1162 c 0
 256 1033 256 858 256 704 c 0
 256 550 256 375 334 246 c 0
 380 170 464 104 576 104 c 0
 688 104 772 170 818 246 c 0
 896 375 896 550 896 704 c 0
 896 858 896 1033 818 1162 c 0
 772 1238 688 1304 576 1304 c 0
576 1424 m 0
 740 1424 864 1329 929 1222 c 0
 1024 1066 1024 864 1024 704 c 0
 1024 544 1024 342 929 186 c 0
 864 79 740 -16 576 -16 c 0
 412 -16 288 79 223 186 c 0
 128 342 128 544 128 704 c 0
 128 864 128 1066 223 1222 c 0
 288 1329 412 1424 576 1424 c 0
EndSplineSet
Validated: 1
Layer: 2
SplineSet
576 1492 m 4
 811.625 1492 976 1328.015625 976 1092 c 4
 976 865.425 811.625 708 576 708 c 4
 340.375 708 176 865.425 176 1092 c 4
 176 1328.015625 340.375 1492 576 1492 c 4
  Spiro
    576 1492 o
    784.248 1440.84 o
    924.757 1300.42 o
    976 1092 o
    924.757 891.915 o
    784.248 757.11 o
    576 708 o
    367.752 757.11 o
    227.243 891.915 o
    176 1092 o
    227.243 1300.42 o
    367.752 1440.84 o
    0 0 z
  EndSpiro
576 828 m 4
 811.625 828 976 670.575 976 444 c 4
 976 207.984375 811.625 44 576 44 c 4
 340.375 44 176 207.984375 176 444 c 4
 176 670.575 340.375 828 576 828 c 4
  Spiro
    576 828 o
    784.248 778.89 o
    924.757 644.085 o
    976 444 o
    924.757 235.578 o
    784.248 95.1567 o
    576 44 o
    367.752 95.1567 o
    227.243 235.578 o
    176 444 o
    227.243 644.085 o
    367.752 778.89 o
    0 0 z
  EndSpiro
EndSplineSet
Layer: 3
SplineSet
576 1364 m 0
 640.045709207 1364 704.000091429 1345.43635785 758 1311 c 0
 805.012384382 1281.01966605 844.154262175 1239.34016042 873.309998291 1191.81198183 c 0
 902.465734407 1144.28380323 921.850873093 1091.203776 934.372200677 1036.86961488 c 0
 959.414855845 928.201292643 960 815.516540637 960 704 c 0
 960 592.483459363 959.414855845 479.798707357 934.372200677 371.13038512 c 0
 921.850873093 316.796224002 902.465734407 263.716196768 873.309998291 216.188018174 c 0
 844.154262175 168.659839581 805.012384382 126.980333948 758 97 c 0
 704.000091429 62.5636421462 640.045709207 44 576 44 c 0
 511.954290793 44 447.999908571 62.5636421462 394 97 c 0
 346.987615618 126.980333948 307.845737825 168.659839581 278.690001709 216.188018174 c 0
 249.534265593 263.716196768 230.149126907 316.796224002 217.627799323 371.13038512 c 0
 192.585144155 479.798707357 192 592.483459363 192 704 c 0
 192 815.516540637 192.585144155 928.201292643 217.627799323 1036.86961488 c 0
 230.149126907 1091.203776 249.534265593 1144.28380323 278.690001709 1191.81198183 c 0
 307.845737825 1239.34016042 346.987615618 1281.01966605 394 1311 c 0
 447.999908571 1345.43635785 511.954290793 1364 576 1364 c 0
  Spiro
    576 1364 o
    758 1311 o
    960 704 o
    758 97 o
    576 44 o
    394 97 o
    192 704 o
    394 1311 o
    0 0 z
  EndSpiro
EndSplineSet
Layer: 4
Position2: "Single Positioning lookup 25 subtable" dx=-128 dy=0 dh=0 dv=0
Position2: "Single Positioning lookup 24 subtable" dx=0 dy=0 dh=0 dv=0
EndChar
StartChar: P
Encoding: 80 80 43
GlifName: P_
Width: 1024
VWidth: 0
Flags: W
HStem: 0 21G<192 320> 520 120<320 691.459> 1288 120<320 691.459>
VStem: 192 128<0 520 640 1288> 848 128<795.125 1132.88>
LayerCount: 5
Back
Fore
SplineSet
320 1288 m 5
 320 640 l 5
 469 640 l 6
 551 640 657 640 741 713 c 4
 804 767 848 856 848 964 c 4
 848 1072 804 1161 741 1215 c 4
 657 1288 551 1288 469 1288 c 6
 320 1288 l 5
192 1408 m 5
 469 1408 l 6
 560 1408 708 1408 827 1303 c 4
 913 1227 976 1111 976 964 c 4
 976 817 913 701 827 625 c 4
 708 520 560 520 469 520 c 6
 320 520 l 5
 320 0 l 5
 192 0 l 5
 192 1408 l 5
EndSplineSet
Validated: 1
Layer: 2
Layer: 3
Layer: 4
EndChar
StartChar: R
Encoding: 82 82 45
GlifName: R_
Width: 1024
VWidth: 0
Flags: W
HStem: 0 21G<192 320 859.461 1001> 640 120<320 625> 1288 120<320 739.156>
VStem: 192 128<0 640 760 1288> 848 128<871.045 1174.85>
LayerCount: 5
Back
Fore
SplineSet
320 0 m 1
 192 0 l 1
 192 1408 l 1
 513 1408 l 2
 590 1408 642 1408 697 1395 c 0
 856 1357 976 1220 976 1024 c 0
 976 851 882 723 750 670 c 1
 1001 0 l 1
 867 0 l 1
 625 642 l 1
 592 640 557 640 513 640 c 2
 320 640 l 1
 320 0 l 1
513 760 m 2
 589 760 629 762 665 770 c 0
 773 794 848 890 848 1024 c 0
 848 1158 773 1254 665 1278 c 0
 629 1286 589 1288 513 1288 c 2
 320 1288 l 1
 320 760 l 1
 513 760 l 2
EndSplineSet
Validated: 1
Layer: 2
SplineSet
439 760 m 6
 524 760 575 761 620 772 c 4
 755 805 848 925 848 1088 c 4
 848 1251 755 1371 620 1404 c 4
 575 1415 524 1416 439 1416 c 6
 256 1416 l 5
 256 760 l 5
 439 760 l 6
534.4140625 641.071289062 m 5
 505.526367188 640 474.323242188 640 439 640 c 6
 256 640 l 5
 256 0 l 5
 128 0 l 5
 128 1536 l 5
 439 1536 l 6
 526 1536 588 1536 652 1520 c 4
 838 1475 976 1312 976 1088 c 4
 976 868.202148438 843.12890625 707.13671875 662.416992188 658.657226562 c 5
 912.923828125 0 l 5
 769.30078125 0 l 5
 534.4140625 641.071289062 l 5
EndSplineSet
Layer: 3
Layer: 4
EndChar
StartChar: S
Encoding: 83 83 46
GlifName: S_
Width: 1024
VWidth: 0
Flags: W
HStem: -16 120<255.397 795.429> 1304 120<468.491 984.716>
VStem: 226 128<895.052 1188.92> 926 128<231.488 531.333>
LayerCount: 5
Back
Fore
SplineSet
620 -16 m 4
 486 -16 366 -2 250 16 c 5
 250 139 l 5
 364 121 492 104 620 104 c 4
 809 104 926 213 926 385 c 4
 926 482.739378505 878.455515634 567.268833159 800 612.783203125 c 4
 705.276939853 667.734857818 583.851403179 650.880906056 465.444335938 694 c 4
 324.71961572 745.246285992 226 867.227351198 226 1045 c 4
 226 1261 385 1424 620 1424 c 4
 756 1424 877 1410.85714286 990 1399 c 5
 990 1278 l 5
 878 1290.37037037 745 1304 620 1304 c 4
 455 1304 354 1191 354 1045 c 4
 354 935.687555805 405.979176265 857.538357535 482 818.772460938 c 4
 581.177049052 768.198328226 728.8518454 788.07792132 850 724.547851562 c 4
 972.239954326 660.445242231 1054 535.840663584 1054 385 c 4
 1054 147 879 -16 620 -16 c 4
EndSplineSet
Validated: 1
Layer: 2
SplineSet
576 1364 m 0
 770.390625 1364 906 1234.61328125 906 1034 c 4
 906 842.827148438 770.390625 704 576 704 c 0
 381.609375 704 246 842.827148438 246 1034 c 0
 246 1234.61328125 381.609375 1364 576 1364 c 0
  Spiro
    576 1364 o
    747.805 1323.1 o
    863.724 1208.57 o
    906 1034 o
    863.724 863.625 o
    747.805 746.99 o
    576 704 o
    404.195 746.99 o
    288.276 863.625 o
    246 1034 o
    288.276 1208.57 o
    404.195 1323.1 o
    0 0 z
  EndSpiro
576 704 m 0
 793.953125 704 946 562.8125 946 374 c 4
 946 175.747070312 793.953125 44 576 44 c 0
 358.046875 44 206 175.747070312 206 374 c 0
 206 562.8125 358.046875 704 576 704 c 0
  Spiro
    576 704 o
    768.63 660.486 o
    898.6 543.326 o
    946 374 o
    898.6 200.479 o
    768.63 85.4188 o
    576 44 o
    383.37 85.4188 o
    253.4 200.479 o
    206 374 o
    253.4 543.326 o
    383.37 660.486 o
    0 0 z
  EndSpiro
EndSplineSet
Layer: 3
SplineSet
119 128 m 4
 184.904269994 111.18024036 251.270678437 96.1709817957 318 83 c 4
 367.467542194 73.2361348436 417.112368286 64.3208602971 467 57 c 4
 516.369842506 49.7551237159 566.10145967 44.0724868737 616 44 c 4
 616.302285852 43.9995608738 616.604585094 43.9993408882 616.906896992 43.9993408882 c 4
 669.49887712 43.9993408882 722.473885493 50.6570190234 771.970171345 68.4211210116 c 4
 821.750974267 86.2873355155 867.595597611 115.708038332 903 155 c 4
 957.807926253 215.826077891 986.019112705 297.56119565 986.019112705 380.748041824 c 4
 986.019112705 444.39059731 969.486530117 508.404176843 935.672596142 562.302648486 c 4
 901.194781272 617.25932784 848.191915135 659.794841952 788 684 c 4
 732.310120284 706.394740841 671.937043957 713.651826484 612.48984382 721.953483908 c 4
 553.042643683 730.255141332 492.847644309 741.539261936 440 770 c 4
 391.608876844 796.06070902 350.889057216 836.211771491 324.568386313 884.461990539 c 4
 298.460800854 932.321588108 285.997509904 987.142675762 285.997509904 1041.66505784 c 4
 285.997509904 1129.46733644 318.945729442 1217.6052298 382 1278 c 4
 412.772778095 1307.47484516 450.147291975 1329.86784745 490.358882056 1343.96601727 c 4
 530.570472137 1358.06418709 573.388657033 1363.93819735 616 1364 c 4
 616.714448305 1364.00051781 l 4
 659.416881673 1364.00051781 701.951866126 1358.45752993 744 1351 c 4
 784.946897419 1343.73778204 825.561861064 1334.70284171 866 1325 c 4
 947.315630362 1305.48889709 1027.92865062 1283.11418434 1108 1259 c 1028
  Spiro
    119 128 {
    318 83 o
    467 57 o
    616 44 o
    903 155 o
    986 377 o
    788 684 o
    440 770 o
    286 1043 o
    382 1278 o
    616 1364 o
    744 1351 o
    866 1325 o
    1108 1259 o
    0 0 z
  EndSpiro
EndSplineSet
Layer: 4
EndChar
StartChar: T
Encoding: 84 84 47
GlifName: T_
Width: 1024
VWidth: 0
Flags: W
HStem: 0 21G<512 640> 1288 120<128 512 640 1024>
VStem: 512 128<0 1288>
AnchorPoint: "bottom" 576 0 basechar 0
AnchorPoint: "top" 576 1408 basechar 0
LayerCount: 5
Back
Fore
SplineSet
1024 1408 m 1
 1024 1288 l 1
 640 1288 l 1
 640 0 l 1
 512 0 l 1
 512 1288 l 1
 128 1288 l 1
 128 1408 l 1
 1024 1408 l 1
EndSplineSet
Validated: 1
Layer: 2
Layer: 3
Layer: 4
EndChar
StartChar: U
Encoding: 85 85 48
GlifName: U_
Width: 1024
VWidth: 0
Flags: W
HStem: -16 120<379.992 643.945> 1388 20G<128 256 768 896>
VStem: 128 128<238.466 1408> 768 128<238.466 1408>
AnchorPoint: "bottom" 512 0 basechar 0
AnchorPoint: "top" 512 1408 basechar 0
LayerCount: 5
Back
Fore
SplineSet
128 1408 m 1
 256 1408 l 1
 256 482 l 2
 256 427 256 358 268 300 c 0
 292 183 375 104 512 104 c 0
 649 104 732 183 756 300 c 0
 768 358 768 427 768 482 c 2
 768 1408 l 1
 896 1408 l 1
 896 482 l 2
 896 416 896 351 880 273 c 0
 845 105 710 -16 512 -16 c 0
 314 -16 178 105 144 273 c 0
 128 351 128 416 128 482 c 2
 128 1408 l 1
EndSplineSet
Validated: 1
Layer: 2
SplineSet
576 812 m 4
 802.2 812 960 654.575 960 428 c 4
 960 201.425 802.2 44 576 44 c 4
 349.8 44 192 201.425 192 428 c 4
 192 654.575 349.8 812 576 812 c 4
EndSplineSet
Layer: 3
SplineSet
192 1536 m 1
 192 482 l 2
 192 426.701625656 193.035856564 370.874340729 206.098947229 317.14105619 c 0
 219.162037895 263.40777165 244.109140936 212.36082041 280.224013825 170.484500593 c 0
 316.338886714 128.608180778 362.980658982 96.1855593791 414.116334248 75.1367370804 c 0
 465.252009514 54.0879147817 520.701625656 43.9999999981 576 44 c 0
 631.298374344 44 686.747990487 54.0879147857 737.883665753 75.1367370865 c 0
 789.019341019 96.1855593872 835.661113286 128.608180789 871.775986175 170.484500605 c 0
 907.890859062 212.36082042 932.837962104 263.407771658 945.901052769 317.141056196 c 0
 958.964143435 370.874340733 959.999999999 426.701625658 960 482 c 2
 960 1535 l 1025
  Spiro
    192 1536 {
    192 482 ]
    576 44 o
    960 482 [
    960 1535 v
    0 0 z
  EndSpiro
EndSplineSet
Layer: 4
Position2: "Single Positioning lookup 25 subtable" dx=-128 dy=0 dh=0 dv=0
Position2: "Single Positioning lookup 24 subtable" dx=0 dy=0 dh=0 dv=0
EndChar
StartChar: W
Encoding: 87 87 50
GlifName: W_
Width: 1024
VWidth: 0
Flags: W
HStem: 0 21G<148 323.136 700.864 876> 1388 20G<55 183 841 969>
VStem: 55 128<1038.93 1408> 841 128<1038.93 1408>
AnchorPoint: "top" 512 1408 basechar 0
LayerCount: 5
Back
Fore
SplineSet
450 896 m 1
 574 896 l 1
 748 210 l 1
 758 210 l 1
 823 579 841 991 841 1408 c 1
 969 1408 l 1
 969 935 922 466 830 0 c 1
 706 0 l 1
 517 736 l 1
 507 736 l 1
 318 0 l 1
 194 0 l 1
 102 466 55 935 55 1408 c 1
 183 1408 l 1
 183 991 202 579 266 210 c 1
 276 210 l 1
 450 896 l 1
EndSplineSet
Validated: 1
Layer: 2
Layer: 3
Layer: 4
Substitution2: "'ss10' Style Set 10 lookup 9 subtable" W.straight
Position2: "Single Positioning lookup 25 subtable" dx=-128 dy=0 dh=0 dv=0
Position2: "Single Positioning lookup 24 subtable" dx=0 dy=0 dh=0 dv=0
EndChar
StartChar: X
Encoding: 88 88 51
GlifName: X_
Width: 1024
VWidth: 0
Flags: W
HStem: 0 21G<25 183.987 840.013 999> 1388 20G<57 214.377 809.623 967>
LayerCount: 5
Back
Fore
SplineSet
507 824 m 1
 517 824 l 1
 820 1408 l 1
 967 1408 l 1
 596 721 l 1
 596 711 l 1
 999 0 l 1
 851 0 l 1
 517 608 l 1
 507 608 l 1
 173 0 l 1
 25 0 l 1
 428 711 l 1
 428 721 l 1
 57 1408 l 1
 204 1408 l 1
 507 824 l 1
EndSplineSet
Validated: 1
Layer: 2
Layer: 3
Layer: 4
Position2: "Single Positioning lookup 25 subtable" dx=-128 dy=0 dh=0 dv=0
Position2: "Single Positioning lookup 24 subtable" dx=0 dy=0 dh=0 dv=0
EndChar
StartChar: Y
Encoding: 89 89 52
GlifName: Y_
Width: 1024
VWidth: 0
Flags: W
HStem: 0 21G<448 576> 1388 20G<36 216.5 807.5 988>
VStem: 448 128<0 661.578>
AnchorPoint: "top" 512 1408 basechar 0
LayerCount: 5
Back
SplineSet
43 1738 m 1
 153 1448 l 2
 261.793904146 1161.17970725 388.971561724 878.150893867 576 635 c 1
 763.028438276 878.150893867 890.206095854 1161.17970725 999 1448 c 2
 1109 1738 l 1025
  Spiro
    43 1738 {
    153 1448 ]
    576 635 v
    999 1448 [
    1109 1738 o
    0 0 z
  EndSpiro
EndSplineSet
Fore
SplineSet
522 741 m 1
 660 944 763 1172 852 1408 c 1
 988 1408 l 1
 882 1132 758 857 576 616 c 1
 576 0 l 1
 448 0 l 1
 448 616 l 1
 266 857 142 1132 36 1408 c 1
 172 1408 l 1
 261 1172 365 943 502 741 c 1
 522 741 l 1
EndSplineSet
Validated: 1
Layer: 2
SplineSet
586 740.814453125 m 5
 723.934062382 943.665060809 826.369234535 1172.35210314 915.587507293 1408 c 5
 1051.72206893 1408 l 5
 946.085942341 1131.85425394 821.733743227 856.868692547 640 615.782305821 c 5
 640 0 l 5
 512 0 l 5
 512 615.782305821 l 5
 330.266256773 856.868692547 205.914057659 1131.85425394 100.277931071 1408 c 5
 236.420326361 1408 l 5
 325.721329961 1172.2814883 428.958917754 942.350941362 566 740.814453125 c 5
 586 740.814453125 l 5
EndSplineSet
Layer: 3
Layer: 4
EndChar
StartChar: Z
Encoding: 90 90 53
GlifName: Z_
Width: 1024
VWidth: 0
Flags: W
HStem: 0 120<293 1024> 1288 120<148 839>
LayerCount: 5
Back
Fore
SplineSet
212 1288 m 5
 212 1408 l 5
 940 1408 l 5
 940 1318 l 5
 342 130 l 5
 342 120 l 5
 960 120 l 5
 960 0 l 5
 192 0 l 5
 192 92 l 5
 790 1278 l 5
 790 1288 l 5
 212 1288 l 5
EndSplineSet
Validated: 1
Layer: 2
Layer: 3
Layer: 4
EndChar
StartChar: bracketleft
Encoding: 91 91 87
GlifName: bracketleft
Width: 1024
VWidth: 0
Flags: W
HStem: -128 120<448 832> 1416 120<448 832>
VStem: 320 128<-8 1416>
LayerCount: 5
Back
Fore
SplineSet
320 1536 m 1
 832 1536 l 1
 832 1416 l 1
 448 1416 l 1
 448 -8 l 1
 832 -8 l 1
 832 -128 l 1
 661 -128 491 -128 320 -128 c 1
 320 426 320 982 320 1536 c 1
EndSplineSet
Validated: 1
Layer: 2
Layer: 3
Layer: 4
EndChar
StartChar: backslash
Encoding: 92 92 26
GlifName: backslash
Width: 1024
VWidth: 0
Flags: W
LayerCount: 5
Back
Fore
SplineSet
850 -155 m 1
 61 1510 l 1
 174 1563 l 1
 963 -102 l 1
 850 -155 l 1
EndSplineSet
Validated: 1
Layer: 2
Layer: 3
Layer: 4
Substitution2: "Single Substitution lookup 15 subtable" backslash.shrug
EndChar
StartChar: bracketright
Encoding: 93 93 88
GlifName: bracketright
Width: 1024
VWidth: 0
Flags: W
HStem: -128 120<256 640> 1416 120<256 640>
VStem: 640 128<-8 1416>
LayerCount: 5
Back
Fore
SplineSet
256 1536 m 5
 768 1536 l 5
 768 -128 l 5
 256 -128 l 5
 256 -8 l 5
 640 -8 l 5
 640 1416 l 5
 256 1416 l 5
 256 1536 l 5
EndSplineSet
Validated: 1
Layer: 2
Layer: 3
Layer: 4
EndChar
StartChar: asciicircum
Encoding: 94 94 89
GlifName: asciicircum
Width: 1024
VWidth: 0
Flags: W
HStem: 1299 109<460.172 563.828>
VStem: 137 135<896 988.157> 752 135<896 988.157>
LayerCount: 5
Back
Fore
SplineSet
137 896 m 1
 186 1076 268 1249 432 1408 c 1
 592 1408 l 1
 756 1249 838 1076 887 896 c 1
 752 896 l 1
 705 1055 635 1190 537 1299 c 1
 487 1299 l 1
 389 1190 319 1055 272 896 c 1
 137 896 l 1
EndSplineSet
Validated: 1
Layer: 2
Layer: 3
Layer: 4
EndChar
StartChar: underscore
Encoding: 95 95 90
GlifName: underscore
Width: 1024
VWidth: 0
Flags: W
HStem: -120 120<64 960>
LayerCount: 5
Back
Fore
SplineSet
64 0 m 1
 960 0 l 1
 960 -120 l 1
 64 -120 l 1
 64 0 l 1
EndSplineSet
Validated: 1
Layer: 2
Layer: 3
Layer: 4
Substitution2: "Single Substitution lookup 80 subtable" underscore.2r
Substitution2: "Single Substitution lookup 79 subtable" underscore.2l
Substitution2: "Single Substitution lookup 78 subtable" underscore.more
Substitution2: "Single Substitution lookup 77 subtable" underscore.more
Substitution2: "Single Substitution lookup 76 subtable" underscore.more
EndChar
StartChar: b
Encoding: 98 98 0
GlifName: b
Width: 1024
VWidth: 0
InSpiro: 1
Flags: W
HStem: -16 120<436.004 626.093> 0 21G<192 320> 920 120<436.004 626.093> 1388 20G<192 320>
VStem: 192 128<0 125 237.626 786.374 899 1408> 736 128<237.748 786.252>
LayerCount: 5
Back
Fore
SplineSet
548 1040 m 0x7c
 679 1040 789 953 836 803 c 0
 864 713 864 624 864 512 c 0
 864 400 864 311 836 221 c 0
 789 71 679 -16 548 -16 c 0xbc
 465 -16 389 33 330 125 c 1
 320 125 l 1
 320 0 l 1
 192 0 l 1
 192 1408 l 1
 320 1408 l 1
 320 899 l 1
 330 899 l 1
 389 991 465 1040 548 1040 c 0x7c
528 920 m 0
 432 920 372 847 346 768 c 0
 321 692 320 604 320 512 c 0
 320 420 321 332 346 256 c 0
 372 177 432 104 528 104 c 0
 624 104 684 177 710 256 c 0
 735 332 736 420 736 512 c 0
 736 604 735 692 710 768 c 0
 684 847 624 920 528 920 c 0
EndSplineSet
Validated: 1
Layer: 2
SplineSet
592 980 m 4
 752.224698154 980 864 868.490323154 864 708 c 4
 864 547.509676846 752.224698154 436 592 436 c 4
 431.775301846 436 320 547.509676846 320 708 c 4
 320 868.490323154 431.775301846 980 592 980 c 4
EndSplineSet
Layer: 3
SplineSet
592 980 m 0
 572.478833777 980 552.952344892 977.678092966 534 973 c 0
 489.369481781 961.983647431 448.395288022 937.335718108 416.847957469 903.899074804 c 0
 385.300626916 870.4624315 363.153388665 828.887148763 348.912402211 785.178597136 c 0
 320.430429304 697.761493884 320 603.940049607 320 512 c 0
 320 420.059950393 320.430429303 326.238506116 348.91240221 238.821402863 c 0
 363.153388664 195.112851237 385.300626915 153.537568499 416.847957468 120.100925196 c 0
 448.395288021 86.6642818917 489.369481781 62.0163525689 534 51 c 0
 552.952344892 46.3219070343 572.478833777 44 592 44 c 0
 611.521166223 44 631.047655108 46.3219070343 650 51 c 0
 694.630518219 62.0163525691 735.604711978 86.664281892 767.152042531 120.100925196 c 0
 798.699373084 153.5375685 820.846611335 195.112851237 835.087597789 238.821402864 c 0
 863.569570696 326.238506116 864 420.059950393 864 512 c 0
 864 603.940049607 863.569570697 697.761493884 835.08759779 785.178597137 c 0
 820.846611336 828.887148763 798.699373085 870.462431501 767.152042532 903.899074804 c 0
 735.604711979 937.335718108 694.630518219 961.983647431 650 973 c 0
 631.047655108 977.678092966 611.521166223 980 592 980 c 0
  Spiro
    592 980 o
    534 973 o
    320 512 o
    534 51 o
    592 44 o
    650 51 o
    864 512 o
    650 973 o
    0 0 z
  EndSpiro
320 1536 m 1
 320 4 l 1025
  Spiro
    320 1536 {
    320 4 v
    0 0 z
  EndSpiro
EndSplineSet
Layer: 4
Position2: "Single Positioning lookup 23 subtable" dx=-128 dy=0 dh=0 dv=0
Position2: "Single Positioning lookup 22 subtable" dx=-64 dy=0 dh=0 dv=0
Position2: "Single Positioning lookup 21 subtable" dx=0 dy=0 dh=0 dv=0
Position2: "Single Positioning lookup 14 subtable" dx=-64 dy=0 dh=0 dv=0
Position2: "Single Positioning lookup 11 subtable" dx=0 dy=0 dh=0 dv=0
Position2: "Single Positioning lookup 9 subtable" dx=-128 dy=0 dh=0 dv=0
Position2: "Single Positioning lookup 7 subtable" dx=128 dy=0 dh=0 dv=0
Position2: "Single Positioning lookup 6 subtable" dx=64 dy=0 dh=0 dv=0
Position2: "Single Positioning lookup 5 subtable" dx=0 dy=0 dh=0 dv=0
Position2: "Single Positioning lookup 2 subtable" dx=128 dy=0 dh=0 dv=0
EndChar
StartChar: c
Encoding: 99 99 3
GlifName: c
Width: 1024
VWidth: 0
Flags: W
HStem: -16 120<458.805 891.341> 920 120<458.805 871.765>
VStem: 224 128<223.756 800.244>
AnchorPoint: "bottom" 704 0 basechar 0
AnchorPoint: "top" 576 1024 basechar 0
LayerCount: 5
Back
Fore
SplineSet
224 512 m 4
 224 633 226 738 267 831 c 4
 317 946 418 1040 606 1040 c 4
 709 1040 786 1032 876 1023 c 5
 876 903 l 5
 785 912 702 920 606 920 c 4
 486 920 427 872 387 789 c 4
 352 716 352 614 352 512 c 4
 352 410 352 308 387 235 c 4
 427 152 486 104 606 104 c 4
 701 104 796 115 896 130 c 5
 896 10 l 5
 797 -5 708 -16 606 -16 c 4
 418 -16 317 78 267 193 c 4
 226 286 224 391 224 512 c 4
EndSplineSet
Validated: 1
Layer: 2
Layer: 3
Layer: 4
EndChar
StartChar: d
Encoding: 100 100 4
GlifName: d
Width: 1024
VWidth: 0
Flags: W
HStem: -16 120<397.907 596.53> 0 21G<704 832> 920 120<397.907 596.53> 1388 20G<704 832>
VStem: 160 128<237.748 786.252> 704 128<0 125 237.626 786.374 899 1408>
LayerCount: 5
Back
Fore
SplineSet
476 1040 m 0xbc
 559 1040 645 1001 694 899 c 1
 704 899 l 1
 704 1408 l 1
 832 1408 l 1
 832 0 l 1
 704 0 l 1x7c
 704 125 l 1
 694 125 l 1
 645 23 559 -16 476 -16 c 0
 345 -16 235 71 188 221 c 0
 160 311 160 400 160 512 c 0
 160 624 160 713 188 803 c 0
 235 953 345 1040 476 1040 c 0xbc
496 920 m 0
 400 920 340 847 314 768 c 0
 289 692 288 604 288 512 c 0
 288 420 289 332 314 256 c 0
 340 177 400 104 496 104 c 0xbc
 592 104 652 177 678 256 c 0
 703 332 704 420 704 512 c 0
 704 604 703 692 678 768 c 0
 652 847 592 920 496 920 c 0
EndSplineSet
Validated: 1
Layer: 2
Layer: 3
Layer: 4
Position2: "Single Positioning lookup 23 subtable" dx=-128 dy=0 dh=0 dv=0
Position2: "Single Positioning lookup 22 subtable" dx=-64 dy=0 dh=0 dv=0
Position2: "Single Positioning lookup 21 subtable" dx=0 dy=0 dh=0 dv=0
Position2: "Single Positioning lookup 14 subtable" dx=-64 dy=0 dh=0 dv=0
Position2: "Single Positioning lookup 11 subtable" dx=0 dy=0 dh=0 dv=0
Position2: "Single Positioning lookup 9 subtable" dx=-128 dy=0 dh=0 dv=0
Position2: "Single Positioning lookup 7 subtable" dx=128 dy=0 dh=0 dv=0
Position2: "Single Positioning lookup 6 subtable" dx=64 dy=0 dh=0 dv=0
Position2: "Single Positioning lookup 5 subtable" dx=0 dy=0 dh=0 dv=0
Position2: "Single Positioning lookup 2 subtable" dx=128 dy=0 dh=0 dv=0
EndChar
StartChar: e
Encoding: 101 101 5
GlifName: e
Width: 1024
VWidth: 0
Flags: W
HStem: -16 120<405.07 827.106> 512 120<290 734> 920 120<388.408 635.592>
VStem: 160 128<232.957 512 632 808.17> 734 130<632 812.653>
AnchorPoint: "top" 512 1024 basechar 0
LayerCount: 5
Back
Fore
SplineSet
512 920 m 0
 415 920 346 874 317 799 c 0
 296 751 293 693 290 632 c 1
 734 632 l 1
 731 693 728 751 707 799 c 0
 678 874 609 920 512 920 c 0
512 1040 m 0
 674 1040 785 951 827 839 c 0
 863 747 864 637 864 512 c 1
 288 512 l 1
 288 410 288 308 320 235 c 0
 357 151 426 104 532 104 c 0
 625 104 727 113 832 125 c 1
 832 5 l 1
 728 -7 632 -16 532 -16 c 0
 358 -16 247 77 200 193 c 0
 162 286 160 391 160 512 c 0
 160 637 161 747 197 839 c 0
 239 951 350 1040 512 1040 c 0
EndSplineSet
Validated: 1
Layer: 2
SplineSet
576 980 m 4
 567.324612998 980.007379198 558.648152101 979.686920168 550 979 c 4
 500.245423951 975.048008716 451.311733641 957.589653639 411.872890688 927.000215274 c 4
 372.434047735 896.410776909 343.188425924 853.820833359 324.673266956 807.470806807 c 4
 287.642949022 714.770753703 288.697604393 611.820126426 288 512 c 4
 287.91940119 500.467126224 287.856395582 488.93015463 287.856395582 477.392976915 c 4
 287.856395582 438.064565054 288.588533436 398.733758033 291.851659333 359.554711574 c 4
 296.072038818 308.882304454 305.0858767 258.105397834 325.073503873 211.350727412 c 4
 345.061131045 164.596056991 376.706318257 122.372381569 418.267368028 93.0776109084 c 4
 459.828417799 63.7828402475 510.278200692 48.5782008155 561 45 c 4
 569.320516814 44.413023977 577.65937952 44.0979331985 586 44 c 4
 588.022876744 43.9762479554 590.045623534 43.9646254314 592.068203574 43.9646254314 c 4
 622.122529267 43.9646254314 652.140036348 46.5308992478 682 50 c 4
 732.962111227 55.9207271802 783.604982912 64.3805382794 834 74 c 4
 886.675415345 84.0547468938 939.04273757 95.7244511352 991 109 c 5
 864 512 l 5
 889.476206294 557.86960532 903.034376913 610.28748356 903.034376913 662.755670374 c 4
 903.034376913 717.207323587 888.713226589 770.346948745 862.075606256 817.137046122 c 4
 835.777673956 863.33046722 797.567381177 902.617464504 752.335260943 930.536431088 c 4
 707.103140709 958.455397671 655.00156457 974.969175132 602 979 c 4
 593.349874121 979.657851193 584.675101813 979.992621044 576 980 c 4
  Spiro
    576 980 o
    550 979 o
    288 512 o
    561 45 o
    586 44 o
    682 50 o
    834 74 o
    991 109 v
    864 512 v
    602 979 o
    0 0 z
  EndSpiro
EndSplineSet
Layer: 3
Layer: 4
Position2: "Single Positioning lookup 23 subtable" dx=-128 dy=0 dh=0 dv=0
Position2: "Single Positioning lookup 22 subtable" dx=-64 dy=0 dh=0 dv=0
Position2: "Single Positioning lookup 21 subtable" dx=0 dy=0 dh=0 dv=0
Position2: "Single Positioning lookup 14 subtable" dx=-64 dy=0 dh=0 dv=0
Position2: "Single Positioning lookup 11 subtable" dx=0 dy=0 dh=0 dv=0
Position2: "Single Positioning lookup 9 subtable" dx=-128 dy=0 dh=0 dv=0
Position2: "Single Positioning lookup 7 subtable" dx=128 dy=0 dh=0 dv=0
Position2: "Single Positioning lookup 6 subtable" dx=64 dy=0 dh=0 dv=0
Position2: "Single Positioning lookup 5 subtable" dx=0 dy=0 dh=0 dv=0
Position2: "Single Positioning lookup 2 subtable" dx=128 dy=0 dh=0 dv=0
EndChar
StartChar: g
Encoding: 103 103 7
GlifName: g
Width: 1024
VWidth: 0
Flags: W
HStem: -272 120<238.991 597.513> 112 120<389.158 587.56> 920 120<389.158 587.56> 1004 20G<704 832>
VStem: 160 128<356.17 795.83> 704 128<-30.9382 253 355.581 796.419 899 1024>
AnchorPoint: "top" 512 1024 basechar 0
LayerCount: 5
Back
Fore
SplineSet
288 576 m 0xec
 288 443 307 339 373 278 c 0
 404 249 446 232 496 232 c 0
 546 232 588 249 619 278 c 0
 685 339 704 443 704 576 c 0
 704 709 685 813 619 874 c 0
 588 903 546 920 496 920 c 0
 446 920 404 903 373 874 c 0
 307 813 288 709 288 576 c 0xec
704 253 m 1
 694 253 l 1
 639 168 563 112 476 112 c 0
 395 112 325 144 275 193 c 0
 191 276 160 403 160 576 c 0
 160 749 191 876 275 959 c 0
 325 1008 395 1040 476 1040 c 0xec
 563 1040 639 984 694 899 c 1
 704 899 l 1
 704 1024 l 1
 832 1024 l 1xdc
 832 160 l 2
 832 100 832 -11 771 -113 c 0
 716 -205 620 -272 472 -272 c 0
 382 -272 300 -265 236 -257 c 1
 236 -137 l 1
 299 -144 383 -152 472 -152 c 0
 568 -152 623 -113 660 -54 c 0
 704 17 704 113 704 160 c 2
 704 253 l 1
EndSplineSet
Validated: 1
Layer: 2
Layer: 3
SplineSet
560 256 m 0
 540.531058528 255.947221234 521.068001614 253.93112987 502 250 c 0
 429.609085841 235.075620889 363.438945309 190.787450634 323.3553728 128.686816502 c 0
 295.049798907 84.8335874058 280.159157176 32.615220877 280.159157176 -19.5380184051 c 0
 280.159157176 -41.2390721402 282.737332713 -62.9288497008 288 -84 c 1
 209 -374 l 1
 242.96542309 -380.84150246 276.961124633 -387.533850806 311 -394 c 0
 348.904671387 -401.200509937 386.85129422 -408.230450311 425 -414 c 0
 461.90225773 -419.581038865 499.006770216 -423.98450874 536.377578814 -424.000158115 c 0
 559.041833588 -424.000158115 581.745827027 -422.289510396 604 -418 c 0
 640.10095022 -411.041511745 674.92790157 -396.960217035 705.038701814 -375.864272538 c 0
 735.149502059 -354.768328042 760.351981447 -326.936162582 779.427369943 -295.506419991 c 0
 817.886880116 -232.13824769 832.002686517 -156.82331051 832.002686517 -82.2233925653 c 0
 832.002686517 -11.0094668425 819.032413309 61.5201974215 784.179541127 123.59687694 c 0
 766.608167036 154.893366725 743.26464813 183.100056667 714.856993763 205.036980648 c 0
 686.449339397 226.973904628 653.075441808 242.38837453 618 250 c 0
 598.968519222 254.12996947 579.474370882 256.052793484 560 256 c 0
  Spiro
    560 256 o
    502 250 o
    288 -84 v
    209 -374 v
    311 -394 o
    425 -414 o
    536 -424 o
    604 -418 o
    832 -84 o
    618 250 o
    0 0 z
  EndSpiro
EndSplineSet
Layer: 4
Substitution2: "'ss11' Style Set 11 lookup 10 subtable" g.long
Position2: "Single Positioning lookup 23 subtable" dx=-128 dy=0 dh=0 dv=0
Position2: "Single Positioning lookup 22 subtable" dx=-64 dy=0 dh=0 dv=0
Position2: "Single Positioning lookup 21 subtable" dx=0 dy=0 dh=0 dv=0
Position2: "Single Positioning lookup 14 subtable" dx=-64 dy=0 dh=0 dv=0
Position2: "Single Positioning lookup 11 subtable" dx=0 dy=0 dh=0 dv=0
Position2: "Single Positioning lookup 9 subtable" dx=-128 dy=0 dh=0 dv=0
Position2: "Single Positioning lookup 7 subtable" dx=128 dy=0 dh=0 dv=0
Position2: "Single Positioning lookup 6 subtable" dx=64 dy=0 dh=0 dv=0
Position2: "Single Positioning lookup 5 subtable" dx=0 dy=0 dh=0 dv=0
Position2: "Single Positioning lookup 2 subtable" dx=128 dy=0 dh=0 dv=0
EndChar
StartChar: h
Encoding: 104 104 8
GlifName: h
Width: 1024
VWidth: 0
Flags: W
HStem: 0 21G<192 320 704 832> 920 120<424.173 624.755> 1388 20G<192 320>
VStem: 192 128<0 843.099 912 1408> 704 128<0 841.255>
LayerCount: 5
Back
Fore
SplineSet
532 1040 m 0
 632 1040 713 995 763 933 c 0
 832 847 832 751 832 657 c 2
 832 0 l 1
 704 0 l 1
 704 657 l 2
 704 744 704 806 659 858 c 0
 627 895 576 920 512 920 c 0
 448 920 397 895 365 858 c 0
 320 806 320 744 320 657 c 2
 320 0 l 1
 192 0 l 1
 192 1408 l 1
 320 1408 l 1
 320 912 l 1
 330 912 l 1
 379 989 456 1040 532 1040 c 0
EndSplineSet
Validated: 1
Layer: 2
Layer: 3
Layer: 4
Position2: "Single Positioning lookup 23 subtable" dx=-128 dy=0 dh=0 dv=0
Position2: "Single Positioning lookup 22 subtable" dx=-64 dy=0 dh=0 dv=0
Position2: "Single Positioning lookup 21 subtable" dx=0 dy=0 dh=0 dv=0
Position2: "Single Positioning lookup 14 subtable" dx=-64 dy=0 dh=0 dv=0
Position2: "Single Positioning lookup 11 subtable" dx=0 dy=0 dh=0 dv=0
Position2: "Single Positioning lookup 9 subtable" dx=-128 dy=0 dh=0 dv=0
Position2: "Single Positioning lookup 7 subtable" dx=128 dy=0 dh=0 dv=0
Position2: "Single Positioning lookup 6 subtable" dx=64 dy=0 dh=0 dv=0
Position2: "Single Positioning lookup 5 subtable" dx=0 dy=0 dh=0 dv=0
Position2: "Single Positioning lookup 2 subtable" dx=128 dy=0 dh=0 dv=0
EndChar
StartChar: i
Encoding: 105 105 9
GlifName: i
Width: 1024
VWidth: 0
Flags: W
HStem: 0 21G<576 704> 904 120<320 576> 1200 224<518.609 697.391>
VStem: 496 224<1222.61 1401.39> 576 128<0 904>
AnchorPoint: "bottom" 640 0 basechar 0
LayerCount: 5
Back
Fore
SplineSet
608 1424 m 0xf0
 674 1424 720 1378 720 1312 c 0
 720 1246 674 1200 608 1200 c 0
 542 1200 496 1246 496 1312 c 0
 496 1378 542 1424 608 1424 c 0xf0
576 0 m 1xe8
 576 904 l 1
 320 904 l 1
 320 1024 l 1
 704 1024 l 1
 704 0 l 1
 576 0 l 1xe8
EndSplineSet
Validated: 1
Layer: 2
Layer: 3
Layer: 4
Substitution2: "'ss07' Style Set 7 lookup 6 subtable" i.flyingdot
Position2: "Single Positioning lookup 26 subtable" dx=-128 dy=0 dh=0 dv=0
Position2: "Single Positioning lookup 20 subtable" dx=64 dy=0 dh=0 dv=0
Position2: "Single Positioning lookup 19 subtable" dx=64 dy=0 dh=0 dv=0
Position2: "Single Positioning lookup 17 subtable" dx=0 dy=0 dh=0 dv=0
Position2: "Single Positioning lookup 15 subtable" dx=0 dy=0 dh=0 dv=0
Position2: "Single Positioning lookup 12 subtable" dx=128 dy=0 dh=0 dv=0
Position2: "Single Positioning lookup 10 subtable" dx=64 dy=0 dh=0 dv=0
Position2: "Single Positioning lookup 8 subtable" dx=-64 dy=0 dh=0 dv=0
Position2: "Single Positioning lookup 4 subtable" dx=64 dy=0 dh=0 dv=0
Position2: "Single Positioning lookup 3 subtable" dx=64 dy=0 dh=0 dv=0
Position2: "Single Positioning lookup 1 subtable" dx=64 dy=0 dh=0 dv=0
EndChar
StartChar: k
Encoding: 107 107 11
GlifName: k
Width: 1024
VWidth: 0
Flags: W
HStem: 0 21G<192 320 769.964 938> 1004 20G<710.569 891> 1388 20G<192 320>
VStem: 192 128<0 435 602 1408>
AnchorPoint: "bottom" 576 0 basechar 0
LayerCount: 5
Back
Fore
SplineSet
320 0 m 1
 192 0 l 1
 192 1408 l 1
 320 1408 l 1
 320 602 l 1
 730 1024 l 1
 891 1024 l 1
 528 645 l 1
 938 0 l 1
 782 0 l 1
 445 560 l 1
 320 435 l 1
 320 0 l 1
EndSplineSet
Validated: 1
Layer: 2
SplineSet
515 527 m 29
 1460 -418 l 1053
330 354 m 29
 1107 1131 l 1053
EndSplineSet
Layer: 3
Layer: 4
Position2: "Single Positioning lookup 23 subtable" dx=-128 dy=0 dh=0 dv=0
Position2: "Single Positioning lookup 22 subtable" dx=-64 dy=0 dh=0 dv=0
Position2: "Single Positioning lookup 21 subtable" dx=0 dy=0 dh=0 dv=0
Position2: "Single Positioning lookup 14 subtable" dx=-64 dy=0 dh=0 dv=0
Position2: "Single Positioning lookup 11 subtable" dx=0 dy=0 dh=0 dv=0
Position2: "Single Positioning lookup 9 subtable" dx=-128 dy=0 dh=0 dv=0
Position2: "Single Positioning lookup 7 subtable" dx=128 dy=0 dh=0 dv=0
Position2: "Single Positioning lookup 6 subtable" dx=64 dy=0 dh=0 dv=0
Position2: "Single Positioning lookup 5 subtable" dx=0 dy=0 dh=0 dv=0
Position2: "Single Positioning lookup 2 subtable" dx=128 dy=0 dh=0 dv=0
EndChar
StartChar: m
Encoding: 109 109 13
GlifName: m
Width: 1024
VWidth: 0
Flags: W
HStem: 0 21G<64 192 448 576 832 960> 920 120<254.371 409.879 616.411 794.507> 1004 20G<64 192>
VStem: 64 128<0 882.328 949 1024> 448 128<0 882.328> 832 128<0 881.244>
CounterMasks: 1 1c
LayerCount: 5
Back
Fore
SplineSet
350 1040 m 0xdc
 434 1040 498 992 533 929 c 1
 588 1001 652 1040 734 1040 c 0
 810 1040 871 1004 908 954 c 0
 960 884 960 814 960 730 c 2
 960 0 l 1
 832 0 l 1
 832 730 l 2
 832 797 832 845 802 879 c 0
 781 903 747 920 704 920 c 0
 661 920 627 903 606 879 c 0
 576 845 576 797 576 730 c 2
 576 0 l 1
 448 0 l 1
 448 730 l 2
 448 797 448 845 418 879 c 0
 397 903 363 920 320 920 c 0xdc
 277 920 243 903 222 879 c 0
 192 845 192 797 192 730 c 2
 192 0 l 1
 64 0 l 1
 64 1024 l 1
 192 1024 l 1xbc
 192 949 l 1
 202 949 l 1
 242 1008 290 1040 350 1040 c 0xdc
EndSplineSet
Validated: 1
Layer: 2
SplineSet
384 980 m 4
 497.099786932 980 576 901.287286932 576 788 c 4
 576 674.712713068 497.099786932 596 384 596 c 4
 270.900213068 596 192 674.712713068 192 788 c 4
 192 901.287286932 270.900213068 980 384 980 c 4
EndSplineSet
Layer: 3
SplineSet
192 1024 m 5
 192 0 l 1029
  Spiro
    192 1024 {
    192 0 v
    0 0 z
  EndSpiro
192 0 m 5
 192 760 l 6
 192 787.714711887 192.512031429 815.691153786 199.014153359 842.632342798 c 4
 205.51627529 869.57353181 217.939956758 895.189749935 235.965433786 916.241767246 c 4
 253.990910815 937.293784557 277.303335918 953.63755532 302.899995799 964.263761507 c 4
 328.49665568 974.889967693 356.285288113 980.000000001 384 980 c 4
 411.714711887 980 439.503344321 974.889967691 465.100004202 964.263761504 c 4
 490.696664082 953.637555316 514.009089185 937.293784552 532.034566213 916.24176724 c 4
 550.060043242 895.18974993 562.483724709 869.573531806 568.98584664 842.632342795 c 4
 575.487968571 815.691153784 576 787.714711886 576 760 c 6
 576 0 l 1029
  Spiro
    192 0 {
    192 760 ]
    384 980 o
    576 760 [
    576 0 v
    0 0 z
  EndSpiro
EndSplineSet
Layer: 4
Substitution2: "Single Substitution lookup 82 subtable" mm
Substitution2: "Single Substitution lookup 81 subtable" larsenwork
Position2: "Single Positioning lookup 25 subtable" dx=-128 dy=0 dh=0 dv=0
Position2: "Single Positioning lookup 24 subtable" dx=0 dy=0 dh=0 dv=0
EndChar
StartChar: n
Encoding: 110 110 14
GlifName: n
Width: 1024
VWidth: 0
Flags: W
HStem: 0 21G<192 320 704 832> 920 120<424.173 624.755> 1004 20G<192 320>
VStem: 192 128<0 843.099 912 1024> 704 128<0 841.255>
AnchorPoint: "top" 512 1024 basechar 0
LayerCount: 5
Back
Fore
SplineSet
532 1040 m 0xd8
 632 1040 713 995 763 933 c 0
 832 847 832 751 832 657 c 2
 832 0 l 1
 704 0 l 1
 704 657 l 2
 704 744 704 806 659 858 c 0
 627 895 576 920 512 920 c 0xd8
 448 920 397 895 365 858 c 0
 320 806 320 744 320 657 c 2
 320 0 l 1
 192 0 l 1
 192 1024 l 1
 320 1024 l 1xb8
 320 912 l 1
 330 912 l 1
 379 989 456 1040 532 1040 c 0xd8
EndSplineSet
Validated: 1
Layer: 2
SplineSet
576 980 m 0
 726.799715909 980 832 875.049715909 832 724 c 0
 832 572.950284091 726.799715909 468 576 468 c 0
 425.200284091 468 320 572.950284091 320 724 c 0
 320 875.049715909 425.200284091 980 576 980 c 0
EndSplineSet
Layer: 3
SplineSet
832 0 m 1
 832 687 l 2
 832 723.931084581 831.315327639 761.212048046 822.636028962 797.108771891 c 0
 813.956730285 833.005495737 797.375202654 867.129546756 773.330569776 895.160969091 c 0
 749.285936896 923.192391424 718.199859157 944.939953425 684.080580569 959.074302967 c 0
 649.961301981 973.208652508 612.931084581 980.000000001 576 980 c 0
 539.068915419 980 502.038698018 973.208652506 467.91941943 959.074302963 c 0
 433.800140842 944.93995342 402.714063103 923.192391417 378.669430225 895.160969083 c 0
 354.624797347 867.12954675 338.043269716 833.005495731 329.363971039 797.108771887 c 0
 320.684672362 761.212048043 320 723.93108458 320 687 c 2
 320 0 l 1
 320 1024 l 1025
  Spiro
    832 0 {
    832 687 ]
    576 980 o
    320 687 [
    320 0 v
    320 1024 v
    0 0 z
  EndSpiro
EndSplineSet
Layer: 4
Position2: "Single Positioning lookup 23 subtable" dx=-128 dy=0 dh=0 dv=0
Position2: "Single Positioning lookup 22 subtable" dx=-64 dy=0 dh=0 dv=0
Position2: "Single Positioning lookup 21 subtable" dx=0 dy=0 dh=0 dv=0
Position2: "Single Positioning lookup 14 subtable" dx=-64 dy=0 dh=0 dv=0
Position2: "Single Positioning lookup 11 subtable" dx=0 dy=0 dh=0 dv=0
Position2: "Single Positioning lookup 9 subtable" dx=-128 dy=0 dh=0 dv=0
Position2: "Single Positioning lookup 7 subtable" dx=128 dy=0 dh=0 dv=0
Position2: "Single Positioning lookup 6 subtable" dx=64 dy=0 dh=0 dv=0
Position2: "Single Positioning lookup 5 subtable" dx=0 dy=0 dh=0 dv=0
Position2: "Single Positioning lookup 2 subtable" dx=128 dy=0 dh=0 dv=0
EndChar
StartChar: o
Encoding: 111 111 15
GlifName: o
Width: 1024
VWidth: 0
Flags: W
HStem: -16 120<449.655 702.345> 920 120<449.655 702.345>
VStem: 224 128<213.685 810.315> 800 128<213.685 810.315>
AnchorPoint: "bottom" 576 0 basechar 0
AnchorPoint: "top" 576 1024 basechar 0
LayerCount: 5
Back
Fore
SplineSet
576 1040 m 0
 703 1040 802 978 863 880 c 0
 919 788 928 662 928 512 c 0
 928 362 919 236 863 144 c 0
 802 46 703 -16 576 -16 c 0
 449 -16 350 46 289 144 c 0
 233 236 224 362 224 512 c 0
 224 662 233 788 289 880 c 0
 350 978 449 1040 576 1040 c 0
576 920 m 0
 492 920 435 881 400 822 c 0
 354 744 352 629 352 512 c 0
 352 395 354 280 400 202 c 0
 435 143 492 104 576 104 c 0
 660 104 717 143 752 202 c 0
 798 280 800 395 800 512 c 0
 800 629 798 744 752 822 c 0
 717 881 660 920 576 920 c 0
EndSplineSet
Validated: 1
Layer: 2
SplineSet
576 620 m 4
 745.649680398 620 864 501.930930398 864 332 c 4
 864 162.069069602 745.649680398 44 576 44 c 4
 406.350319602 44 288 162.069069602 288 332 c 4
 288 501.930930398 406.350319602 620 576 620 c 4
  Spiro
    576 620 o
    725.939 583.167 o
    827.105 482.063 o
    864 332 o
    827.105 181.937 o
    725.939 80.8329 o
    576 44 o
    426.061 80.8329 o
    324.895 181.937 o
    288 332 o
    324.895 482.063 o
    426.061 583.167 o
    0 0 z
  EndSpiro
576 980 m 4
 745.649680398 980 864 861.930930398 864 692 c 4
 864 522.069069602 745.649680398 404 576 404 c 4
 406.350319602 404 288 522.069069602 288 692 c 4
 288 861.930930398 406.350319602 980 576 980 c 4
  Spiro
    576 980 o
    725.939 943.167 o
    827.105 842.063 o
    864 692 o
    827.105 541.937 o
    725.939 440.833 o
    576 404 o
    426.061 440.833 o
    324.895 541.937 o
    288 692 o
    324.895 842.063 o
    426.061 943.167 o
    0 0 z
  EndSpiro
EndSplineSet
Layer: 3
SplineSet
576 980 m 0
 567.324724123 980 558.648756819 979.677803086 550 979 c 0
 500.14705605 975.093024703 451.039999149 957.918629526 411.358993265 927.488410196 c 0
 371.677987381 897.058190866 342.166566355 854.502829358 323.553962577 808.089992158 c 0
 304.941358799 761.677154957 296.557710164 711.747219037 292.442706941 661.91101508 c 0
 288.327703719 612.074811123 288 562.005804427 288 512 c 1
 288 461.994195573 288.327703721 411.925188876 292.442706944 362.088984919 c 0
 296.557710167 312.252780961 304.941358804 262.322845041 323.553962582 215.91000784 c 0
 342.16656636 169.497170641 371.677987385 126.941809133 411.358993268 96.5115898039 c 0
 451.039999151 66.0813704744 500.147056051 48.9069752969 550 45 c 0
 558.648756819 44.3221969143 567.324724123 44 576 44 c 0
 584.675275877 44 593.351243181 44.3221969143 602 45 c 0
 651.85294395 48.9069752967 700.960000851 66.0813704743 740.641006735 96.5115898041 c 0
 780.322012619 126.941809134 809.833433645 169.497170642 828.446037423 215.910007842 c 0
 847.058641201 262.322845043 855.442289836 312.252780963 859.557293059 362.08898492 c 0
 863.672296281 411.925188877 864 461.994195573 864 512 c 1
 864 562.005804427 863.672296279 612.074811124 859.557293056 661.911015081 c 0
 855.442289833 711.747219039 847.058641196 761.677154959 828.446037418 808.08999216 c 0
 809.83343364 854.502829359 780.322012615 897.058190867 740.641006732 927.488410196 c 0
 700.960000849 957.918629526 651.852943949 975.093024703 602 979 c 0
 593.351243181 979.677803086 584.675275877 980 576 980 c 0
  Spiro
    576 980 o
    550 979 o
    288 512 o
    550 45 o
    576 44 o
    602 45 o
    864 512 o
    602 979 o
    0 0 z
  EndSpiro
EndSplineSet
Layer: 4
Position2: "Single Positioning lookup 23 subtable" dx=-128 dy=0 dh=0 dv=0
Position2: "Single Positioning lookup 22 subtable" dx=-64 dy=0 dh=0 dv=0
Position2: "Single Positioning lookup 21 subtable" dx=0 dy=0 dh=0 dv=0
Position2: "Single Positioning lookup 14 subtable" dx=-64 dy=0 dh=0 dv=0
Position2: "Single Positioning lookup 11 subtable" dx=0 dy=0 dh=0 dv=0
Position2: "Single Positioning lookup 9 subtable" dx=-128 dy=0 dh=0 dv=0
Position2: "Single Positioning lookup 7 subtable" dx=128 dy=0 dh=0 dv=0
Position2: "Single Positioning lookup 6 subtable" dx=64 dy=0 dh=0 dv=0
Position2: "Single Positioning lookup 5 subtable" dx=0 dy=0 dh=0 dv=0
Position2: "Single Positioning lookup 2 subtable" dx=128 dy=0 dh=0 dv=0
EndChar
StartChar: q
Encoding: 113 113 17
GlifName: q
Width: 1024
VWidth: 0
Flags: W
HStem: -16 120<397.907 587.996> 920 120<397.907 587.996> 1004 20G<704 832>
VStem: 160 128<237.748 786.252> 704 128<-384 125 237.626 786.374 899 1024>
LayerCount: 5
Back
Fore
SplineSet
476 -16 m 0xb8
 345 -16 235 71 188 221 c 0
 160 311 160 400 160 512 c 0
 160 624 160 713 188 803 c 0
 235 953 345 1040 476 1040 c 0xd8
 559 1040 635 991 694 899 c 1
 704 899 l 1
 704 1024 l 1
 832 1024 l 1
 832 -384 l 1
 704 -384 l 1
 704 125 l 1
 694 125 l 1
 635 33 559 -16 476 -16 c 0xb8
496 104 m 0
 592 104 652 177 678 256 c 0
 703 332 704 420 704 512 c 0
 704 604 703 692 678 768 c 0
 652 847 592 920 496 920 c 0
 400 920 340 847 314 768 c 0
 289 692 288 604 288 512 c 0
 288 420 289 332 314 256 c 0
 340 177 400 104 496 104 c 0
EndSplineSet
Validated: 1
Layer: 2
Layer: 3
Layer: 4
Position2: "Single Positioning lookup 23 subtable" dx=-128 dy=0 dh=0 dv=0
Position2: "Single Positioning lookup 22 subtable" dx=-64 dy=0 dh=0 dv=0
Position2: "Single Positioning lookup 21 subtable" dx=0 dy=0 dh=0 dv=0
Position2: "Single Positioning lookup 14 subtable" dx=-64 dy=0 dh=0 dv=0
Position2: "Single Positioning lookup 11 subtable" dx=0 dy=0 dh=0 dv=0
Position2: "Single Positioning lookup 9 subtable" dx=-128 dy=0 dh=0 dv=0
Position2: "Single Positioning lookup 7 subtable" dx=128 dy=0 dh=0 dv=0
Position2: "Single Positioning lookup 6 subtable" dx=64 dy=0 dh=0 dv=0
Position2: "Single Positioning lookup 5 subtable" dx=0 dy=0 dh=0 dv=0
Position2: "Single Positioning lookup 2 subtable" dx=128 dy=0 dh=0 dv=0
EndChar
StartChar: r
Encoding: 114 114 18
GlifName: r
Width: 1024
VWidth: 0
Flags: W
HStem: 0 21G<256 384> 920 120<544.029 896> 1004 20G<256 384>
VStem: 256 128<0 742.189 865 1024>
AnchorPoint: "bottom" 384 0 basechar 0
AnchorPoint: "top" 576 1024 basechar 0
LayerCount: 5
Back
Fore
SplineSet
716 920 m 0xd0
 624 920 552 894 501 847 c 0
 384 740 384 589 384 475 c 2
 384 0 l 1
 256 0 l 1
 256 1024 l 1
 384 1024 l 1xb0
 384 865 l 1
 394 865 l 1
 469 967 561 1040 716 1040 c 0
 782 1040 839 1034 896 1027 c 1
 896 907 l 1
 839 914 781 920 716 920 c 0xd0
EndSplineSet
Validated: 1
Layer: 2
SplineSet
686 980 m 4
 883.924627131 980 1022 842.252752131 1022 644 c 4
 1022 445.747247869 884.74650435 308 688 308 c 4
 471.22540838 308 320 445.747247869 320 644 c 0
 320 842.252752131 470.403531161 980 686 980 c 4
EndSplineSet
Layer: 3
SplineSet
695 980 m 0
 665.831883298 979.952809439 636.613590413 977.660715728 608 972 c 0
 559.425950048 962.390444381 512.7403132 942.505189661 473.172365897 912.736759502 c 0
 433.604418594 882.968329342 401.457679251 843.798700485 378.074368782 800.152364105 c 0
 333.961671919 717.813398093 319.850230634 622.527750352 319.850230634 528.881047982 c 0
 319.850230634 523.247041095 319.901307136 517.618966388 320 512 c 0
 321.722684252 413.920924481 337.588775109 313.993552301 383.673149638 227.398499787 c 0
 406.715336902 184.10097353 437.747184798 144.802334003 476.123033155 114.258718683 c 0
 514.498881512 83.7151033632 560.058828391 62.3567484611 608 52 c 0
 633.250238488 46.5451819423 659.104075692 43.9985646322 684.937384869 43.9985646322 c 0
 685.291594308 43.9985646322 685.645799888 43.9990433988 686 44 c 0
 712.17959653 44.0707041919 738.355102068 46.7354502957 764 52 c 0
 862.420956324 72.2044873752 952.470339137 134.181877737 1002.28762769 221.43520842 c 0
 1031.08030233 271.864624285 1045.80179148 329.965631841 1045.80179148 387.997711916 c 0
 1045.80179148 430.373145713 1037.95225915 472.711827216 1022 512 c 1
 983 937 l 1
 945.54017031 945.93662663 907.872997993 954.018727982 870 961 c 0
 839.488027556 966.624386521 808.831415079 971.530413518 778 975 c 0
 750.753845835 978.066122263 723.358368453 980.000760426 695.940760824 980.000760426 c 0
 695 980 l 0
  Spiro
    695 980 o
    608 972 o
    320 512 o
    608 52 o
    686 44 o
    764 52 o
    1022 512 v
    983 937 v
    870 961 o
    778 975 o
    0 0 z
  EndSpiro
320 1536 m 1
 320 4 l 1025
  Spiro
    320 1536 {
    320 4 v
    0 0 z
  EndSpiro
EndSplineSet
Layer: 4
SplineSet
256 1024 m 5
 384 1024 l 5
 384 915.405095312 l 5
 398.936887842 931.326656107 415.312186818 946.136726294 433.1171875 959.532226562 c 4
 481.01171875 995.565429688 536.912922479 1019.25863878 594.786132812 1030.70703125 c 4
 628.987304688 1037.47265625 661.416015625 1039.94628906 695.517578125 1040.00097656 c 4
 727.12890625 1040.00097656 756.236397757 1037.88050151 785.627929688 1034.57226562 c 4
 818.5625 1030.86523438 850.785853484 1025.68989104 882.348632812 1019.87207031 c 4
 886.903833106 1019.03243137 891.454290372 1018.177731 896 1017.30839641 c 5
 896 894.663707795 l 5
 883.224571073 897.277975587 870.441695531 899.76883173 857.651367188 902.126953125 c 4
 828.190429688 907.55859375 799.099636881 912.19458033 770.372070312 915.427734375 c 4
 744.80078125 918.305664062 720.559570312 920.000976562 695.626953125 920.000976562 c 4
 668.76171875 919.958007812 644.942330758 917.987567801 621.213867188 913.29296875 c 4
 581.938476562 905.522460938 544.468795297 889.444275729 513.228515625 865.94140625 c 4
 481.842773438 842.329101562 455.015957352 810.088235761 435.265625 773.22265625 c 4
 399.86275436 707.140358534 385.579679078 627.349750001 384 544.667044206 c 6
 384 0 l 5
 256 0 l 5
 256 1024 l 5
EndSplineSet
Substitution2: "'ss09' Style Set 9 lookup 8 subtable" r.base
Position2: "Single Positioning lookup 23 subtable" dx=-128 dy=0 dh=0 dv=0
Position2: "Single Positioning lookup 22 subtable" dx=-64 dy=0 dh=0 dv=0
Position2: "Single Positioning lookup 21 subtable" dx=0 dy=0 dh=0 dv=0
Position2: "Single Positioning lookup 14 subtable" dx=-64 dy=0 dh=0 dv=0
Position2: "Single Positioning lookup 11 subtable" dx=0 dy=0 dh=0 dv=0
Position2: "Single Positioning lookup 9 subtable" dx=-128 dy=0 dh=0 dv=0
Position2: "Single Positioning lookup 7 subtable" dx=128 dy=0 dh=0 dv=0
Position2: "Single Positioning lookup 6 subtable" dx=64 dy=0 dh=0 dv=0
Position2: "Single Positioning lookup 5 subtable" dx=0 dy=0 dh=0 dv=0
Position2: "Single Positioning lookup 2 subtable" dx=128 dy=0 dh=0 dv=0
EndChar
StartChar: s
Encoding: 115 115 19
GlifName: s
Width: 1024
VWidth: 0
Flags: W
HStem: -16 120<260.738 723.37> 920 120<418.95 881.564>
VStem: 234 128<656.818 863.076> 800 128<176.745 404.5>
AnchorPoint: "bottom" 704 0 basechar 0
AnchorPoint: "top" 576 1024 basechar 0
LayerCount: 5
Back
Fore
SplineSet
575 1040 m 3
 693 1040 792 1029 886 1019 c 1
 886 899 l 1
 791 908 684 920 575 920 c 3
 458 920 362 875 362 760 c 3
 362 692 404 643 454 620 c 0
 546 578 657 602 759 555 c 0
 850 513 928 417 928 291 c 3
 928 104 774 -16 576 -16 c 3
 460 -16 358 -3 256 6 c 1
 256 125 l 1
 356 116 466 104 576 104 c 3
 704 104 800 170 800 291 c 3
 800 367 757 422 703 447 c 0
 613 489 500 466 398 512 c 0
 311 551 234 640 234 760 c 3
 234 946 388 1040 575 1040 c 3
EndSplineSet
Validated: 1
Layer: 2
SplineSet
576 980 m 4
 739.759066495 980 854 897.597628507 854 779 c 4
 854 660.402371493 739.759066495 578 576 578 c 4
 412.240933505 578 298 660.402371493 298 779 c 4
 298 897.597628507 412.240933505 980 576 980 c 4
576 578 m 4
 745.649680398 578 864 468.54013339 864 311 c 4
 864 153.45986661 745.649680398 44 576 44 c 4
 406.350319602 44 288 153.45986661 288 311 c 4
 288 468.54013339 406.350319602 578 576 578 c 4
EndSplineSet
Layer: 3
SplineSet
140 113 m 4
 185.762691318 101.947687501 231.78739135 91.9873427671 278 83 c 4
 327.493012513 73.3746903491 377.153572464 64.5854159654 427 57 c 4
 473.275595525 49.9579779644 519.902994027 43.9187396477 566.684503277 43.9187396477 c 4
 569.789009423 43.9187396477 572.894194256 43.9453357968 576 44 c 4
 614.901010439 44.684683111 653.952155312 50.0764336248 690.658601803 62.9758208232 c 4
 727.365048295 75.8752080215 761.510102351 96.4670573424 789 124 c 4
 838.016068617 173.092820343 864.004774862 242.680943577 864.004774862 312.660323432 c 4
 864.004774862 358.769164278 852.956597373 405.08222165 830.368083987 445.273246023 c 4
 807.508426076 485.946709236 772.430457955 519.542793211 731 541 c 4
 684.595689907 565.033209544 631.826916886 573.393941586 579.825905344 578.57563579 c 4
 527.824893802 583.757329994 474.791179124 587.28166685 426 606 c 4
 390.25200955 619.714421473 357.260601722 641.843930531 333.88754017 672.170555323 c 4
 311.0322082 701.825424267 297.979869429 739.027078107 297.979869429 776.456152707 c 4
 297.979869429 808.17764749 306.815536927 838.202335486 322.462069449 864.896442057 c 4
 337.684277939 890.8666214 359.194161545 912.946078899 384 930 c 4
 438.196867271 967.260143415 505.916806735 980.017443723 571.771003965 980.017443723 c 4
 573.181575723 980.017443723 574.591291478 980.011590673 576 980 c 4
 618.601902266 979.649477026 661.040229894 974.377169896 703 967 c 4
 744.277949276 959.742704643 785.170704155 950.460762818 826 941 c 4
 867.353023672 931.417881556 908.660806454 921.641609702 950 912 c 1028
  Spiro
    140 113 {
    278 83 o
    427 57 o
    576 44 o
    789 124 o
    864 311 o
    731 541 o
    426 606 o
    298 779 o
    384 930 o
    576 980 o
    703 967 o
    826 941 o
    950 912 o
    0 0 z
  EndSpiro
EndSplineSet
Layer: 4
Position2: "Single Positioning lookup 23 subtable" dx=-128 dy=0 dh=0 dv=0
Position2: "Single Positioning lookup 22 subtable" dx=-64 dy=0 dh=0 dv=0
Position2: "Single Positioning lookup 21 subtable" dx=0 dy=0 dh=0 dv=0
Position2: "Single Positioning lookup 14 subtable" dx=-64 dy=0 dh=0 dv=0
Position2: "Single Positioning lookup 11 subtable" dx=0 dy=0 dh=0 dv=0
Position2: "Single Positioning lookup 9 subtable" dx=-128 dy=0 dh=0 dv=0
Position2: "Single Positioning lookup 7 subtable" dx=128 dy=0 dh=0 dv=0
Position2: "Single Positioning lookup 6 subtable" dx=64 dy=0 dh=0 dv=0
Position2: "Single Positioning lookup 5 subtable" dx=0 dy=0 dh=0 dv=0
Position2: "Single Positioning lookup 2 subtable" dx=128 dy=0 dh=0 dv=0
EndChar
StartChar: t
Encoding: 116 116 20
GlifName: t
Width: 1024
VWidth: 0
Flags: W
HStem: -16 120<524.916 829.438> 898 126<64 320 448 832>
VStem: 320 128<180.946 898 1024 1280>
AnchorPoint: "bottom" 640 0 basechar 0
LayerCount: 5
Back
Fore
SplineSet
832 -1 m 1
 775 -9 711 -16 640 -16 c 0
 530 -16 441 28 388 92 c 0
 320 174 320 271 320 360 c 2
 320 898 l 1
 64 898 l 1
 64 1024 l 1
 320 1024 l 1
 320 1280 l 1
 448 1280 l 1
 448 1024 l 1
 832 1024 l 1
 832 898 l 1
 448 898 l 1
 448 370 l 2
 448 284 448 218 491 166 c 0
 524 127 579 104 650 104 c 0
 714 104 780 112 832 119 c 1
 832 -1 l 1
EndSplineSet
Validated: 1
Layer: 2
Layer: 3
Layer: 4
Position2: "Single Positioning lookup 23 subtable" dx=-128 dy=0 dh=0 dv=0
Position2: "Single Positioning lookup 22 subtable" dx=-64 dy=0 dh=0 dv=0
Position2: "Single Positioning lookup 21 subtable" dx=0 dy=0 dh=0 dv=0
Position2: "Single Positioning lookup 14 subtable" dx=-64 dy=0 dh=0 dv=0
Position2: "Single Positioning lookup 11 subtable" dx=0 dy=0 dh=0 dv=0
Position2: "Single Positioning lookup 9 subtable" dx=-128 dy=0 dh=0 dv=0
Position2: "Single Positioning lookup 7 subtable" dx=128 dy=0 dh=0 dv=0
Position2: "Single Positioning lookup 6 subtable" dx=64 dy=0 dh=0 dv=0
Position2: "Single Positioning lookup 5 subtable" dx=0 dy=0 dh=0 dv=0
Position2: "Single Positioning lookup 2 subtable" dx=128 dy=0 dh=0 dv=0
EndChar
StartChar: u
Encoding: 117 117 21
GlifName: u
Width: 1024
VWidth: 0
Flags: W
HStem: -16 120<399.245 599.827> 0 21G<704 832> 1004 20G<192 320 704 832>
VStem: 192 128<182.745 1024> 704 128<0 112 180.901 1024>
AnchorPoint: "bottom" 768 0 basechar 0
AnchorPoint: "top" 512 1024 basechar 0
LayerCount: 5
Back
Fore
SplineSet
492 -16 m 0xb8
 392 -16 311 29 261 91 c 0
 192 177 192 273 192 367 c 2
 192 1024 l 1
 320 1024 l 1
 320 367 l 2
 320 280 320 218 365 166 c 0
 397 129 448 104 512 104 c 0xb8
 576 104 627 129 659 166 c 0
 704 218 704 280 704 367 c 2
 704 1024 l 1
 832 1024 l 1
 832 0 l 1
 704 0 l 1x78
 704 112 l 1
 694 112 l 1
 645 35 568 -16 492 -16 c 0xb8
EndSplineSet
Validated: 1
Layer: 2
Layer: 3
Layer: 4
Position2: "Single Positioning lookup 23 subtable" dx=-128 dy=0 dh=0 dv=0
Position2: "Single Positioning lookup 22 subtable" dx=-64 dy=0 dh=0 dv=0
Position2: "Single Positioning lookup 21 subtable" dx=0 dy=0 dh=0 dv=0
Position2: "Single Positioning lookup 14 subtable" dx=-64 dy=0 dh=0 dv=0
Position2: "Single Positioning lookup 11 subtable" dx=0 dy=0 dh=0 dv=0
Position2: "Single Positioning lookup 9 subtable" dx=-128 dy=0 dh=0 dv=0
Position2: "Single Positioning lookup 7 subtable" dx=128 dy=0 dh=0 dv=0
Position2: "Single Positioning lookup 6 subtable" dx=64 dy=0 dh=0 dv=0
Position2: "Single Positioning lookup 5 subtable" dx=0 dy=0 dh=0 dv=0
Position2: "Single Positioning lookup 2 subtable" dx=128 dy=0 dh=0 dv=0
EndChar
StartChar: v
Encoding: 118 118 1
GlifName: v
Width: 1024
VWidth: 0
Flags: W
HStem: 0 21G<374.5 649.5> 1004 20G<140 299 725 884>
VStem: 140 131<860.432 1024> 753 131<860.432 1024>
LayerCount: 5
Back
Fore
SplineSet
517 168 m 1
 629 441 697 730 753 1024 c 1
 884 1024 l 1
 817 675 729 325 570 0 c 1
 454 0 l 1
 295 325 207 675 140 1024 c 1
 271 1024 l 1
 327 730 396 439 507 168 c 1
 517 168 l 1
EndSplineSet
Validated: 1
Layer: 2
SplineSet
208 1348 m 5
 263 1058 l 6
 330.273416248 703.285623421 417.514412723 349.39223189 576 25 c 5
 734.485587277 349.39223189 821.726583752 703.285623421 889 1058 c 6
 944 1348 l 1029
  Spiro
    208 1348 {
    263 1058 ]
    576 25 v
    889 1058 [
    944 1348 o
    0 0 z
  EndSpiro
EndSplineSet
Layer: 3
Layer: 4
Position2: "Single Positioning lookup 23 subtable" dx=-128 dy=0 dh=0 dv=0
Position2: "Single Positioning lookup 22 subtable" dx=-64 dy=0 dh=0 dv=0
Position2: "Single Positioning lookup 21 subtable" dx=0 dy=0 dh=0 dv=0
Position2: "Single Positioning lookup 14 subtable" dx=-64 dy=0 dh=0 dv=0
Position2: "Single Positioning lookup 11 subtable" dx=0 dy=0 dh=0 dv=0
Position2: "Single Positioning lookup 9 subtable" dx=-128 dy=0 dh=0 dv=0
Position2: "Single Positioning lookup 7 subtable" dx=128 dy=0 dh=0 dv=0
Position2: "Single Positioning lookup 6 subtable" dx=64 dy=0 dh=0 dv=0
Position2: "Single Positioning lookup 5 subtable" dx=0 dy=0 dh=0 dv=0
Position2: "Single Positioning lookup 2 subtable" dx=128 dy=0 dh=0 dv=0
EndChar
StartChar: w
Encoding: 119 119 22
GlifName: w
Width: 1024
VWidth: 0
Flags: W
HStem: 0 21G<144.5 353.417 670.583 879.5> 1004 20G<45 173 851 979>
VStem: 45 128<654.241 1024> 851 128<654.241 1024>
AnchorPoint: "top" 512 1024 basechar 0
LayerCount: 5
Back
Fore
SplineSet
450 767 m 1
 574 767 l 1
 738 140 l 1
 748 140 l 1
 819 413 851 717 851 1024 c 1
 979 1024 l 1
 979 680 929 339 830 0 c 1
 676 0 l 1
 517 587 l 1
 507 587 l 1
 348 0 l 1
 194 0 l 1
 95 339 45 680 45 1024 c 1
 173 1024 l 1
 173 717 205 413 276 140 c 1
 286 140 l 1
 450 767 l 1
EndSplineSet
Validated: 1
Layer: 2
SplineSet
1074 1124 m 5
 832 14 l 5
 576 1009 l 5
 320 14 l 5
 78 1124 l 1029
EndSplineSet
Layer: 3
Layer: 4
Substitution2: "'ss10' Style Set 10 lookup 9 subtable" w.straight
Position2: "Single Positioning lookup 25 subtable" dx=-128 dy=0 dh=0 dv=0
Position2: "Single Positioning lookup 24 subtable" dx=0 dy=0 dh=0 dv=0
EndChar
StartChar: x
Encoding: 120 120 23
GlifName: x
Width: 1024
VWidth: 0
Flags: W
HStem: 0 21G<95 273.893 750.107 929> 1004 20G<117 295.737 728.263 907>
LayerCount: 5
Back
Fore
SplineSet
507 644 m 1
 517 644 l 1
 740 1024 l 1
 907 1024 l 1
 586 551 l 1
 586 541 l 1
 929 0 l 1
 761 0 l 1
 517 448 l 1
 507 448 l 1
 263 0 l 1
 95 0 l 1
 438 541 l 1
 438 551 l 1
 117 1024 l 1
 284 1024 l 1
 507 644 l 1
EndSplineSet
Validated: 1
Layer: 2
SplineSet
1152 -144 m 5
 128 1196 l 1029
128 -144 m 5
 1152 1196 l 1029
EndSplineSet
Layer: 3
Layer: 4
Position2: "Single Positioning lookup 23 subtable" dx=-128 dy=0 dh=0 dv=0
Position2: "Single Positioning lookup 22 subtable" dx=-64 dy=0 dh=0 dv=0
Position2: "Single Positioning lookup 21 subtable" dx=0 dy=0 dh=0 dv=0
Position2: "Single Positioning lookup 14 subtable" dx=-64 dy=0 dh=0 dv=0
Position2: "Single Positioning lookup 11 subtable" dx=0 dy=0 dh=0 dv=0
Position2: "Single Positioning lookup 9 subtable" dx=-128 dy=0 dh=0 dv=0
Position2: "Single Positioning lookup 7 subtable" dx=128 dy=0 dh=0 dv=0
Position2: "Single Positioning lookup 6 subtable" dx=64 dy=0 dh=0 dv=0
Position2: "Single Positioning lookup 5 subtable" dx=0 dy=0 dh=0 dv=0
Position2: "Single Positioning lookup 2 subtable" dx=128 dy=0 dh=0 dv=0
EndChar
StartChar: y
Encoding: 121 121 24
GlifName: y
Width: 1024
VWidth: 0
Flags: W
HStem: -272 120<256 451.081> 1004 20G<204 364.658 785.964 949>
VStem: 204 131<859.881 1024>
LayerCount: 5
Back
Fore
SplineSet
605 240 m 5
 688.711988304 497.883388339 753.927161456 757.216721672 818 1024 c 5
 949 1024 l 5
 869.483394834 698.055606199 806.996309964 430.526891522 676 55 c 4
 640.062544999 -48.0218390832 607 -143 546 -193 c 4
 491.189003436 -239 410.467353952 -272 256 -272 c 5
 256 -152 l 5
 337.583756345 -152 417.177664975 -138 452 -111 c 4
 499.817391304 -75 520.165217392 -12 569 128 c 5
 517 128 l 5
 360 413.25 273 719.5 204 1024 c 5
 335 1024 l 5
 394.315589353 754.041804181 470.437262358 485.808580858 595 240 c 5
 605 240 l 5
EndSplineSet
Validated: 1
Layer: 2
SplineSet
208 1348 m 5
 263 1058 l 6
 335.838882593 673.940437239 433.140582261 290.499180766 616 -55 c 5
 736.339381417 307.890715375 817.760271347 682.372339827 889 1058 c 6
 944 1348 l 1029
  Spiro
    208 1348 {
    263 1058 ]
    616 -55 v
    889 1058 [
    944 1348 o
    0 0 z
  EndSpiro
EndSplineSet
Layer: 3
SplineSet
208 1348 m 1
 263 1058 l 2
 334.814703274 679.340655462 426.73622927 301.651207423 591 -47 c 1
 94 -320 l 1
 146.874338255 -333.443284472 201.453564664 -339.999653393 256.012087682 -340.000000077 c 0
 310.192249183 -340.000000077 364.760412467 -335.370425884 417 -321 c 0
 444.486920469 -313.43870842 471.255278197 -302.186668012 494 -285 c 0
 520.510949537 -264.967445093 540.492424169 -237.387902158 556 -208 c 0
 581.59288196 -159.499762491 598.857946845 -107.090485302 616 -55 c 0
 735.489430136 308.099002669 821.533801453 681.746200409 889 1058 c 2
 941 1348 l 1025
  Spiro
    208 1348 {
    263 1058 ]
    591 -47 v
    94 -320 v
    256 -340 o
    417 -321 o
    494 -285 o
    556 -208 o
    616 -55 o
    889 1058 [
    941 1348 o
    0 0 z
  EndSpiro
EndSplineSet
Layer: 4
Substitution2: "'ss11' Style Set 11 lookup 10 subtable" y.long
EndChar
StartChar: z
Encoding: 122 122 25
GlifName: z
Width: 1024
VWidth: 0
Flags: W
HStem: 0 120<337 832> 904 120<212 667>
AnchorPoint: "top" 512 1024 basechar 0
LayerCount: 5
Back
Fore
SplineSet
212 904 m 1
 212 1024 l 1
 812 1024 l 1
 812 934 l 1
 337 130 l 1
 337 120 l 1
 832 120 l 1
 832 0 l 1
 192 0 l 1
 192 92 l 1
 667 894 l 1
 667 904 l 1
 212 904 l 1
EndSplineSet
Validated: 1
Layer: 2
Layer: 3
Layer: 4
Position2: "Single Positioning lookup 23 subtable" dx=-128 dy=0 dh=0 dv=0
Position2: "Single Positioning lookup 22 subtable" dx=-64 dy=0 dh=0 dv=0
Position2: "Single Positioning lookup 21 subtable" dx=0 dy=0 dh=0 dv=0
Position2: "Single Positioning lookup 14 subtable" dx=-64 dy=0 dh=0 dv=0
Position2: "Single Positioning lookup 11 subtable" dx=0 dy=0 dh=0 dv=0
Position2: "Single Positioning lookup 9 subtable" dx=-128 dy=0 dh=0 dv=0
Position2: "Single Positioning lookup 7 subtable" dx=128 dy=0 dh=0 dv=0
Position2: "Single Positioning lookup 6 subtable" dx=64 dy=0 dh=0 dv=0
Position2: "Single Positioning lookup 5 subtable" dx=0 dy=0 dh=0 dv=0
Position2: "Single Positioning lookup 2 subtable" dx=128 dy=0 dh=0 dv=0
EndChar
StartChar: bar
Encoding: 124 124 92
GlifName: bar
Width: 1024
VWidth: 0
Flags: W
VStem: 448 128<-256 1536>
LayerCount: 5
Back
Fore
SplineSet
576 1536 m 1
 576 -256 l 1
 448 -256 l 1
 448 1536 l 1
 576 1536 l 1
EndSplineSet
Validated: 1
Layer: 2
Layer: 3
Layer: 4
Substitution2: "Single Substitution lookup 88 subtable" bar2
Substitution2: "Single Substitution lookup 87 subtable" bar1
EndChar
StartChar: braceright
Encoding: 125 125 93
GlifName: braceright
Width: 1024
VWidth: 0
Flags: W
HStem: -144 120<256 437.304> 643 120<712.433 896> 1430 120<256 437.389>
VStem: 512 128<50.4233 571.691 834.327 1355.6>
CounterMasks: 1 e0
LayerCount: 5
Back
Fore
SplineSet
671 698 m 1
 671 708 l 1
 553.843381849 752.277005345 512 823.343238377 512 970 c 2
 512 1223 l 2
 512 1382.55384087 415.353796429 1430 256 1430 c 1
 256 1550 l 1
 483.003398114 1550 640 1453.94128632 640 1223 c 2
 640 970 l 2
 640 810.446159126 736.646203571 763 896 763 c 1
 896 643 l 1
 736.387607114 643 640 595.790155424 640 436 c 2
 640 183 l 2
 640 -47.886620557 482.810778361 -144 256 -144 c 1
 256 -24 l 1
 415.612392886 -24 512 23.2098445763 512 183 c 2
 512 436 l 2
 512 582.672888867 553.958983286 653.766683911 671 698 c 1
EndSplineSet
Validated: 1
Layer: 2
Layer: 3
Layer: 4
EndChar
StartChar: tilde
Encoding: 126 126 94
GlifName: tilde
Width: 1024
VWidth: 0
Flags: W
HStem: 380 120<634.512 793.706> 652 120<230.294 389.488>
VStem: 64 128<384 610.659> 832 128<541.341 768>
LayerCount: 5
Back
Fore
SplineSet
192 384 m 1
 64 384 l 1
 64 603 101 772 311 772 c 0
 538 772 572 500 713 500 c 0
 826 500 832 596 832 768 c 1
 960 768 l 1
 960 549 923 380 713 380 c 0
 486 380 452 652 311 652 c 0
 198 652 192 556 192 384 c 1
EndSplineSet
Validated: 1
Layer: 2
Layer: 3
Layer: 4
EndChar
StartChar: exclamdown
Encoding: 161 161 100
GlifName: exclamdown
Width: 1024
VWidth: 0
Flags: W
HStem: 880 288<415.538 608.462>
VStem: 368 288<927.538 1120.46> 438 148<-256 640>
LayerCount: 5
Back
Fore
SplineSet
512 1168 m 0xc0
 597 1168 656 1109 656 1024 c 0
 656 939 597 880 512 880 c 0
 427 880 368 939 368 1024 c 0
 368 1109 427 1168 512 1168 c 0xc0
576 640 m 1
 586 -256 l 1
 438 -256 l 1xa0
 448 640 l 1
 576 640 l 1
EndSplineSet
Validated: 1
Layer: 2
Layer: 3
Layer: 4
EndChar
StartChar: cent
Encoding: 162 162 528
GlifName: cent
Width: 1024
VWidth: 0
Flags: W
HStem: -7 111<424 448 576 826.895>
VStem: 160 128<240.24 781.186> 448 128<-256 -16 1040 1280>
LayerCount: 5
Back
SplineSet
224 512 m 4
 224 633 226 738 267 831 c 4
 317 946 418 1040 606 1040 c 4
 709 1040 786 1032 876 1018 c 5
 876 898 l 5
 785 912 702 920 606 920 c 4
 486 920 427 872 387 789 c 4
 352 716 352 614 352 512 c 4
 352 410 352 308 387 235 c 4
 427 152 486 104 606 104 c 4
 706 104 796 114 896 130 c 5
 896 10 l 5
 797 -6 713 -16 606 -16 c 4
 418 -16 317 78 267 193 c 4
 226 286 224 391 224 512 c 4
EndSplineSet
Fore
SplineSet
160 512 m 0
 160 630 163 733 200 824 c 0
 240 923 322 1008 448 1031 c 1
 448 1280 l 1
 576 1280 l 1
 576 1040 l 1
 657 1038 724 1032 812 1018 c 1
 812 898 l 1
 699 915 612 920 528 920 c 0
 421 920 357 862 320 778 c 0
 288 707 288 610 288 512 c 0
 288 410 288 308 323 235 c 0
 362 153 424 104 532 104 c 0
 620 104 723 113 832 130 c 1
 832 9 l 1
 736 -5 653 -13 576 -16 c 1
 576 -256 l 1
 448 -256 l 1
 448 -7 l 1
 324 16 245 98 203 193 c 0
 162 286 160 391 160 512 c 0
EndSplineSet
Validated: 1
Layer: 2
Layer: 3
Layer: 4
EndChar
StartChar: sterling
Encoding: 163 163 433
GlifName: sterling
Width: 1024
VWidth: 0
Flags: W
HStem: 0 120<64 192 320 832> 648 120<64 192 320 704> 1304 120<432.183 797.672>
VStem: 192 128<120 648 768 1175.04>
LayerCount: 5
Back
Fore
SplineSet
192 120 m 1
 192 648 l 1
 64 648 l 1
 64 768 l 1
 192 768 l 1
 192 896 l 2
 192 1017 194 1122 232 1215 c 0
 279 1330 385 1424 554 1424 c 0
 631 1424 710 1418 802 1409 c 1
 802 1289 l 1
 709 1298 625 1304 554 1304 c 0
 453 1304 388 1256 352 1173 c 0
 320 1100 320 998 320 896 c 2
 320 768 l 1
 704 768 l 1
 704 648 l 1
 320 648 l 1
 320 120 l 1
 832 120 l 1
 832 0 l 1
 64 0 l 1
 64 120 l 1
 192 120 l 1
EndSplineSet
Validated: 1
Layer: 2
Layer: 3
Layer: 4
EndChar
StartChar: currency
Encoding: 164 164 531
GlifName: currency
Width: 1024
VWidth: 0
Flags: W
HStem: 244 120<443.947 708.053> 788 120<443.947 708.053>
VStem: 240 128<439.704 712.296> 784 128<439.704 712.296>
LayerCount: 5
Back
SplineSet
576 848 m 4
 736.22479248 848 848 736.49041748 848 576 c 4
 848 415.50958252 736.22479248 304 576 304 c 4
 415.77520752 304 304 415.50958252 304 576 c 4
 304 736.49041748 415.77520752 848 576 848 c 4
EndSplineSet
Fore
SplineSet
576 788 m 0
 453 788 368 708 368 576 c 0
 368 444 453 364 576 364 c 0
 699 364 784 444 784 576 c 0
 784 708 699 788 576 788 c 0
297 768 m 1
 152 912 l 1
 246 994 l 1
 385 854 l 1
 438 888 503 908 576 908 c 0
 649 908 714 888 767 854 c 1
 906 994 l 1
 1000 912 l 1
 855 768 l 1
 892 714 912 649 912 576 c 0
 912 503 892 438 855 384 c 1
 1000 240 l 1
 906 158 l 1
 767 298 l 1
 714 264 649 244 576 244 c 0
 503 244 438 264 385 298 c 1
 246 158 l 1
 152 240 l 1
 297 384 l 1
 260 438 240 503 240 576 c 0
 240 649 260 714 297 768 c 1
EndSplineSet
Validated: 1
Layer: 2
SplineSet
576 788 m 4
 452.818359375 788 368 708.139648438 368 576 c 4
 368 443.866210938 452.803710938 364 576 364 c 4
 699.181640625 364 784 443.859375 784 576 c 4
 784 708.133789062 699.197265625 788 576 788 c 4
576 908 m 4
 773.251953125 908 912 764.84765625 912 576 c 4
 912 387.159179688 773.267578125 244 576 244 c 4
 378.747070312 244 240 387.15234375 240 576 c 4
 240 764.840820312 378.732421875 908 576 908 c 4
EndSplineSet
Layer: 3
Layer: 4
EndChar
StartChar: yen
Encoding: 165 165 430
GlifName: yen
Width: 1024
VWidth: 0
Flags: W
HStem: 0 21G<448 576> 384 120<192 448 576 832> 648 120<192 332 692 832> 1388 20G<49 206.5 817.5 975>
VStem: 49 125<1293.75 1408> 448 128<0 384 504 630> 850 125<1293.75 1408>
CounterMasks: 1 0e
LayerCount: 5
Back
Fore
SplineSet
49 1408 m 1
 174 1408 l 1
 239 1145 334 921 497 740 c 1
 527 740 l 1
 690 921 785 1145 850 1408 c 1
 975 1408 l 1
 925 1185 843 970 692 768 c 1
 832 768 l 1
 832 648 l 1
 593 648 l 1
 576 630 l 1
 576 504 l 1
 832 504 l 1
 832 384 l 1
 576 384 l 1
 576 0 l 1
 448 0 l 1
 448 384 l 1
 192 384 l 1
 192 504 l 1
 448 504 l 1
 448 630 l 1
 431 648 l 1
 192 648 l 1
 192 768 l 1
 332 768 l 1
 181 970 99 1185 49 1408 c 1
EndSplineSet
Validated: 1
Layer: 2
Layer: 3
Layer: 4
EndChar
StartChar: brokenbar
Encoding: 166 166 314
GlifName: brokenbar
Width: 1024
VWidth: 0
Flags: W
HStem: 1024 21G<448 576>
VStem: 448 128<-128 384 1024 1536>
LayerCount: 5
Back
Fore
SplineSet
576 384 m 1
 576 -128 l 1
 448 -128 l 1
 448 384 l 1
 576 384 l 1
576 1536 m 1
 576 1024 l 1
 448 1024 l 1
 448 1536 l 1
 576 1536 l 1
EndSplineSet
Validated: 1
Layer: 2
Layer: 3
Layer: 4
EndChar
StartChar: section
Encoding: 167 167 432
GlifName: section
Width: 1024
VWidth: 0
Flags: W
HStem: -272 120<231.652 635.967> 1302 120<388.033 788.624>
VStem: 151 128<456.622 690.99> 169 128<988.923 1211.98> 727 128<-63.0386 160.92> 745 128<460.193 692.156>
LayerCount: 5
Back
Fore
SplineSet
520 368 m 0xe4
 701 368 745 497 745 578 c 0
 745 721 640 780 501 780 c 0
 322 780 279 653 279 571 c 0
 279 423 397 368 520 368 c 0xe4
319 289 m 0
 218 342 151 444 151 571 c 0xe8
 151 677 207 781 318 843 c 1
 227 900 169 991 169 1101 c 0
 169 1263 287 1422 530 1422 c 0
 618 1422 719 1407 792 1394 c 1
 792 1271 l 1
 722 1285 613 1302 530 1302 c 0
 342 1302 297 1180 297 1101 c 0
 297 1022 334 971 381 936 c 0
 467 873 592 920 707 859 c 0
 800 810 873 710 873 578 c 0xd4
 873 472 818 367 706 306 c 1
 793 252 855 161 855 47 c 0
 855 -114 737 -272 494 -272 c 0
 394 -272 278 -251 192 -233 c 1
 192 -110 l 1
 274 -129 400 -152 494 -152 c 0
 682 -152 727 -31 727 47 c 0xc8
 727 132 684 194 627 223 c 0
 538 268 425 234 319 289 c 0
EndSplineSet
Validated: 1
Layer: 2
Layer: 3
Layer: 4
EndChar
StartChar: dieresis
Encoding: 168 168 315
GlifName: dieresis
Width: 1024
VWidth: 0
Flags: W
HStem: 1136 224<205.423 370.577 653.423 818.577>
VStem: 176 224<1165.42 1330.58> 624 224<1165.42 1330.58>
LayerCount: 5
Back
Fore
SplineSet
736 1360 m 0
 802 1360 848 1314 848 1248 c 0
 848 1182 802 1136 736 1136 c 0
 670 1136 624 1182 624 1248 c 0
 624 1314 670 1360 736 1360 c 0
288 1360 m 0
 354 1360 400 1314 400 1248 c 0
 400 1182 354 1136 288 1136 c 0
 222 1136 176 1182 176 1248 c 0
 176 1314 222 1360 288 1360 c 0
EndSplineSet
Validated: 1
Layer: 2
Layer: 3
Layer: 4
EndChar
StartChar: copyright
Encoding: 169 169 514
GlifName: copyright
Width: 1024
VWidth: 0
Flags: W
HStem: 113 82<403.46 748.32> 374 120<494.169 745.814> 914 120<496.562 745.951> 1213 82<403.68 748.54>
VStem: 112 88<426.55 981.45> 352 128<503.813 900.861> 952 88<426.55 981.45>
LayerCount: 5
Back
SplineSet
576 1254 m 4
 642.182508122 1254 708.91182233 1240.81126701 768 1211 c 4
 811.681986195 1188.96149068 850.660607343 1157.75452256 881.989650702 1120.17390451 c 4
 913.31869406 1082.59328646 937.004265576 1038.95797087 953.878053846 993.033172773 c 4
 987.625630386 901.183576576 996 801.853192302 996 704 c 4
 996 606.146807698 987.625630386 506.816423424 953.878053846 414.966827227 c 4
 937.004265576 369.042029129 913.31869406 325.406713543 881.989650702 287.826095491 c 4
 850.660607343 250.245477439 811.681986195 219.038509318 768 197 c 4
 708.91182233 167.188732986 642.182508122 154 576 154 c 4
 509.817491878 154 443.08817767 167.188732986 384 197 c 4
 340.318013805 219.038509318 301.339392657 250.245477439 270.010349298 287.826095491 c 4
 238.68130594 325.406713543 214.995734424 369.042029129 198.121946154 414.966827227 c 4
 164.374369614 506.816423424 156 606.146807698 156 704 c 4
 156 801.853192302 164.374369614 901.183576576 198.121946154 993.033172773 c 4
 214.995734424 1038.95797087 238.68130594 1082.59328646 270.010349298 1120.17390451 c 4
 301.339392657 1157.75452256 340.318013805 1188.96149068 384 1211 c 4
 443.08817767 1240.81126701 509.817491878 1254 576 1254 c 4
  Spiro
    576 1254 o
    768 1211 o
    996 704 o
    768 197 o
    576 154 o
    384 197 o
    156 704 o
    384 1211 o
    0 0 z
  EndSpiro
EndSplineSet
Fore
SplineSet
748 390 m 1
 701 381 652 374 595 374 c 0
 511 374 450 393 410 436 c 0
 352 498 352 597 352 708 c 0
 352 763 352 853 375 912 c 0
 404 986 476 1034 596 1034 c 0
 643 1034 704 1025 748 1015 c 1
 748 895 l 1
 705 905 651 914 594 914 c 0
 539 914 510 905 495 871 c 0
 480 837 480 758 480 708 c 0
 480 603 481 541 506 515 c 0
 526 494 555 494 595 494 c 0
 641 494 702 501 748 510 c 1
 748 390 l 1
576 1213 m 0
 399 1213 289 1114 240 980 c 0
 209 895 200 800 200 704 c 0
 200 608 209 513 240 428 c 0
 289 294 398 195 576 195 c 0
 753 195 863 294 912 428 c 0
 943 513 952 608 952 704 c 0
 952 800 943 895 912 980 c 0
 863 1114 754 1213 576 1213 c 0
576 1295 m 0
 793 1295 936 1170 996 1006 c 0
 1032 908 1040 804 1040 704 c 0
 1040 604 1032 500 996 402 c 0
 936 238 793 113 576 113 c 0
 359 113 216 238 156 402 c 0
 120 500 112 604 112 704 c 0
 112 804 120 908 156 1006 c 0
 216 1170 359 1295 576 1295 c 0
EndSplineSet
Validated: 1
Layer: 2
SplineSet
605 974 m 0
 636.924841214 973.746944184 668.7381073 969.477158992 700 963 c 0
 741.384008053 954.425637517 781.782813061 941.044457236 820 923 c 1
 976 768 l 1
 826 479 l 1
 780.496087271 461.460190449 733.173997777 448.583991754 685 441 c 0
 658.532231775 436.833201619 631.793697593 434.052277057 605 434 c 0
 583.706017411 433.958453411 562.22416176 435.804577243 541.873007374 442.07083097 c 0
 521.521852988 448.337084698 502.49025328 459.396539471 488 475 c 0
 474.755959581 489.26150792 465.534986088 506.958260628 459.810533235 525.560030821 c 0
 454.086080382 544.161801014 451.572302052 563.600951543 450 583 c 0
 446.622049424 624.677123554 445.996442127 666.208589232 445.996442127 708.235612476 c 0
 445.996442127 744.860329855 446.814346185 781.516804465 450 818 c 0
 452.177602374 842.938646133 455.813236836 868.025961616 464.947486877 891.333546202 c 0
 474.081736919 914.641130788 489.37690707 935.809649016 510 950 c 0
 523.672183041 959.407564459 539.347275804 965.716809759 555.537814912 969.363356281 c 0
 571.728354019 973.009902804 588.404411623 974.131546783 605 974 c 0
  Spiro
    605 974 o
    700 963 o
    820 923 v
    976 768 v
    826 479 v
    685 441 o
    605 434 o
    488 475 o
    450 583 o
    446 704 o
    450 818 o
    510 950 o
    0 0 z
  EndSpiro
EndSplineSet
Layer: 3
SplineSet
768 399.642899348 m 5
 740.952883014 392.185938694 713.43947114 386.211157791 685.600585938 381.829101562 c 4
 656.784179688 377.291992188 626.564453125 374.061523438 595.134765625 374 c 4
 569.89453125 373.950195312 541.440429688 375.97265625 511.901367188 385.06640625 c 4
 481.692382812 394.369140625 452.64453125 410.927734375 429.731445312 435.6015625 c 4
 408.9140625 458.017578125 396.0859375 483.690429688 388.318359375 508.927734375 c 4
 380.684570312 533.735351562 377.899414062 557.290039062 376.18359375 578.454101562 c 4
 372.607421875 622.580078125 371.99609375 665.655273438 371.99609375 708.235351562 c 4
 371.99609375 745.696289062 372.81640625 783.987304688 376.213867188 822.895507812 c 4
 378.571289062 849.897460938 382.509765625 880.475585938 394.874023438 912.026367188 c 4
 407.557617188 944.388671875 429.190429688 975.704101562 462.129882812 998.368164062 c 4
 483.639648438 1013.16992188 507.271484375 1022.45117188 530.587890625 1027.703125 c 4
 553.603515625 1032.88671875 575.53515625 1034.15625 595.541992188 1033.99804688 c 4
 633.200195312 1033.69921875 669.416992188 1028.71289062 703.811523438 1021.5859375 c 4
 725.488499818 1017.09470539 746.927694574 1011.43047384 768 1004.60471029 c 5
 768 875.395352635 l 5
 738.54691626 888.173766443 707.697772507 897.884918135 676.188476562 904.4140625 c 4
 648.059570312 910.2421875 620.649414062 913.793945312 594.458007812 914.001953125 c 4
 581.2734375 914.106445312 569.853515625 913.1328125 560.48828125 911.0234375 c 4
 551.423828125 908.981445312 543.704101562 905.645507812 537.870117188 901.630859375 c 4
 529.563476562 895.915039062 520.606445312 884.893554688 515.020507812 870.640625 c 4
 509.1171875 855.576171875 505.784179688 835.98046875 503.786132812 813.104492188 c 4
 500.8125 779.046875 499.99609375 744.0234375 499.99609375 708.235351562 c 4
 499.99609375 666.760742188 500.63671875 626.774414062 503.81640625 587.545898438 c 4
 505.245117188 569.913085938 507.487304688 554.587890625 511.302734375 542.192382812 c 4
 514.984375 530.227539062 520.59765625 520.505859375 526.268554688 514.3984375 c 4
 532.3359375 507.866210938 541.350585938 502.305664062 551.844726562 499.07421875 c 4
 563.008789062 495.637695312 577.517578125 493.965820312 594.865234375 494 c 4
 617.0234375 494.04296875 640.280273438 496.374023438 664.399414062 500.171875 c 4
 699.443466101 505.688200226 734.146582829 514.352409381 768 525.899737398 c 5
 768 399.642899348 l 5
EndSplineSet
Layer: 4
EndChar
StartChar: guillemotleft
Encoding: 171 171 313
GlifName: guillemotleft
Width: 1024
VWidth: 0
Flags: W
HStem: 1019 20G<370.035 415.588 754.035 799.588>
LayerCount: 5
Back
Fore
SplineSet
189 581 m 1
 189 571 l 1
 489 181 l 1
 385 113 l 1
 64 542 l 1
 64 610 l 1
 385 1039 l 1
 489 971 l 1
 189 581 l 1
573 581 m 1
 573 571 l 1
 873 181 l 1
 769 113 l 1
 448 542 l 1
 448 610 l 1
 769 1039 l 1
 873 971 l 1
 573 581 l 1
EndSplineSet
Validated: 1
Layer: 2
Layer: 3
Layer: 4
EndChar
StartChar: logicalnot
Encoding: 172 172 317
GlifName: logicalnot
Width: 1024
VWidth: 0
Flags: W
HStem: 644 120<64 832>
VStem: 832 128<384 644>
LayerCount: 5
Back
Fore
SplineSet
960 764 m 1
 960 384 l 1
 832 384 l 1
 832 644 l 1
 64 644 l 1
 64 764 l 1
 960 764 l 1
EndSplineSet
Validated: 1
Layer: 2
Layer: 3
Layer: 4
EndChar
StartChar: uni00AD
Encoding: 173 173 96
GlifName: uni00A_D_
Width: 1024
VWidth: 0
Flags: W
HStem: 516 120<64 960>
LayerCount: 5
Back
Fore
SplineSet
64 636 m 1
 960 636 l 1
 960 516 l 1
 64 516 l 1
 64 636 l 1
EndSplineSet
Validated: 1
Layer: 2
Layer: 3
Layer: 4
EndChar
StartChar: macron
Encoding: 175 175 318
GlifName: macron
Width: 1024
VWidth: 0
Flags: W
HStem: 1156 120<192 832>
LayerCount: 5
Back
Fore
SplineSet
192 1276 m 1
 832 1276 l 1
 832 1156 l 1
 192 1156 l 1
 192 1276 l 1
EndSplineSet
Validated: 1
Layer: 2
Layer: 3
Layer: 4
EndChar
StartChar: degree
Encoding: 176 176 316
GlifName: degree
Width: 1024
VWidth: 0
Flags: W
HStem: 1068 100<427.86 596.14> 1424 100<427.86 596.14>
VStem: 284 108<1201.29 1390.71> 632 108<1201.29 1390.71>
LayerCount: 5
Back
Fore
SplineSet
512 1524 m 0
 647 1524 740 1423 740 1296 c 0
 740 1169 647 1068 512 1068 c 0
 377 1068 284 1169 284 1296 c 0
 284 1423 377 1524 512 1524 c 0
512 1424 m 0
 442 1424 392 1379 392 1296 c 0
 392 1213 442 1168 512 1168 c 0
 582 1168 632 1213 632 1296 c 0
 632 1379 582 1424 512 1424 c 0
EndSplineSet
Validated: 1
Layer: 2
Layer: 3
Layer: 4
EndChar
StartChar: plusminus
Encoding: 177 177 291
GlifName: plusminus
Width: 1024
VWidth: 0
Flags: W
HStem: 260 120<64 960> 772 120<64 448 576 960>
VStem: 448 128<512 772 892 1152>
LayerCount: 5
Back
Fore
SplineSet
576 892 m 1
 960 892 l 1
 960 772 l 1
 576 772 l 1
 576 512 l 1
 448 512 l 1
 448 772 l 1
 64 772 l 1
 64 892 l 1
 448 892 l 1
 448 1152 l 1
 576 1152 l 1
 576 892 l 1
64 380 m 1
 960 380 l 1
 960 260 l 1
 64 260 l 1
 64 380 l 1
EndSplineSet
Validated: 1
Layer: 2
Layer: 3
Layer: 4
EndChar
StartChar: uni00B2
Encoding: 178 178 510
GlifName: uni00B_2
Width: 1024
VWidth: 0
Flags: W
HStem: 768 120<324 704> 1432 120<195.361 552.448>
VStem: 186 138<888 949.847> 588 128<1228.4 1396.49>
LayerCount: 5
Back
Fore
SplineSet
192 1525 m 1
 265 1540 345 1552 435 1552 c 0
 625 1552 716 1441 716 1317 c 0
 716 1167 597 1089 498 1039 c 0
 422 1001 349 967 324 898 c 1
 324 888 l 1
 704 888 l 1
 704 768 l 1
 186 768 l 1
 186 828 l 2
 186 991 308 1085 426 1141 c 0
 500 1176 588 1221 588 1317 c 0
 588 1355 574 1432 435 1432 c 0
 352 1432 262 1419 192 1405 c 1
 192 1525 l 1
EndSplineSet
Validated: 1
Layer: 2
Layer: 3
Layer: 4
EndChar
StartChar: uni00B3
Encoding: 179 179 511
GlifName: uni00B_3
Width: 1024
VWidth: 0
Flags: W
HStem: 752 120<195.455 552.288> 1092 120<320 543.687> 1415 21G<202 235.5> 1432 120<205.221 546.489>
VStem: 588 128<906.693 1056.58 1255.22 1389.93>
LayerCount: 5
Back
SplineSet
674 1150 m 5xd8
 749 1111 780 1048 780 983 c 4
 780 836 652 752 508 752 c 4
 415 752 333 759 256 767 c 5
 256 887 l 5
 332 880 431 872 508 872 c 4
 586 872 652 907 652 983 c 4
 652 1041 607 1077 554 1087 c 4
 528 1092 497 1092 462 1092 c 6
 384 1092 l 5
 384 1212 l 5
 462 1212 l 6
 496 1212 525 1213 550 1218 c 4
 602 1229 643 1264 643 1322 c 4
 643 1395 583 1432 506 1432 c 4xd8
 429.826086957 1432 335.913043478 1422 266 1415 c 5xe8
 266 1535 l 5
 339.043478261 1544 417.304347826 1552 506 1552 c 4
 658 1552 771 1460 771 1322 c 4
 771 1261 746 1201 674 1160 c 5
 674 1150 l 5xd8
EndSplineSet
Fore
SplineSet
610 1150 m 1xd8
 685 1111 716 1048 716 983 c 0
 716 836 593 752 434 752 c 0
 345 752 266 759 192 767 c 1
 192 887 l 1
 265 880 360 872 434 872 c 0
 527 872 588 907 588 983 c 0
 588 1041 543 1077 490 1087 c 0
 464 1092 433 1092 398 1092 c 2
 320 1092 l 1
 320 1212 l 1
 398 1212 l 2
 432 1212 461 1213 486 1218 c 0
 538 1229 579 1264 579 1322 c 0
 579 1395 525 1432 432 1432 c 0xd8
 359 1432 269 1422 202 1415 c 1xe8
 202 1535 l 1
 272 1544 347 1552 432 1552 c 0
 600 1552 707 1460 707 1322 c 0
 707 1261 682 1201 610 1160 c 1
 610 1150 l 1xd8
EndSplineSet
Validated: 1
Layer: 2
Layer: 3
Layer: 4
EndChar
StartChar: acute
Encoding: 180 180 310
GlifName: acute
Width: 1024
VWidth: 0
Flags: W
HStem: 1024 384
VStem: 425 304
LayerCount: 5
Back
Fore
SplineSet
425 1024 m 1
 591 1408 l 1
 729 1408 l 1
 563 1024 l 1
 425 1024 l 1
EndSplineSet
Validated: 1
Layer: 2
Layer: 3
Layer: 4
EndChar
StartChar: mu
Encoding: 181 181 290
GlifName: mu
Width: 1024
VWidth: 0
Flags: W
HStem: -16 120<415.078 608.922> 0 21G<704 832> 1004 20G<192 320 704 832>
VStem: 192 128<-384 112 180.901 1024> 704 128<0 112 180.901 1024>
LayerCount: 5
Back
Fore
SplineSet
512 -16 m 0xb8
 444 -16 374 35 330 112 c 1
 320 112 l 1
 320 -384 l 1
 192 -384 l 1
 192 1024 l 1
 320 1024 l 1
 320 367 l 2
 320 280 320 218 365 166 c 0
 397 129 448 104 512 104 c 0xb8
 576 104 627 129 659 166 c 0
 704 218 704 280 704 367 c 2
 704 1024 l 1
 832 1024 l 1
 832 0 l 1
 704 0 l 1x78
 704 112 l 1
 694 112 l 1
 650 35 580 -16 512 -16 c 0xb8
EndSplineSet
Validated: 1
Layer: 2
Layer: 3
Layer: 4
EndChar
StartChar: paragraph
Encoding: 182 182 311
GlifName: paragraph
Width: 1024
VWidth: 0
Flags: W
HStem: 0 21G<448 576 704 832> 1288 120<576.299 704>
VStem: 176 400<860.952 1189.24> 448 128<0 663.615> 704 128<0 1288>
LayerCount: 5
Back
Fore
SplineSet
576 1288 m 1xd8
 576 0 l 1
 448 0 l 1
 448 655 l 1xd8
 292 695 176 831 176 1024 c 0xe8
 176 1220 296 1357 455 1395 c 0
 510 1408 562 1408 639 1408 c 2
 832 1408 l 1
 832 0 l 1
 704 0 l 1
 704 1288 l 1
 576 1288 l 1xd8
EndSplineSet
Validated: 1
Layer: 2
Layer: 3
Layer: 4
EndChar
StartChar: periodcentered
Encoding: 183 183 95
GlifName: periodcentered
Width: 1024
VWidth: 0
Flags: W
HStem: 528 240<320 576>
VStem: 320 256<528 768>
LayerCount: 5
Back
Fore
SplineSet
320 768 m 1
 576 768 l 1
 576 528 l 1
 320 528 l 1
 320 768 l 1
EndSplineSet
Validated: 1
Layer: 2
Layer: 3
Layer: 4
EndChar
StartChar: cedilla
Encoding: 184 184 309
GlifName: cedilla
Width: 1024
VWidth: 0
Flags: W
HStem: -400 120<194.225 409.418> -20 20G<448 576>
VStem: 448 128<-239.68 0>
LayerCount: 5
Back
Fore
SplineSet
576 -105 m 2
 576 -165 576 -235 524 -305 c 0
 482 -362 410 -400 320 -400 c 0
 285 -400 239 -393 192 -383 c 1
 192 -260 l 1
 240 -271 286 -280 320 -280 c 0
 367 -280 399 -263 420 -235 c 0
 448 -198 448 -155 448 -105 c 2
 448 0 l 1
 576 0 l 1
 576 -105 l 2
EndSplineSet
Validated: 1
Layer: 2
Layer: 3
Layer: 4
EndChar
StartChar: uni00B9
Encoding: 185 185 509
GlifName: uni00B_9
Width: 1024
VWidth: 0
Flags: W
VStem: 448 128<768 1378>
LayerCount: 5
Back
Fore
SplineSet
468 1536 m 1
 576 1536 l 1
 576 768 l 1
 448 768 l 1
 448 1378 l 1
 438 1378 l 1
 192 1246 l 1
 192 1380 l 1
 468 1536 l 1
EndSplineSet
Validated: 1
Layer: 2
Layer: 3
Layer: 4
EndChar
StartChar: guillemotright
Encoding: 187 187 312
GlifName: guillemotright
Width: 1024
VWidth: 0
Flags: W
HStem: 1019 20G<224.412 269.965 608.412 653.965>
LayerCount: 5
Back
Fore
SplineSet
835 581 m 1
 535 971 l 1
 639 1039 l 1
 960 610 l 1
 960 542 l 1
 639 113 l 1
 535 181 l 1
 835 571 l 1
 835 581 l 1
451 581 m 1
 151 971 l 1
 255 1039 l 1
 576 610 l 1
 576 542 l 1
 255 113 l 1
 151 181 l 1
 451 571 l 1
 451 581 l 1
EndSplineSet
Validated: 1
Layer: 2
SplineSet
520 147 m 5
 841 576 l 5
 520 1005 l 1029
EndSplineSet
Layer: 3
Layer: 4
EndChar
StartChar: onequarter
Encoding: 188 188 501
GlifName: onequarter
Width: 1024
VWidth: 0
Flags: W
HStem: 128 120<579 832>
VStem: 320 128<768 1378> 832 128<-128 128 248 640>
LayerCount: 5
Back
Fore
SplineSet
340 1536 m 1
 448 1536 l 1
 448 768 l 1
 320 768 l 1
 320 1378 l 1
 310 1378 l 1
 64 1246 l 1
 64 1380 l 1
 340 1536 l 1
960 -128 m 1
 832 -128 l 1
 832 128 l 1
 448 128 l 1
 448 200 l 1
 526 640 l 1
 647 640 l 1
 579 248 l 1
 832 248 l 1
 832 640 l 1
 960 640 l 1
 960 -128 l 1
EndSplineSet
Validated: 1
Layer: 2
Layer: 3
Layer: 4
EndChar
StartChar: onehalf
Encoding: 189 189 500
GlifName: onehalf
Width: 1024
VWidth: 0
Flags: W
HStem: -128 120<580 960> 536 120<451.361 808.448>
VStem: 320 128<768 1378> 442 138<-8 53.8469> 844 128<332.396 500.491>
LayerCount: 5
Back
SplineSet
640 1492 m 0
 760.168303987 1492 844 1420.66641645 844 1318 c 4
 844 1215.33355713 760.168303987 1144 640 1144 c 4
 519.831665039 1144 436 1215.33355713 436 1318 c 4
 436 1420.66641645 519.831665039 1492 640 1492 c 0
EndSplineSet
Fore
SplineSet
448 629 m 1xe8
 521 644 601 656 691 656 c 0
 881 656 972 545 972 421 c 0
 972 271 853 193 754 143 c 0
 678 105 605 71 580 2 c 1
 580 -8 l 1
 960 -8 l 1
 960 -128 l 1
 442 -128 l 1
 442 -68 l 2xd8
 442 95 564 189 682 245 c 0
 756 280 844 325 844 421 c 0
 844 459 830 536 691 536 c 0
 608 536 518 523 448 509 c 1
 448 629 l 1xe8
340 1536 m 1
 448 1536 l 1
 448 768 l 1
 320 768 l 1
 320 1378 l 1xe8
 310 1378 l 1
 64 1246 l 1
 64 1380 l 1
 340 1536 l 1
EndSplineSet
Validated: 1
Layer: 2
SplineSet
320 1421 m 0
 375.989987866 1439.87146298 432.560983093 1457.15188847 490 1471 c 0
 538.174341841 1482.61446861 587.275760666 1492.00003711 636.82936611 1492.00003711 c 0
 665.83878467 1491.99372883 694.94290441 1488.55037039 722.46106664 1479.46793243 c 0
 749.918257465 1470.40561824 775.630121075 1455.52049948 796 1435 c 0
 826.728542268 1404.04424233 844.004743873 1360.8080437 844.004743873 1316.70908966 c 0
 844.004743873 1285.12984839 835.496509752 1253.72208366 820.571533319 1225.88680459 c 0
 805.443200625 1197.67226339 783.831462586 1173.20705943 759 1153 c 0
 698.766234317 1103.98366523 621.472218731 1080.74354761 558 1036 c 0
 524.230971444 1012.19515802 494.473008141 982.143411005 473.879496164 946.325467797 c 0
 453.285984186 910.50752459 442.035085612 869.316056929 442 828 c 1
 896 828 l 1025
  Spiro
    320 1421 {
    490 1471 o
    637 1492 o
    796 1435 o
    844 1318 o
    759 1153 o
    558 1036 o
    442 828 v
    896 828 v
    0 0 z
  EndSpiro
EndSplineSet
Layer: 3
Layer: 4
EndChar
StartChar: threequarters
Encoding: 190 190 508
GlifName: threequarters
Width: 1024
VWidth: 0
Flags: W
HStem: 128 120<579 832> 752 120<67.4551 424.288> 1092 120<192 415.687> 1415 21G<74 107.5> 1432 120<77.2211 418.489>
VStem: 460 128<906.693 1056.58 1255.22 1389.93> 832 128<-128 128 248 640>
LayerCount: 5
Back
SplineSet
369 1469 m 4
 301.379497815 1453.17670974 234.319644586 1435.05796832 167 1418 c 5
 0 1323 l 5
 384 1152 l 5
 482 1152 l 6
 516.126555676 1152 550.526782309 1152.08878773 583.953388879 1158.96510764 c 4
 617.37999545 1165.84142755 649.76778307 1180.02268442 675 1203 c 4
 707.913737451 1232.97236962 727.000107212 1277.3019775 727.000107212 1321.81727202 c 4
 727 1322 l 4
 726.944911076 1368.94300597 705.698300776 1415.51590306 670 1446 c 4
 650.425429993 1462.71544798 626.981591421 1474.64822754 602.293956936 1481.93456377 c 4
 577.640766858 1489.21073405 551.812608128 1492.00001633 526.107740579 1492.00001633 c 4
 473.038494443 1491.99197282 420.652839146 1481.08683521 369 1469 c 4
  Spiro
    526 1492 o
    369 1469 o
    167 1418 v
    0 1323 v
    384 1152 v
    482 1152 ]
    675 1203 o
    727 1322 o
    670 1446 o
    0 0 z
  EndSpiro
681 1102 m 4
 654.483893113 1124.8535734 620.993446953 1138.60498506 586.62826675 1145.27012805 c 4
 552.263086547 1151.93527104 517.005567293 1152 482 1152 c 6
 384 1152 l 5
 0 1120 l 5
 132 896 l 5
 194.547568062 878.887689266 257.096286024 861.752847906 320 846 c 4
 387.992200451 828.972852876 456.908252453 812.09993555 527 812 c 4
 527.523925425 811.999626306 l 4
 566.876515789 811.999626306 606.843269543 818.330920328 642 836 c 4
 669.228891791 849.684704242 693.156661909 870.197269261 709.833848307 895.703251544 c 4
 726.669596871 921.451737789 736.002891459 951.858064687 736.002891459 982.920197563 c 4
 736.002891459 1028.02673264 715.173625357 1072.54660178 681 1102 c 4
  Spiro
    681 1102 o
    482 1152 [
    384 1152 v
    0 1120 v
    132 896 v
    320 846 o
    527 812 o
    642 836 o
    736 982 o
    0 0 z
  EndSpiro
EndSplineSet
Fore
SplineSet
482 1150 m 1xee
 557 1111 588 1048 588 983 c 0
 588 836 465 752 306 752 c 0
 217 752 138 759 64 767 c 1
 64 887 l 1
 137 880 232 872 306 872 c 0
 399 872 460 907 460 983 c 0
 460 1041 415 1077 362 1087 c 0
 336 1092 305 1092 270 1092 c 2
 192 1092 l 1
 192 1212 l 1
 270 1212 l 2
 304 1212 333 1213 358 1218 c 0
 410 1229 451 1264 451 1322 c 0
 451 1395 397 1432 304 1432 c 0xee
 231 1432 141 1422 74 1415 c 1xf6
 74 1535 l 1
 144 1544 219 1552 304 1552 c 0
 472 1552 579 1460 579 1322 c 0
 579 1261 554 1201 482 1160 c 1
 482 1150 l 1xee
960 -128 m 1
 832 -128 l 1
 832 128 l 1
 448 128 l 1
 448 200 l 1
 526 640 l 1
 647 640 l 1
 579 248 l 1
 832 248 l 1
 832 640 l 1
 960 640 l 1
 960 -128 l 1
EndSplineSet
Validated: 1
Layer: 2
SplineSet
527 1152 m 4
 650.1140625 1152 736 1082.30664062 736 982 c 4
 736 881.693359375 650.1140625 812 527 812 c 4
 403.8859375 812 318 881.693359375 318 982 c 4
 318 1082.30664062 403.8859375 1152 527 1152 c 4
  Spiro
    527 1152 o
    635.81 1130.26 o
    709.225 1070.58 o
    736 982 o
    709.225 893.421 o
    635.81 833.742 o
    527 812 o
    418.19 833.742 o
    344.775 893.421 o
    318 982 o
    344.775 1070.58 o
    418.19 1130.26 o
    0 0 z
  EndSpiro
527 1492 m 4
 644.8125 1492 727 1422.30664062 727 1322 c 4
 727 1221.69335938 644.8125 1152 527 1152 c 4
 409.1875 1152 327 1221.69335938 327 1322 c 4
 327 1422.30664062 409.1875 1492 527 1492 c 4
  Spiro
    527 1492 o
    631.124 1470.26 o
    701.378 1410.58 o
    727 1322 o
    701.378 1233.42 o
    631.124 1173.74 o
    527 1152 o
    422.876 1173.74 o
    352.622 1233.42 o
    327 1322 o
    352.622 1410.58 o
    422.876 1470.26 o
    0 0 z
  EndSpiro
EndSplineSet
Layer: 3
Layer: 4
EndChar
StartChar: questiondown
Encoding: 191 191 101
GlifName: questiondown
Width: 1024
VWidth: 0
Flags: W
HStem: -272 120<453.519 870.423> 880 288<474.535 677.465>
VStem: 244 128<-73.0191 209.184> 432 288<922.535 1125.47> 512 128<485.973 640>
LayerCount: 5
Back
Fore
SplineSet
576 880 m 0xf0
 491 880 432 939 432 1024 c 0
 432 1109 491 1168 576 1168 c 0
 661 1168 720 1109 720 1024 c 0
 720 939 661 880 576 880 c 0xf0
640 640 m 1xe8
 640 553.245117188 627.96484375 460.462890625 541 371 c 0
 442.482421875 269.653320312 372 194.891601562 372 60 c 0
 372 -76 444 -152 618 -152 c 0
 702 -152 799 -131.532226562 874 -115 c 1
 874 -235 l 1
 797 -253.106445312 702 -272 618 -272 c 0
 375 -272 244 -146 244 60 c 0
 244 229 332 335 445 451 c 0
 512 520 512 582 512 640 c 1
 640 640 l 1xe8
EndSplineSet
Validated: 1
Layer: 2
Layer: 3
Layer: 4
EndChar
StartChar: Agrave
Encoding: 192 192 97
GlifName: A_grave
Width: 1024
VWidth: 0
Flags: W
HStem: 0 21G<105 246 906 1047> 384 120<348 804> 1005 147<549.152 602.848>
VStem: 105 130<0 215.138> 917 130<0 215.077>
LayerCount: 5
Back
Refer: 27 96 N 1 0 0 1 136.371 522 2
Refer: 29 65 N 1 0 0 1 26 0 3
Fore
SplineSet
522 1152 m 1
 630 1152 l 1
 851 828 969 478 1047 0 c 1
 917 0 l 1
 895 139 869 266 838 384 c 1
 314 384 l 1
 283 266 257 139 235 0 c 1
 105 0 l 1
 183 478 301 829 522 1152 c 1
348 504 m 1
 804 504 l 1
 748 686 676 848 581 1005 c 1
 571 1005 l 1
 476 849 404 686 348 504 c 1
664 1280 m 1
 526 1280 l 1
 360 1536 l 1
 498 1536 l 1
 664 1280 l 1
EndSplineSet
Layer: 2
Layer: 3
Layer: 4
EndChar
StartChar: Aring
Encoding: 197 197 104
GlifName: A_ring
Width: 1024
VWidth: 0
Flags: W
HStem: 0 21G<105 246 906 1047> 384 120<348 804> 1424 100<486.332 665.668>
VStem: 105 130<0 201.307> 348 108<1197.37 1395.19> 696 108<1197.37 1395.19> 917 130<0 201.245>
LayerCount: 5
Back
Fore
SplineSet
576 1524 m 0
 711 1524 804 1423 804 1296 c 0
 804 1202 753 1122 672 1087 c 1
 866 781 974 446 1047 0 c 1
 917 0 l 1
 895 139 869 266 838 384 c 1
 314 384 l 1
 283 266 257 139 235 0 c 1
 105 0 l 1
 178 446 285 782 479 1087 c 1
 398 1122 348 1202 348 1296 c 0
 348 1423 441 1524 576 1524 c 0
576 1424 m 0
 506 1424 456 1379 456 1296 c 0
 456 1213 506 1168 576 1168 c 0
 646 1168 696 1213 696 1296 c 0
 696 1379 646 1424 576 1424 c 0
348 504 m 1
 804 504 l 1
 748 686 676 848 581 1005 c 1
 571 1005 l 1
 476 849 404 686 348 504 c 1
EndSplineSet
Validated: 1
Layer: 2
Layer: 3
Layer: 4
EndChar
StartChar: AE
Encoding: 198 198 105
GlifName: A_E_
Width: 1024
VWidth: 0
Flags: W
HStem: 0 120<704 960> 388 120<198 576> 644 120<704 960> 1288 120<355.921 576 704 960>
VStem: 39 128<0 367.797> 576 384<0 120 644 764> 576 128<120 388 508 644 764 1288>
LayerCount: 5
Back
Fore
SplineSet
576 388 m 1xfa
 184 388 l 1
 175 276 167 155 167 0 c 1
 39 0 l 1
 39 496 123 971 293 1408 c 1
 960 1408 l 1
 960 1288 l 1xfc
 704 1288 l 1
 704 764 l 1xfa
 960 764 l 1
 960 644 l 1xfc
 704 644 l 1
 704 120 l 1xfa
 960 120 l 1
 960 0 l 1
 576 0 l 1xfc
 576 388 l 1xfa
576 508 m 1xfa
 576 1288 l 1
 367 1288 l 1
 287 1049 233 800 198 508 c 1
 576 508 l 1xfa
EndSplineSet
Validated: 1
Layer: 2
Layer: 3
Layer: 4
EndChar
StartChar: Ccedilla
Encoding: 199 199 106
GlifName: C_cedilla
Width: 1024
VWidth: 0
Flags: W
HStem: -273 120<384 600.04> -16 120<445.225 640> 1304 120<438.215 924.93>
VStem: 112 128<375.411 1032.59> 640 127<-112.196 -15>
LayerCount: 5
Back
SplineSet
1024 141 m 5
 1024 21 l 5
 907 1 777 -16 643 -16 c 4
 358 -16 199 142 143 364 c 4
 114 478 112 594 112 704 c 4
 112 814 114 930 143 1044 c 4
 201 1266 355 1424 643 1424 c 4
 766 1424 885 1412 994 1395 c 5
 994 1275 l 5
 881 1292 755 1304 643 1304 c 4
 420 1304 312 1188 268 1016 c 4
 243 919 240 813 240 704 c 4
 240 595 243 489 268 392 c 4
 312 220 420 104 643 104 c 4
 765 104 903 121 1024 141 c 5
EndSplineSet
Fore
SplineSet
960 141 m 5
 960 21 l 5
 899 10 834 0 767 -7 c 5
 765 -66 757 -122 716 -178 c 4
 673 -236 596 -273 502 -273 c 4
 470 -273 427 -270 384 -266 c 5
 384 -146 l 5
 428 -150 471 -153 502 -153 c 4
 595 -153 637 -99 640 -15 c 5
 627 -15 613 -16 599 -16 c 4
 339 -16 199 143 143 364 c 4
 114 478 112 594 112 704 c 4
 112 814 114 930 143 1044 c 4
 199 1265 332 1424 589 1424 c 4
 708 1424 824 1412 930 1395 c 5
 930 1275 l 5
 820 1292 698 1304 589 1304 c 4
 398 1304 312 1187 268 1016 c 4
 243 919 240 813 240 704 c 4
 240 595 243 489 268 392 c 4
 312 221 402 104 599 104 c 4
 715 104 845 121 960 141 c 5
EndSplineSet
Validated: 1
Layer: 2
Layer: 3
Layer: 4
EndChar
StartChar: multiply
Encoding: 215 215 122
GlifName: multiply
Width: 1024
VWidth: 0
Flags: W
LayerCount: 5
Back
Fore
SplineSet
661 512 m 1
 936 240 l 1
 842 158 l 1
 576 427 l 1
 517 512 l 1
 507 512 l 1
 448 427 l 1
 182 158 l 1
 88 240 l 1
 363 512 l 1
 448 571 l 1
 448 581 l 1
 363 640 l 1
 88 912 l 1
 182 994 l 1
 448 725 l 1
 507 640 l 1
 517 640 l 1
 576 725 l 1
 842 994 l 1
 936 912 l 1
 661 640 l 1
 576 581 l 1
 576 571 l 1
 661 512 l 1
EndSplineSet
Validated: 1
Layer: 2
Layer: 3
Layer: 4
EndChar
StartChar: Oslash
Encoding: 216 216 123
GlifName: O_slash
Width: 1024
VWidth: 0
Flags: W
HStem: -16 120<373.651 646.509> 1304 120<377.491 650.349>
VStem: 48 128<349.87 1053.57> 848 128<354.432 1058.13>
LayerCount: 5
Back
Fore
SplineSet
280 215 m 1
 334 148 411 104 512 104 c 0
 684 104 787 230 823 382 c 0
 847 485 848 592 848 704 c 0
 848 841 845 987 802 1094 c 1
 280 215 l 1
137 -26 m 1
 51 26 l 1
 146 186 l 1
 114 237 90 294 76 355 c 0
 48 473 48 592 48 704 c 0
 48 816 48 935 76 1053 c 0
 124 1256 274 1424 512 1424 c 0
 636 1424 737 1378 811 1305 c 1
 887 1434 l 1
 973 1382 l 1
 878 1222 l 1
 910 1171 934 1114 948 1053 c 0
 976 935 976 816 976 704 c 0
 976 592 976 473 948 355 c 0
 900 152 750 -16 512 -16 c 0
 388 -16 287 30 213 103 c 1
 137 -26 l 1
512 1304 m 0
 340 1304 237 1178 201 1026 c 0
 177 923 176 816 176 704 c 0
 176 567 179 421 222 314 c 1
 744 1193 l 1
 690 1260 613 1304 512 1304 c 0
EndSplineSet
Validated: 1
Layer: 2
Layer: 3
Layer: 4
EndChar
StartChar: Yacute
Encoding: 221 221 128
GlifName: Y_acute
Width: 1024
VWidth: 0
Flags: W
HStem: 0 21G<512 640>
VStem: 113 125<1046.07 1152> 512 128<0 540.454> 914 125<1046.07 1152>
CounterMasks: 1 70
LayerCount: 5
Back
Fore
SplineSet
488 1280 m 1
 654 1536 l 1
 792 1536 l 1
 626 1280 l 1
 488 1280 l 1
113 1152 m 1
 238 1152 l 1
 303 939 398 758 561 612 c 1
 591 612 l 1
 754 758 849 939 914 1152 c 1
 1039 1152 l 1
 978 923 868 714 640 512 c 1
 640 0 l 1
 512 0 l 1
 512 512 l 1
 284 714 174 923 113 1152 c 1
EndSplineSet
Validated: 1
Layer: 2
Layer: 3
Layer: 4
EndChar
StartChar: Thorn
Encoding: 222 222 129
GlifName: T_horn
Width: 1024
VWidth: 0
Flags: W
HStem: 0 21G<128 256> 264 120<256 614.904> 1032 120<256 614.904> 1388 20G<128 256>
VStem: 128 128<0 264 384 1032 1152 1408> 784 128<555.269 860.731>
LayerCount: 5
Back
Fore
SplineSet
256 1152 m 1
 405 1152 l 2
 496 1152 644 1152 763 1047 c 0
 849 971 912 855 912 708 c 0
 912 561 849 445 763 369 c 0
 644 264 496 264 405 264 c 2
 256 264 l 1
 256 0 l 1
 128 0 l 1
 128 1408 l 1
 256 1408 l 1
 256 1152 l 1
256 1032 m 1
 256 384 l 1
 405 384 l 2
 487 384 593 384 677 457 c 0
 740 511 784 600 784 708 c 0
 784 816 740 905 677 959 c 0
 593 1032 487 1032 405 1032 c 2
 256 1032 l 1
EndSplineSet
Validated: 1
Layer: 2
Layer: 3
Layer: 4
EndChar
StartChar: germandbls
Encoding: 223 223 130
GlifName: germandbls
Width: 1024
VWidth: 0
Flags: W
HStem: -16 120<454.253 643.37> 0 21G<192 320> 772 120<498 602.085> 1304 120<383.553 598.008>
VStem: 192 128<0 1239.44> 660 128<953.364 1234.83> 736 128<217.535 647.499>
LayerCount: 5
Back
Fore
SplineSet
666 833 m 1x7c
 824 779 864 646 864 438 c 0
 864 178 777 -16 548 -16 c 0
 507 -16 469 -10 440 -5 c 1
 456 113 l 1
 482 108 510 104 528 104 c 0
 708 104 736 264 736 438 c 0xba
 736 631 685 772 498 772 c 1
 498 892 l 1
 612 892 660 969 660 1098 c 0
 660 1227 602 1304 498 1304 c 0
 356 1304 320 1218 320 1078 c 2
 320 0 l 1
 192 0 l 1
 192 1078 l 2
 192 1278 289 1424 498 1424 c 0
 676 1424 788 1283 788 1098 c 0
 788 991 768 893 666 843 c 1
 666 833 l 1x7c
EndSplineSet
Validated: 1
Layer: 2
SplineSet
320 0 m 5
 320 1196 l 5
 320 1288.5482934 332 1356 389 1414 c 4
 436 1462 504.720168777 1492 592 1492 c 4
 742.79971591 1492 848 1387.04971591 848 1236 c 4
 848 1084.95028409 742.79971591 980 592 980 c 1028
EndSplineSet
Layer: 3
Layer: 4
EndChar
StartChar: adieresis
Encoding: 228 228 135
GlifName: adieresis
Width: 1024
VWidth: 0
Flags: W
HStem: -16 120<422.036 653.339> 0 21G<768 896> 512 110<427.031 768> 920 120<324.118 734.871> 1200 224<264.237 439.763 712.237 887.763>
VStem: 224 128<173.31 436.002> 240 224<1224.24 1399.76> 688 224<1224.24 1399.76> 768 128<0 123 224.913 512 622 886.778>
LayerCount: 5
Back
Fore
SplineSet
768 512 m 1xbc80
 572 512 l 2
 517 512 459 512 408 458 c 0
 372 420 352 362 352 303 c 0
 352 194 417 104 532 104 c 0
 761.8125 104 768 341.336914062 768 471 c 2
 768 512 l 1xbc80
608 1040 m 0
 704 1040 805 1021 866 913 c 0
 896 860 896 785 896 749 c 2
 896 0 l 1
 768 0 l 1x7c80
 768 123 l 1
 758 123 l 1
 694 35 617 -16 508 -16 c 0
 349.825195312 -16 224 116.146484375 224 301 c 0
 224 383 249 470 312 533 c 0
 402 622 512 622 574 622 c 2
 768 622 l 1
 768 744 l 2
 768 788 768 831 750 862 c 0
 729 898 696 920 608 920 c 0
 520 920 408 910 320 899 c 1
 320 1021 l 1
 407 1031 516 1040 608 1040 c 0
800 1424 m 0
 866 1424 912 1378 912 1312 c 0
 912 1246 866 1200 800 1200 c 0
 734 1200 688 1246 688 1312 c 0x39
 688 1378 734 1424 800 1424 c 0
352 1424 m 0x3c
 418 1424 464 1378 464 1312 c 0x3a
 464 1246 418 1200 352 1200 c 0x3c
 286 1200 240 1246 240 1312 c 0x3a
 240 1378 286 1424 352 1424 c 0x3c
EndSplineSet
Validated: 1
Layer: 2
Layer: 3
Layer: 4
EndChar
StartChar: aring
Encoding: 229 229 136
GlifName: aring
Width: 1024
VWidth: 0
Flags: W
HStem: -16 120<364.964 576.666> 0 21G<704 832> 512 110<368.381 704> 899 122<256 325.75> 920 120<428.085 597.365> 1296 100<427.86 596.14>
VStem: 160 128<180.598 428.043> 284 108<1073.24 1262.71> 632 108<1073.42 1262.71> 704 128<0 123 238.75 512 622 881.269>
LayerCount: 5
Back
Fore
SplineSet
512 1296 m 0x2d80
 442 1296 392 1251 392 1168 c 0
 392 1085 442 1040 512 1040 c 0
 582 1040 632 1085 632 1168 c 0
 632 1251 582 1296 512 1296 c 0x2d80
512 1396 m 0
 647 1396 740 1295 740 1168 c 0x3580
 740 1110 720 1057 686 1017 c 1
 731 999 772 967 802 913 c 0
 832 860 832 785 832 749 c 2
 832 0 l 1
 704 0 l 1x7440
 704 123 l 1
 694 123 l 1
 630 35 553 -16 444 -16 c 0
 286 -16 160 116 160 301 c 0
 160 383 185 470 248 533 c 0
 338 622 448 622 510 622 c 2
 704 622 l 1
 704 744 l 2
 704 788 704 831 686 862 c 0
 665 898 632 920 544 920 c 0xae40
 456 920 344 910 256 899 c 1
 256 1021 l 1x3640
 279 1024 304 1027 329 1029 c 1
 301 1067 284 1115 284 1168 c 0
 284 1295 377 1396 512 1396 c 0
704 512 m 1xa640
 508 512 l 2
 453 512 395 512 344 458 c 0
 308 420 288 362 288 303 c 0
 288 194 353 104 468 104 c 0
 698 104 704 341 704 471 c 2
 704 512 l 1xa640
EndSplineSet
Validated: 1
Layer: 2
Layer: 3
Layer: 4
EndChar
StartChar: ae
Encoding: 230 230 137
GlifName: ae
Width: 1024
VWidth: 0
Flags: W
HStem: -16 120<215.39 366.99 663.212 957.063> 512 120<212.607 448 577 863> 924 120<67.5574 407.897 656.719 793.573>
VStem: 32 128<165.705 447.712> 448 128<212.621 512 632 818.663> 863 127<632 834.447>
LayerCount: 5
Back
Fore
SplineSet
160 309 m 0
 160 215 196 104 284 104 c 0
 354 104 411 171 430 230 c 0
 448 286 448 351 448 421 c 2
 448 512 l 1
 313 512 l 2
 250 512 229 503 203 466 c 0
 174 424 160 367 160 309 c 0
510 148 m 1
 463 49 385 -16 284 -16 c 0
 113 -16 32 144 32 309 c 0
 32 443 87 565 189 611 c 0
 231 630 273 632 306 632 c 2
 448 632 l 1
 448 748 l 2
 448 862 428 924 288 924 c 0
 242 924 140 914 64 904 c 1
 64 1026 l 1
 139 1035 239 1044 288 1044 c 0
 376 1044 469 1034 529 907 c 1
 539 907 l 1
 580 990 641 1040 726 1040 c 0
 864 1040 943 917 971 802 c 0
 990 725 990 649 990 577 c 2
 990 512 l 1
 576 512 l 1
 576 469 l 2
 576 289 590 104 768 104 c 0
 824 104 898 119 960 129 c 1
 960 7 l 1
 897 -3 827 -16 765 -16 c 0
 660 -16 572 34 520 148 c 1
 510 148 l 1
863 632 m 1
 861 729 848 817 811 873 c 0
 788 902 760 920 726 920 c 0
 653 920 612 842 594 773 c 0
 582 729 578 682 577 632 c 1
 863 632 l 1
EndSplineSet
Validated: 1
Layer: 2
Layer: 3
Layer: 4
EndChar
StartChar: ccedilla
Encoding: 231 231 138
GlifName: ccedilla
Width: 1024
VWidth: 0
Flags: W
HStem: -400 120<386.225 605.949> -16 120<460.624 637.178> 920 120<460.362 871.765>
VStem: 224 128<227.883 796.117> 640 128<-233.261 -16>
LayerCount: 5
Back
Fore
SplineSet
768 -105 m 2
 768 -165 768 -235 716 -305 c 0
 674 -362 602 -400 512 -400 c 0
 477 -400 431 -393 384 -383 c 1
 384 -260 l 1
 432 -271 478 -280 512 -280 c 0
 559 -280 591 -263 612 -235 c 0
 640 -198 640 -155 640 -105 c 2
 640 -16 l 1
 629 -16 617 -16 606 -16 c 0
 418 -16 317 78 267 193 c 0
 226 286 224 391 224 512 c 0
 224 633 226 738 267 831 c 0
 317 946 418 1040 606 1040 c 0
 709 1040 786 1032 876 1023 c 1
 876 903 l 1
 785 912 702 920 606 920 c 0
 486 920 427 872 387 789 c 0
 352 716 352 614 352 512 c 0
 352 410 352 308 387 235 c 0
 427 152 486 104 606 104 c 0
 701 104 796 115 896 130 c 1
 896 10 l 1
 852 3 810 -3 768 -7 c 1
 768 -105 l 2
EndSplineSet
Validated: 1
Layer: 2
Layer: 3
Layer: 4
EndChar
StartChar: icircumflex
Encoding: 238 238 145
GlifName: icircumflex
Width: 1024
VWidth: 0
Flags: W
HStem: 0 120<256 512 640 896> 904 120<256 512> 1388 20G<473.797 678.203>
VStem: 512 128<120 904>
LayerCount: 5
Back
Fore
SplineSet
497 1408 m 1
 655 1408 l 1
 952 1152 l 1
 794 1152 l 1
 576 1316 l 1
 358 1152 l 1
 200 1152 l 1
 497 1408 l 1
256 0 m 1
 256 120 l 1
 512 120 l 1
 512 904 l 1
 256 904 l 1
 256 1024 l 1
 640 1024 l 1
 640 120 l 1
 896 120 l 1
 896 0 l 1
 256 0 l 1
EndSplineSet
Validated: 1
Layer: 2
Layer: 3
Layer: 4
EndChar
StartChar: eth
Encoding: 240 240 147
GlifName: eth
Width: 1024
VWidth: 0
Flags: W
HStem: -16 120<395.47 631.496> 792 120<389.5 611.905> 1035 21G<328.667 371.606> 1397 20G<734.526 777.333>
VStem: 160 128<220.694 679.259> 736 128<220.694 684.484>
LayerCount: 5
Back
Fore
SplineSet
342 1035 m 1
 298 1101 l 1
 476 1222 l 1
 425 1274 368 1317 307 1350 c 1
 349 1428 l 1
 433 1390 506 1342 568 1284 c 1
 764 1417 l 1
 808 1351 l 1
 624 1226 l 1
 802 1043 864 778 864 448 c 0
 864 351 861 274 830 195 c 0
 784 80 672 -16 532 -16 c 0
 342 -16 241 78 194 195 c 0
 162 274 160 351 160 448 c 0
 160 545 164 625 190 701 c 0
 229 817 335 912 492 912 c 0
 579 912 634 873 690 810 c 1
 700 810 l 1
 674 944 615 1063 530 1162 c 1
 342 1035 l 1
512 792 m 0
 411 792 342 740 314 661 c 0
 294 603 288 526 288 448 c 0
 288 370 290 295 314 235 c 0
 346 156 416 104 512 104 c 0
 608 104 678 156 710 235 c 0
 734 295 736 370 736 448 c 0
 736 526 736 604 714 661 c 0
 684 740 613 792 512 792 c 0
EndSplineSet
Validated: 1
Layer: 2
SplineSet
864 202 m 5
 864 512 l 6
 864 705.208007812 855.663085938 903.294921875 780.227539062 1081.16796875 c 4
 704.791015625 1259.04101562 564.948242188 1410.00878906 390 1492 c 1028
  Spiro
    864 202 {
    864 512 ]
    390 1492 o
    0 0 z
  EndSpiro
EndSplineSet
Layer: 3
Layer: 4
EndChar
StartChar: divide
Encoding: 247 247 154
GlifName: divide
Width: 1024
VWidth: 0
Flags: W
HStem: 112 224<429.423 594.577> 516 120<64 960> 816 224<429.423 594.577>
VStem: 400 224<141.423 306.577 845.423 1010.58>
CounterMasks: 1 e0
LayerCount: 5
Back
Fore
SplineSet
960 636 m 1
 960 516 l 1
 64 516 l 1
 64 636 l 1
 960 636 l 1
512 336 m 0
 578 336 624 290 624 224 c 0
 624 158 578 112 512 112 c 0
 446 112 400 158 400 224 c 0
 400 290 446 336 512 336 c 0
512 1040 m 0
 578 1040 624 994 624 928 c 0
 624 862 578 816 512 816 c 0
 446 816 400 862 400 928 c 0
 400 994 446 1040 512 1040 c 0
EndSplineSet
Validated: 1
Layer: 2
Layer: 3
Layer: 4
EndChar
StartChar: oslash
Encoding: 248 248 155
GlifName: oslash
Width: 1024
VWidth: 0
Flags: W
HStem: -16 120<396.973 628.467> 920 120<395.533 627.027>
VStem: 160 128<296.118 792.875> 736 128<231.125 727.882>
LayerCount: 5
Back
Fore
SplineSet
349 183 m 1
 385 134 439 104 512 104 c 0
 608 104 672 156 704 235 c 0
 734 310 736 410 736 512 c 0
 736 589 735 666 721 731 c 1
 349 183 l 1
810 861 m 1
 860 765 864 646 864 512 c 0
 864 391 862 290 824 195 c 0
 778 79 672 -16 512 -16 c 0
 412 -16 333 21 277 77 c 1
 205 -28 l 1
 123 28 l 1
 214 163 l 1
 164 259 160 378 160 512 c 0
 160 633 162 734 200 829 c 0
 246 945 352 1040 512 1040 c 0
 612 1040 691 1003 747 947 c 1
 819 1052 l 1
 901 996 l 1
 810 861 l 1
512 920 m 0
 416 920 352 868 320 789 c 0
 290 714 288 614 288 512 c 0
 288 435 289 358 303 293 c 1
 675 841 l 1
 639 890 585 920 512 920 c 0
EndSplineSet
Validated: 1
Layer: 2
Layer: 3
Layer: 4
EndChar
StartChar: thorn
Encoding: 254 254 161
GlifName: thorn
Width: 1024
VWidth: 0
Flags: W
HStem: -16 120<436.004 626.093> 920 120<436.004 626.093> 1388 20G<192 320>
VStem: 192 128<-384 125 237.626 786.374 899 1408> 736 128<237.748 786.252>
LayerCount: 5
Back
Fore
SplineSet
528 104 m 0
 624 104 684 177 710 256 c 0
 735 332 736 420 736 512 c 0
 736 604 735 692 710 768 c 0
 684 847 624 920 528 920 c 0
 432 920 372 847 346 768 c 0
 321 692 320 604 320 512 c 0
 320 420 321 332 346 256 c 0
 372 177 432 104 528 104 c 0
548 -16 m 0
 465 -16 389 33 330 125 c 1
 320 125 l 1
 320 -384 l 1
 192 -384 l 1
 192 1408 l 1
 320 1408 l 1
 320 899 l 1
 330 899 l 1
 389 991 465 1040 548 1040 c 0
 679 1040 789 953 836 803 c 0
 864 713 864 624 864 512 c 0
 864 400 864 311 836 221 c 0
 789 71 679 -16 548 -16 c 0
EndSplineSet
Validated: 1
Layer: 2
Layer: 3
Layer: 4
EndChar
StartChar: ydieresis
Encoding: 255 255 162
GlifName: ydieresis
Width: 1024
VWidth: 0
Flags: W
HStem: -400 120<256 447.574> 1004 20G<204 365 788 948> 1162 224<264.237 439.763 712.237 887.763>
VStem: 204 131<848.307 1024> 240 224<1186.24 1361.76> 688 224<1186.24 1361.76> 817 131<838.556 1024>
LayerCount: 5
Back
Fore
SplineSet
608 115 m 1xf2
 696 414 759 717 817 1024 c 1
 948 1024 l 1
 878 655 812 351 677 -73 c 0
 644 -177 608 -271 547 -321 c 0
 492 -367 411 -400 256 -400 c 1
 256 -280 l 1
 338 -280 418 -266 453 -239 c 0
 500 -203 520 -140 568 0 c 1
 517 0 l 1
 360 326 273 676 204 1024 c 1
 335 1024 l 1
 395 711 472 400 598 115 c 1
 608 115 l 1xf2
800 1386 m 0
 866 1386 912 1340 912 1274 c 0
 912 1208 866 1162 800 1162 c 0
 734 1162 688 1208 688 1274 c 0xe4
 688 1340 734 1386 800 1386 c 0
352 1386 m 0
 418 1386 464 1340 464 1274 c 0
 464 1208 418 1162 352 1162 c 0
 286 1162 240 1208 240 1274 c 0xe8
 240 1340 286 1386 352 1386 c 0
EndSplineSet
Validated: 1
Layer: 2
Layer: 3
Layer: 4
EndChar
StartChar: Aogonek
Encoding: 260 260 165
GlifName: A_ogonek
Width: 1024
VWidth: 0
Flags: W
HStem: -350 120<848.904 980> 0 21G<39 179.5> 388 120<250 774> 1388 20G<325 699>
VStem: 39 135<0 253.02> 717 121<-217.883 -85.829>
LayerCount: 5
Back
Fore
SplineSet
916 -230 m 0
 939 -230 960 -229 980 -225 c 1
 980 -345 l 1
 954 -349 926 -350 896 -350 c 0
 816 -350 717 -287 717 -185 c 0
 717 -97 787 -39 850 0 c 1
 839 136 819 265 795 388 c 1
 229 388 l 1
 210 265 185 136 174 0 c 1
 39 0 l 1
 92 496 203 971 447 1408 c 1
 577 1408 l 1
 821 971 932 496 985 0 c 1
 884 -48 838 -90 838 -158 c 0
 838 -211 881 -230 916 -230 c 0
774 508 m 1
 706 796 633 1054 517 1279 c 1
 507 1279 l 1
 391 1054 318 796 250 508 c 1
 774 508 l 1
EndSplineSet
Validated: 1
Layer: 2
Layer: 3
Layer: 4
EndChar
StartChar: aogonek
Encoding: 261 261 166
GlifName: aogonek
Width: 1024
VWidth: 0
Flags: W
HStem: -350 120<760.763 896> -16 120<417.036 655.268> 512 110<422.571 768> 920 120<324.118 738.253>
VStem: 224 128<171.489 439.897> 633 121<-222.015 -76.6042> 768 128<-21.8491 123 217.98 512 622 889.505>
LayerCount: 5
Back
Fore
SplineSet
832 -230 m 4
 855 -230 876 -229 896 -225 c 5
 896 -345 l 5
 870 -349 842 -350 812 -350 c 4
 732 -350 633 -287 633 -185 c 4
 633 -97 704 -39 768 0 c 5
 768 123 l 5
 758 123 l 5
 694 35 617 -16 508 -16 c 4
 350 -16 224 116 224 301 c 4
 224 383 249 470 312 533 c 4
 402 622 512 622 574 622 c 6
 768 622 l 5
 768 744 l 6
 768 788 768 831 750 862 c 4
 729 898 696 920 608 920 c 4
 520 920 408 910 320 899 c 5
 320 1021 l 5
 407 1031 516 1040 608 1040 c 4
 704 1040 805 1021 866 913 c 4
 896 860 896 785 896 749 c 6
 896 0 l 5
 798 -48 754 -90 754 -158 c 4
 754 -211 797 -230 832 -230 c 4
768 512 m 5
 572 512 l 6
 517 512 459 512 408 458 c 4
 372 420 352 362 352 303 c 4
 352 194 417 104 532 104 c 4
 762 104 768 341 768 471 c 6
 768 512 l 5
EndSplineSet
Validated: 1
Layer: 2
Layer: 3
Layer: 4
EndChar
StartChar: Ccircumflex
Encoding: 264 264 173
GlifName: C_circumflex
Width: 1024
VWidth: 0
Flags: W
HStem: -16 120<460.351 1018.56> 1048 120<454.463 1006.1>
VStem: 112 128<345.26 811.839>
LayerCount: 5
Back
Fore
SplineSet
653 -16 m 0
 303.540039062 -16 112 213 112 576 c 0
 112 939 300 1168 643 1168 c 0
 791.12109375 1168 906.9921875 1155.70117188 1011 1141 c 1
 1011 1021 l 1
 906.12890625 1035.20703125 789.189453125 1048 643 1048 c 0
 370 1048 240 870 240 576 c 0
 240 282 373.225585938 104 653 104 c 0
 771.797851562 104 906.17578125 118.243164062 1024 135 c 1
 1024 15 l 1
 910.071289062 -1.7568359375 783.483398438 -16 653 -16 c 0
497 1536 m 1
 655 1536 l 1
 952 1280 l 1
 794 1280 l 1
 576 1443.96289062 l 1
 358 1280 l 1
 200 1280 l 1
 497 1536 l 1
EndSplineSet
Validated: 1
Layer: 2
Layer: 3
Layer: 4
EndChar
StartChar: Cdotaccent
Encoding: 266 266 175
GlifName: C_dotaccent
Width: 1024
VWidth: 0
Flags: W
HStem: -16 120<460.351 1018.56> 1048 120<454.463 1006.1> 1328 224<488.237 663.763>
VStem: 112 128<345.26 811.839> 464 224<1352.24 1527.76>
LayerCount: 5
Back
Fore
SplineSet
653 -16 m 0
 303.540039062 -16 112 213 112 576 c 0
 112 939 300 1168 643 1168 c 0
 791.12109375 1168 906.9921875 1155.70117188 1011 1141 c 1
 1011 1021 l 1
 906.12890625 1035.20703125 789.189453125 1048 643 1048 c 0
 370 1048 240 870 240 576 c 0
 240 282 373.225585938 104 653 104 c 0
 771.797851562 104 906.17578125 118.243164062 1024 135 c 1
 1024 15 l 1
 910.071289062 -1.7568359375 783.483398438 -16 653 -16 c 0
576 1552 m 0
 642 1552 688 1506 688 1440 c 0
 688 1374 642 1328 576 1328 c 0
 510 1328 464 1374 464 1440 c 0
 464 1506 510 1552 576 1552 c 0
EndSplineSet
Validated: 1
Layer: 2
Layer: 3
Layer: 4
EndChar
StartChar: dcaron
Encoding: 271 271 180
GlifName: dcaron
Width: 1024
VWidth: 0
Flags: W
HStem: -16 120<333.907 523.996> 0 21G<640 768> 920 120<333.907 523.996> 1024 21G<896 1024> 1388 20G<640 768 896 1024>
VStem: 96 128<237.748 786.252> 640 128<0 125 237.626 786.374 899 1408> 896 128<1024 1408>
LayerCount: 5
Back
Fore
SplineSet
896 1408 m 5x1f
 1024 1408 l 5
 1024 1024 l 5
 896 1024 l 5
 896 1408 l 5x1f
412 1040 m 4xaf
 495 1040 571 991 630 899 c 5
 640 899 l 5
 640 1408 l 5
 768 1408 l 5
 768 0 l 5
 640 0 l 5x6f
 640 125 l 5
 630 125 l 5
 571 33 495 -16 412 -16 c 4
 281 -16 171 71 124 221 c 4
 96 311 96 400 96 512 c 4
 96 624 96 713 124 803 c 4
 171 953 281 1040 412 1040 c 4xaf
432 920 m 4
 336 920 276 847 250 768 c 4
 225 692 224 604 224 512 c 4
 224 420 225 332 250 256 c 4
 276 177 336 104 432 104 c 4xaf
 528 104 588 177 614 256 c 4
 639 332 640 420 640 512 c 4
 640 604 639 692 614 768 c 4
 588 847 528 920 432 920 c 4
EndSplineSet
Validated: 1
Layer: 2
Layer: 3
Layer: 4
EndChar
StartChar: dcroat
Encoding: 273 273 182
GlifName: dcroat
Width: 1024
VWidth: 0
Flags: W
HStem: -16 120<393.879 588.787> 0 21G<704 832> 792 120<393.879 588.787> 1156 120<320 704 832 960> 1388 20G<704 832>
VStem: 160 128<225.58 670.42> 704 128<0 125 226.787 669.213 771 1156 1276 1408>
LayerCount: 5
Back
SplineSet
768 0 m 5x7e
 768 125 l 5
 758 124.923828125 l 5
 702.865234375 39.530273438 627.350585938 -16 540 -16 c 4xbe
 459.083007812 -16 389.451097999 16.0956276581 339.4765625 65.0166015625 c 4
 255.03125 147.681640625 224 275.4140625 224 448 c 4
 224 620.586003068 255.031076693 748.318525193 339.4765625 830.983398438 c 4
 389.451441889 879.90451045 459.083291858 912 540 912 c 4
 627.350913646 912 702.864794755 856.469627397 758 771.076171875 c 5
 768 771 l 5
 768 1156 l 5
 384 1156 l 5
 384 1276 l 5
 768 1276 l 5
 768 1408 l 5
 896 1408 l 5
 896 1276 l 5
 1024 1276 l 5
 1024 1156 l 5
 896 1156 l 5
 896 0 l 5
 768 0 l 5x7e
352 448 m 4
 352 314.977539062 370.987304688 211.76171875 437.3125 150.497070312 c 4
 468.659239064 121.542056469 510.115234375 104 560 104 c 4
 609.884765625 104 651.33984375 121.54296875 682.6875 150.497070312 c 4
 749.014631288 211.759784193 768 314.977539062 768 448 c 4
 768 581.022460938 749.014648439 684.240234375 682.6875 745.502929688 c 4
 651.339875866 774.456985324 609.884765625 792 560 792 c 4
 510.115186908 792 468.659257859 774.458040853 437.3125 745.502929688 c 4
 370.98752797 684.23831831 352 581.022464868 352 448 c 4
EndSplineSet
Fore
SplineSet
476 912 m 0xbe
 559 912 635 863 694 771 c 1
 704 771 l 1
 704 1156 l 1
 320 1156 l 1
 320 1276 l 1
 704 1276 l 1
 704 1408 l 1
 832 1408 l 1
 832 1276 l 1
 960 1276 l 1
 960 1156 l 1
 832 1156 l 1
 832 0 l 1
 704 0 l 1x7e
 704 125 l 1
 694 125 l 1
 635 33 559 -16 476 -16 c 0
 345 -16 230 71 183 221 c 0
 160 293 160 361 160 448 c 0
 160 535 160 603 183 675 c 0
 230 825 345 912 476 912 c 0xbe
496 792 m 0
 400 792 335 719 309 640 c 0
 290 581 288 517 288 448 c 0
 288 379 290 315 309 256 c 0
 335 177 400 104 496 104 c 0xbe
 592 104 657 177 683 256 c 0
 702 315 704 379 704 448 c 0
 704 517 702 581 683 640 c 0
 657 719 592 792 496 792 c 0
EndSplineSet
Validated: 1
Layer: 2
Layer: 3
Layer: 4
EndChar
StartChar: Eogonek
Encoding: 280 280 163
GlifName: E_ogonek
Width: 1024
VWidth: 0
Flags: W
HStem: -338 120<508.904 640> 0 120<256 494 563.812 896> 648 120<256 768> 1288 120<256 896>
VStem: 128 128<120 648 768 1288> 377 121<-205.883 -76.7613>
LayerCount: 5
Back
Fore
SplineSet
576 -218 m 0
 599 -218 620 -217 640 -213 c 1
 640 -333 l 1
 614 -337 586 -338 556 -338 c 0
 476 -338 377 -275 377 -173 c 0
 377 -93 436 -39 494 0 c 1
 128 0 l 1
 128 1408 l 1
 896 1408 l 1
 896 1288 l 1
 256 1288 l 1
 256 768 l 1
 768 768 l 1
 768 648 l 1
 256 648 l 1
 256 120 l 1
 896 120 l 1
 896 0 l 1
 617 0 l 1
 535 -43 498 -84 498 -146 c 0
 498 -199 541 -218 576 -218 c 0
EndSplineSet
Validated: 1
Layer: 2
Layer: 3
Layer: 4
EndChar
StartChar: eogonek
Encoding: 281 281 164
GlifName: eogonek
Width: 1024
VWidth: 0
Flags: W
HStem: -395 120<777.947 896> -16 120<457.677 745.913> 512 120<354 798> 920 120<444.809 707.191>
VStem: 224 128<219.686 512 632 819.315> 640 128<-267.685 -80.7738> 798 130<632 821.54>
LayerCount: 5
Back
Fore
SplineSet
837 -275 m 0
 858 -275 878 -272 896 -263 c 1
 896 -384 l 1
 872 -393 845 -395 817 -395 c 0
 738 -395 640 -320 640 -200 c 0
 640 -113 693 -53 748 -10 c 1
 697 -14 647 -16 596 -16 c 0
 422 -16 311 77 264 193 c 0
 226 286 224 391 224 512 c 0
 224 637 225 747 261 839 c 0
 303 951 414 1040 576 1040 c 0
 738 1040 849 951 891 839 c 0
 927 747 928 637 928 512 c 1
 352 512 l 1
 352 410 352 308 384 235 c 0
 421 151 490 104 596 104 c 0
 689 104 791 113 896 125 c 1
 896 5 l 1
 808 -55 768 -108 768 -193 c 0
 768 -253 806 -275 837 -275 c 0
576 920 m 0
 479 920 410 874 381 799 c 0
 360 751 357 693 354 632 c 1
 798 632 l 1
 795 693 792 751 771 799 c 0
 742 874 673 920 576 920 c 0
EndSplineSet
Validated: 1
Layer: 2
SplineSet
352 512 m 5
 352 410 352 308 384 235 c 4
 420 152 485 104 586 104 c 4
 682 104 788 121 896 148 c 5
 896 25 l 5
 789 -1 689 -16 586 -16 c 4
 417 -16 311 78 264 193 c 4
 226 286 224 391 224 512 c 4
 224 633 226 734 264 829 c 4
 310 945 416 1040 576 1040 c 4
 736 1040 842 945 888 829 c 4
 926 734 928 633 928 512 c 5
 352 512 l 5
797 632 m 5
 794 690 786 744 768 789 c 4
 736 868 672 920 576 920 c 4
 480 920 416 868 384 789 c 4
 366 744 358 690 355 632 c 5
 797 632 l 5
EndSplineSet
Layer: 3
Layer: 4
EndChar
StartChar: Gcircumflex
Encoding: 284 284 191
GlifName: G_circumflex
Width: 1024
VWidth: 0
Flags: W
HStem: -16 120<454.463 894.218> 520 120<640 896> 1048 120<454.463 1006.1>
VStem: 112 128<340.161 811.839> 896 128<128 520>
LayerCount: 5
Back
Fore
SplineSet
896 128 m 1
 896 520 l 1
 640 520 l 1
 640 640 l 1
 1024 640 l 1
 1024 33 l 1
 907 8.384765625 787 -16 643 -16 c 0
 300 -16 112 213 112 576 c 0
 112 939 300 1168 643 1168 c 0
 791.12109375 1168 906.9921875 1155.70117188 1011 1141 c 1
 1011 1021 l 1
 906.12890625 1035.20703125 789.189453125 1048 643 1048 c 0
 370 1048 240 870 240 576 c 0
 240 282 370 104 643 104 c 0
 735.12109375 104 817.141601562 114.616210938 896.432617188 127.692382812 c 1
 896 128 l 1
497 1536 m 1
 655 1536 l 1
 952 1280 l 1
 794 1280 l 1
 576 1443.96289062 l 1
 358 1280 l 1
 200 1280 l 1
 497 1536 l 1
EndSplineSet
Validated: 1
Layer: 2
Layer: 3
Layer: 4
EndChar
StartChar: gcircumflex
Encoding: 285 285 192
GlifName: gcircumflex
Width: 1024
VWidth: 0
Flags: W
HStem: -400 120<302.991 670.834> -16 120<451.69 661.932> 920 120<451.69 661.932> 1004 20G<768 896> 1388 20G<473.797 678.203>
VStem: 224 128<224.216 799.784> 768 128<-171.858 125 223.214 800.786 899 1024>
LayerCount: 5
Back
Fore
SplineSet
560 920 m 0xee
 464 920 404 847 378 768 c 0
 353 692 352 604 352 512 c 0
 352 420 353 332 378 256 c 0
 404 177 464 104 560 104 c 0
 656 104 716 177 742 256 c 0
 767 332 768 420 768 512 c 0
 768 604 767 692 742 768 c 0
 716 847 656 920 560 920 c 0xee
540 1040 m 0
 623 1040 699 991 758 899 c 1
 768 899 l 1
 768 1024 l 1
 896 1024 l 1xde
 896 32 l 2
 896 -28 896 -139 835 -241 c 0
 780 -333 684 -400 536 -400 c 0
 446 -400 364 -393 300 -385 c 1
 300 -265 l 1
 363 -272 447 -280 536 -280 c 0
 632 -280 687 -241 724 -182 c 0
 768 -111 768 -15 768 32 c 2
 768 125 l 1
 758 125 l 1
 699 33 623 -16 540 -16 c 0
 409 -16 299 71 252 221 c 0
 224 311 224 400 224 512 c 0
 224 624 224 713 252 803 c 0
 299 953 409 1040 540 1040 c 0
497 1408 m 1
 655 1408 l 1
 952 1152 l 1
 794 1152 l 1
 576 1316 l 1
 358 1152 l 1
 200 1152 l 1
 497 1408 l 1
EndSplineSet
Validated: 1
Layer: 2
Layer: 3
Layer: 4
EndChar
StartChar: Gbreve
Encoding: 286 286 193
GlifName: G_breve
Width: 1024
VWidth: 0
Flags: W
HStem: -16 120<454.463 894.218> 520 120<640 896> 1048 120<454.463 1006.1> 1264 120<425.79 726.21>
VStem: 112 128<340.161 811.839> 236 128<1441.86 1536> 788 128<1441.86 1536> 896 128<128 520>
LayerCount: 5
Back
Fore
SplineSet
896 128 m 1xf9
 896 520 l 1
 640 520 l 1
 640 640 l 1
 1024 640 l 1
 1024 33 l 1
 907 8.384765625 787 -16 643 -16 c 0
 300 -16 112 213 112 576 c 0
 112 939 300 1168 643 1168 c 0
 791.12109375 1168 906.9921875 1155.70117188 1011 1141 c 1
 1011 1021 l 1
 906.12890625 1035.20703125 789.189453125 1048 643 1048 c 0
 370 1048 240 870 240 576 c 0
 240 282 370 104 643 104 c 0
 735.12109375 104 817.141601562 114.616210938 896.432617188 127.692382812 c 1
 896 128 l 1xf9
788 1536 m 1xf6
 916 1536 l 1
 916 1367.94628906 764.259765625 1264 576 1264 c 0
 387.739257812 1264 236 1367.94433594 236 1536 c 1
 364 1536 l 1
 364 1449.65527344 433.061523438 1384 576 1384 c 0
 718.939453125 1384 788 1449.65332031 788 1536 c 1xf6
EndSplineSet
Validated: 1
Layer: 2
Layer: 3
Layer: 4
EndChar
StartChar: gbreve
Encoding: 287 287 194
GlifName: gbreve
Width: 1024
VWidth: 0
Flags: W
HStem: -400 120<302.991 670.834> -16 120<451.69 661.932> 920 120<451.69 661.932> 1004 20G<768 896> 1136 120<425.835 726.165> 1388 20G<236 364 788 916>
VStem: 224 128<224.216 799.784 1327.25 1408> 768 128<-171.858 125 223.214 800.786 899 1024> 788 128<1313.88 1408>
LayerCount: 5
Back
Fore
SplineSet
560 920 m 0xef
 464 920 404 847 378 768 c 0
 353 692 352 604 352 512 c 0
 352 420 353 332 378 256 c 0
 404 177 464 104 560 104 c 0
 656 104 716 177 742 256 c 0
 767 332 768 420 768 512 c 0
 768 604 767 692 742 768 c 0
 716 847 656 920 560 920 c 0xef
540 1040 m 0
 623 1040 699 991 758 899 c 1
 768 899 l 1
 768 1024 l 1
 896 1024 l 1xdf
 896 32 l 2
 896 -28 896 -139 835 -241 c 0
 780 -333 684 -400 536 -400 c 0
 446 -400 364 -393 300 -385 c 1
 300 -265 l 1
 363 -272 447 -280 536 -280 c 0
 632 -280 687 -241 724 -182 c 0
 768 -111 768 -15 768 32 c 2
 768 125 l 1
 758 125 l 1
 699 33 623 -16 540 -16 c 0
 409 -16 299 71 252 221 c 0
 224 311 224 400 224 512 c 0
 224 624 224 713 252 803 c 0
 299 953 409 1040 540 1040 c 0
788 1408 m 1xce80
 916 1408 l 1
 916 1240 764 1136 576 1136 c 0
 388 1136 236 1240 236 1408 c 1
 364 1408 l 1
 364 1322 433 1256 576 1256 c 0
 719 1256 788 1322 788 1408 c 1xce80
EndSplineSet
Validated: 1
Layer: 2
Layer: 3
Layer: 4
EndChar
StartChar: Gdotaccent
Encoding: 288 288 195
GlifName: G_dotaccent
Width: 1024
VWidth: 0
Flags: W
HStem: -16 120<454.463 894.218> 520 120<640 896> 1048 120<454.463 1006.1> 1328 224<488.237 663.763>
VStem: 112 128<340.161 811.839> 464 224<1352.24 1527.76> 896 128<128 520>
LayerCount: 5
Back
Fore
SplineSet
896 128 m 1
 896 520 l 1
 640 520 l 1
 640 640 l 1
 1024 640 l 1
 1024 33 l 1
 907 8.384765625 787 -16 643 -16 c 0
 300 -16 112 213 112 576 c 0
 112 939 300 1168 643 1168 c 0
 791.12109375 1168 906.9921875 1155.70117188 1011 1141 c 1
 1011 1021 l 1
 906.12890625 1035.20703125 789.189453125 1048 643 1048 c 0
 370 1048 240 870 240 576 c 0
 240 282 370 104 643 104 c 0
 735.12109375 104 817.141601562 114.616210938 896.432617188 127.692382812 c 1
 896 128 l 1
576 1552 m 0
 642 1552 688 1506 688 1440 c 0
 688 1374 642 1328 576 1328 c 0
 510 1328 464 1374 464 1440 c 0
 464 1506 510 1552 576 1552 c 0
EndSplineSet
Validated: 1
Layer: 2
Layer: 3
Layer: 4
EndChar
StartChar: uni0122
Encoding: 290 290 271
GlifName: uni0122
Width: 1024
VWidth: 0
Flags: W
HStem: -528 120<512 605.023> -16 120<456.029 892.627> 648 120<640 896> 1304 120<472.412 969.539>
VStem: 112 128<357.031 1045.85> 640 128<-361.261 -128> 896 128<122.036 648>
LayerCount: 5
Back
Fore
SplineSet
673 1424 m 0
 778 1424 881 1415 974 1402 c 1
 974 1282 l 1
 877 1295 769 1304 673 1304 c 0
 443 1304 313 1189 268 1016 c 0
 243 919 240 813 240 704 c 0
 240 595 243 489 268 392 c 0
 312 220 430 104 643 104 c 0
 724 104 811 113 896 128 c 1
 896 648 l 1
 640 648 l 1
 640 768 l 1
 1024 768 l 1
 1024 34 l 1
 907 6 777 -16 643 -16 c 0
 366 -16 199 142 143 364 c 0
 114 478 112 594 112 704 c 0
 112 814 114 930 143 1044 c 0
 200 1267 379 1424 673 1424 c 0
768 -233 m 2
 768 -293 768 -363 716 -433 c 0
 674 -490 602 -528 512 -528 c 1
 512 -408 l 1
 559 -408 591 -391 612 -363 c 0
 640 -326 640 -283 640 -233 c 2
 640 -128 l 1
 768 -128 l 1
 768 -233 l 2
EndSplineSet
Validated: 1
Layer: 2
Layer: 3
Layer: 4
EndChar
StartChar: hcircumflex
Encoding: 293 293 221
GlifName: hcircumflex
Width: 1024
VWidth: 0
Flags: W
HStem: 0 21G<192 320 704 832> 792 120<424.173 624.755>
VStem: 192 128<0 715.099 784 1152> 704 128<0 713.255>
LayerCount: 5
Back
Fore
SplineSet
532 912 m 0
 632 912 713 867 763 805 c 0
 832 719 832 623 832 529 c 2
 832 0 l 1
 704 0 l 1
 704 529 l 2
 704 616 704 678 659 730 c 0
 627 767 576 792 512 792 c 0
 448 792 397 767 365 730 c 0
 320 678 320 616 320 529 c 2
 320 0 l 1
 192 0 l 1
 192 1152 l 1
 320 1152 l 1
 320 784 l 1
 330 784 l 1
 379 861 456 912 532 912 c 0
433 1536 m 1
 591 1536 l 1
 888 1280 l 1
 730 1280 l 1
 512 1444 l 1
 294 1280 l 1
 136 1280 l 1
 433 1536 l 1
EndSplineSet
Validated: 1
Layer: 2
Layer: 3
Layer: 4
EndChar
StartChar: Hbar
Encoding: 294 294 222
GlifName: H_bar
Width: 1024
VWidth: 0
Flags: W
HStem: 0 21G<192 320 832 960> 641 120<320 832> 1156 120<64 192 320 832 960 1088> 1388 20G<192 320 832 960>
VStem: 192 128<0 641 761 1156 1276 1408> 832 128<0 641 761 1156 1276 1408>
AnchorPoint: "top" 576 1408 basechar 0
LayerCount: 5
Back
Fore
SplineSet
192 1408 m 1
 320 1408 l 1
 320 1276 l 1
 832 1276 l 1
 832 1408 l 1
 960 1408 l 1
 960 1276 l 1
 1088 1276 l 1
 1088 1156 l 1
 960 1156 l 1
 960 0 l 1
 832 0 l 1
 832 641 l 1
 320 641 l 1
 320 0 l 1
 192 0 l 1
 192 1156 l 1
 64 1156 l 1
 64 1276 l 1
 192 1276 l 1
 192 1408 l 1
320 1156 m 1
 320 761 l 1
 832 761 l 1
 832 1156 l 1
 320 1156 l 1
EndSplineSet
Validated: 1
Layer: 2
Layer: 3
Layer: 4
EndChar
StartChar: Iogonek
Encoding: 302 302 230
GlifName: I_ogonek
Width: 1024
VWidth: 0
Flags: W
HStem: -350 120<700.904 832> 0 120<192 448 576 704 771.864 832> 1288 120<192 448 576 832>
VStem: 448 128<120 1288> 569 121<-217.883 -88.5621>
LayerCount: 5
Back
Fore
SplineSet
768 -230 m 4xe8
 791 -230 812 -229 832 -225 c 5
 832 -345 l 5
 806 -349 778 -350 748 -350 c 4
 668 -350 569 -287 569 -185 c 4xe8
 569 -97 640 -39 704 0 c 5
 192 0 l 5
 192 120 l 5
 448 120 l 5
 448 1288 l 5
 192 1288 l 5
 192 1408 l 5
 832 1408 l 5
 832 1288 l 5
 576 1288 l 5
 576 120 l 5xf0
 832 120 l 5
 832 0 l 5
 734 -48 690 -90 690 -158 c 4
 690 -211 733 -230 768 -230 c 4xe8
EndSplineSet
Validated: 1
Layer: 2
Layer: 3
Layer: 4
EndChar
StartChar: iogonek
Encoding: 303 303 231
GlifName: iogonek
Width: 1024
VWidth: 0
Flags: W
HStem: -350 120<508.904 640> 904 120<256 512> 1200 224<461.423 626.577>
VStem: 377 121<-217.883 -88.5621> 432 224<1229.42 1394.58> 512 128<-15.5371 904>
LayerCount: 5
Back
Fore
SplineSet
576 -230 m 4xf4
 599 -230 620 -229 640 -225 c 5
 640 -345 l 5
 614 -349 586 -350 556 -350 c 4
 476 -350 377 -287 377 -185 c 4
 377 -97 448 -39 512 0 c 5
 512 904 l 5
 256 904 l 5
 256 1024 l 5
 640 1024 l 5
 640 0 l 5
 542 -48 498 -90 498 -158 c 4
 498 -211 541 -230 576 -230 c 4xf4
544 1424 m 4
 610 1424 656 1378 656 1312 c 4
 656 1246 610 1200 544 1200 c 4
 478 1200 432 1246 432 1312 c 4xe8
 432 1378 478 1424 544 1424 c 4
EndSplineSet
Validated: 1
Layer: 2
Layer: 3
Layer: 4
EndChar
StartChar: dotlessi
Encoding: 305 305 233
GlifName: dotlessi
Width: 1024
VWidth: 0
Flags: W
HStem: 0 21G<576 704> 904 120<320 576>
VStem: 576 128<0 904>
AnchorPoint: "top" 640 1024 basechar 0
LayerCount: 5
Back
Fore
SplineSet
576 0 m 1
 576 904 l 1
 320 904 l 1
 320 1024 l 1
 704 1024 l 1
 704 0 l 1
 576 0 l 1
EndSplineSet
Validated: 1
Layer: 2
Layer: 3
Layer: 4
EndChar
StartChar: IJ
Encoding: 306 306 234
GlifName: I_J_
Width: 1024
VWidth: 0
Flags: W
HStem: -399 120<323.67 719.682> 0 120<64 192 320 448> 1160 120<64 192 320 448>
VStem: 64 384<0 120 1160 1280> 832 128<-149.839 1280>
LayerCount: 5
Back
Fore
SplineSet
832 129 m 2
 832 1280 l 1
 960 1280 l 1
 960 129 l 2
 960 12 959 -97 920 -190 c 0
 872 -304 770 -399 608 -399 c 0
 492 -399 399 -385 320 -375 c 1
 320 -254 l 1
 397 -265 497 -279 601 -279 c 0
 700 -279 764 -230 800 -148 c 0
 832 -75 832 27 832 129 c 2
448 1280 m 1
 448 1160 l 1
 320 1160 l 1
 320 120 l 1
 448 120 l 1
 448 0 l 1
 64 0 l 1
 64 120 l 1
 192 120 l 1
 192 1160 l 1
 64 1160 l 1
 64 1280 l 1
 448 1280 l 1
EndSplineSet
Validated: 1
Layer: 2
Layer: 3
Layer: 4
EndChar
StartChar: ij
Encoding: 307 307 235
GlifName: ij
Width: 1024
VWidth: 0
Flags: W
HStem: -400 120<322.703 628.522> 0 120<64 192 320 448> 904 120<64 192 576 704> 1200 224<141.423 306.577 653.423 818.577>
VStem: 112 224<1229.42 1394.58> 192 128<120 904> 624 224<1229.42 1394.58> 704 128<-203.52 904>
LayerCount: 5
Back
Fore
SplineSet
320 -265 m 1xf5
 375 -273 444 -280 512 -280 c 0
 579 -280 629 -256 661 -218 c 0
 704 -166 704 -102 704 -14 c 2
 704 904 l 1
 576 904 l 1
 576 1024 l 1
 832 1024 l 1
 832 -24 l 2
 832 -115 832 -210 764 -292 c 0
 712 -355 628 -400 522 -400 c 0
 447 -400 380 -394 320 -385 c 1
 320 -265 l 1xf5
736 1424 m 0
 802 1424 848 1378 848 1312 c 0
 848 1246 802 1200 736 1200 c 0
 670 1200 624 1246 624 1312 c 0xf2
 624 1378 670 1424 736 1424 c 0
224 1424 m 0
 290 1424 336 1378 336 1312 c 0
 336 1246 290 1200 224 1200 c 0
 158 1200 112 1246 112 1312 c 0xf8
 112 1378 158 1424 224 1424 c 0
64 0 m 1
 64 120 l 1
 192 120 l 1
 192 904 l 1
 64 904 l 1
 64 1024 l 1
 320 1024 l 1
 320 120 l 1xf4
 448 120 l 1
 448 0 l 1
 64 0 l 1
EndSplineSet
Validated: 1
Layer: 2
Layer: 3
Layer: 4
EndChar
StartChar: uni0136
Encoding: 310 310 273
GlifName: uni0136
Width: 1024
VWidth: 0
Flags: W
HStem: -528 120<384 477.023> 0 21G<128 256 880.981 1062> 1388 20G<128 256 802.457 969>
VStem: 128 128<0 578 765 1408> 512 128<-361.261 -128>
LayerCount: 5
Back
Fore
SplineSet
256 0 m 1
 128 0 l 1
 128 1408 l 1
 256 1408 l 1
 256 765 l 1
 820 1408 l 1
 969 1408 l 1
 486 827 l 1
 1062 0 l 1
 895 0 l 1
 384 729 l 1
 256 578 l 1
 256 0 l 1
640 -233 m 2
 640 -293 640 -363 588 -433 c 0
 546 -490 474 -528 384 -528 c 1
 384 -408 l 1
 431 -408 463 -391 484 -363 c 0
 512 -326 512 -283 512 -233 c 2
 512 -128 l 1
 640 -128 l 1
 640 -233 l 2
EndSplineSet
Validated: 1
Layer: 2
Layer: 3
Layer: 4
EndChar
StartChar: kgreenlandic
Encoding: 312 312 275
GlifName: kgreenlandic
Width: 1024
VWidth: 0
Flags: W
HStem: 0 21G<192 320 769.964 938> 1004 20G<192 320 700.815 891>
VStem: 192 128<0 435 607 1024>
LayerCount: 5
Back
Fore
SplineSet
320 0 m 1
 192 0 l 1
 192 1024 l 1
 320 1024 l 1
 320 607 l 1
 720 1024 l 1
 891 1024 l 1
 528 645 l 1
 938 0 l 1
 782 0 l 1
 445 560 l 1
 320 435 l 1
 320 0 l 1
EndSplineSet
Validated: 1
Layer: 2
Layer: 3
Layer: 4
EndChar
StartChar: Lcaron
Encoding: 317 317 276
GlifName: L_caron
Width: 1024
VWidth: 0
Flags: W
HStem: 0 120<256 896> 1024 21G<640 768> 1388 20G<128 256 640 768>
VStem: 128 128<120 1408> 640 128<1024 1408>
LayerCount: 5
Back
Fore
SplineSet
128 0 m 5
 128 1408 l 5
 256 1408 l 5
 256 120 l 5
 896 120 l 5
 896 0 l 5
 128 0 l 5
640 1408 m 5
 768 1408 l 5
 768 1024 l 5
 640 1024 l 5
 640 1408 l 5
EndSplineSet
Validated: 1
Layer: 2
Layer: 3
Layer: 4
EndChar
StartChar: lcaron
Encoding: 318 318 277
GlifName: lcaron
Width: 1024
VWidth: 0
Flags: W
HStem: -16 120<421.032 640> 1024 21G<768 896> 1388 20G<256 384 768 896>
VStem: 256 128<141.858 1408> 768 128<1024 1408>
LayerCount: 5
Back
Fore
SplineSet
640 -11 m 5
 602 -13 557 -16 502 -16 c 4
 430 -16 371 9 329 52 c 4
 256 128 256 218 256 279 c 6
 256 1408 l 5
 384 1408 l 5
 384 279 l 6
 384 232 384 186 412 148 c 4
 432 121 463 104 512 104 c 4
 554 104 604 106 640 109 c 5
 640 -11 l 5
768 1408 m 5
 896 1408 l 5
 896 1024 l 5
 768 1024 l 5
 768 1408 l 5
EndSplineSet
Validated: 1
Layer: 2
Layer: 3
Layer: 4
EndChar
StartChar: Ldot
Encoding: 319 319 282
GlifName: L_dot
Width: 1024
VWidth: 0
Flags: W
HStem: 0 120<256 896> 720 224<493.423 658.577> 1388 20G<128 256>
VStem: 128 128<120 1408> 464 224<749.423 914.577>
LayerCount: 5
Back
Fore
SplineSet
576 944 m 4
 642 944 688 898 688 832 c 4
 688 766 642 720 576 720 c 4
 510 720 464 766 464 832 c 4
 464 898 510 944 576 944 c 4
128 0 m 5
 128 1408 l 5
 256 1408 l 5
 256 120 l 5
 896 120 l 5
 896 0 l 5
 128 0 l 5
EndSplineSet
Validated: 1
Layer: 2
Layer: 3
Layer: 4
EndChar
StartChar: ldot
Encoding: 320 320 283
GlifName: ldot
Width: 1024
VWidth: 0
Flags: W
HStem: -16 120<421.032 640> 720 224<621.423 786.577> 1388 20G<256 384>
VStem: 256 128<141.858 1408> 592 224<749.423 914.577>
LayerCount: 5
Back
Fore
SplineSet
640 -11 m 5
 602 -13 557 -16 502 -16 c 4
 430 -16 371 9 329 52 c 4
 256 128 256 218 256 279 c 6
 256 1408 l 5
 384 1408 l 5
 384 279 l 6
 384 232 384 186 412 148 c 4
 432 121 463 104 512 104 c 4
 554 104 604 106 640 109 c 5
 640 -11 l 5
704 944 m 4
 770 944 816 898 816 832 c 4
 816 766 770 720 704 720 c 4
 638 720 592 766 592 832 c 4
 592 898 638 944 704 944 c 4
EndSplineSet
Validated: 1
Layer: 2
Layer: 3
Layer: 4
EndChar
StartChar: Lslash
Encoding: 321 321 284
GlifName: L_slash
Width: 1024
VWidth: 0
Flags: W
HStem: 0 120<448 960> 1388 20G<320 448>
VStem: 320 128<120 523 765 1408>
LayerCount: 5
Back
SplineSet
128 491 m 5
 384 674 l 5
 384 1408 l 5
 512 1408 l 5
 512 765 l 5
 768 948 l 5
 768 797 l 5
 512 614 l 5
 512 120 l 5
 1024 120 l 5
 1024 0 l 5
 384 0 l 5
 384 523 l 5
 128 340 l 5
 128 491 l 5
EndSplineSet
Fore
SplineSet
30 467 m 1
 320 674 l 1
 320 1408 l 1
 448 1408 l 1
 448 765 l 1
 668 922 l 1
 743 825 l 1
 448 614 l 1
 448 120 l 1
 960 120 l 1
 960 0 l 1
 320 0 l 1
 320 523 l 1
 100 366 l 1
 30 467 l 1
EndSplineSet
Validated: 1
Layer: 2
Layer: 3
Layer: 4
EndChar
StartChar: lslash
Encoding: 322 322 285
GlifName: lslash
Width: 1024
VWidth: 0
Flags: W
HStem: -16 120<613.032 830.027> 1388 20G<448 576>
VStem: 448 128<141.858 523 765 1408>
LayerCount: 5
Back
SplineSet
896 -11 m 5
 858 -13 813 -16 758 -16 c 4
 686 -16 627 9 585 52 c 4
 512 128 512 218 512 279 c 6
 512 522.8 l 5
 256 340 l 5
 256 491 l 5
 512 673.8 l 5
 512 1408 l 5
 640 1408 l 5
 640 765.2 l 5
 896 948 l 5
 896 797 l 5
 640 614.2 l 5
 640 279 l 6
 640 232 640 186 668 148 c 4
 688 121 719 104 768 104 c 4
 810 104 860 106 896 109 c 5
 896 -11 l 5
EndSplineSet
Fore
SplineSet
448 674 m 1
 448 1408 l 1
 576 1408 l 1
 576 765 l 1
 796 922 l 1
 871 825 l 1
 576 614 l 1
 576 279 l 2
 576 232 576 186 604 148 c 0
 624 121 655 104 704 104 c 0
 741 104 791 113 832 121 c 1
 832 -2 l 1
 789 -9 744 -16 694 -16 c 0
 622 -16 563 9 521 52 c 0
 448 128 448 218 448 279 c 2
 448 523 l 1
 228 366 l 1
 158 467 l 1
 448 674 l 1
EndSplineSet
Validated: 1
Layer: 2
Layer: 3
Layer: 4
EndChar
StartChar: Ncaron
Encoding: 327 327 242
GlifName: N_caron
Width: 1024
VWidth: 0
Flags: W
HStem: 0 21G<128 256 882.624 1024>
VStem: 128 128<0 942> 896 128<210 1152>
LayerCount: 5
Back
Fore
SplineSet
497 1280 m 1
 200 1536 l 1
 358 1536 l 1
 576 1372 l 1
 794 1536 l 1
 952 1536 l 1
 655 1280 l 1
 497 1280 l 1
256 0 m 1
 128 0 l 1
 128 1152 l 1
 255 1152 l 1
 886 210 l 1
 896 210 l 1
 896 1152 l 1
 1024 1152 l 1
 1024 0 l 1
 896 0 l 1
 266 942 l 1
 256 942 l 1
 256 0 l 1
EndSplineSet
Validated: 1
Layer: 2
Layer: 3
Layer: 4
Substitution2: "'ss14' Style Set 14 lookup 13 subtable" Ncaron.sq
EndChar
StartChar: ncaron
Encoding: 328 328 243
GlifName: ncaron
Width: 1024
VWidth: 0
Flags: W
HStem: 0 21G<256 384 768 896> 920 120<474.999 700.525> 1004 20G<256 384> 1388 20G<200 384.585 767.415 952>
VStem: 256 128<0 853.095 912 1024> 768 128<0 853.095>
LayerCount: 5
Back
Fore
SplineSet
596 1040 m 0xdc
 696 1040 777 995 827 933 c 0
 896 847 896 751 896 657 c 2
 896 0 l 1
 768 0 l 1
 768 657 l 2
 768 744 768 806 723 858 c 0
 691 895 640 920 576 920 c 0xdc
 512 920 461 895 429 858 c 0
 384 806 384 744 384 657 c 2
 384 0 l 1
 256 0 l 1
 256 1024 l 1
 384 1024 l 1xbc
 384 912 l 1
 394 912 l 1
 443 989 520 1040 596 1040 c 0xdc
497 1152 m 1
 200 1408 l 1
 358 1408 l 1
 576 1244 l 1
 794 1408 l 1
 952 1408 l 1
 655 1152 l 1
 497 1152 l 1
EndSplineSet
Validated: 1
Layer: 2
Layer: 3
Layer: 4
EndChar
StartChar: napostrophe
Encoding: 329 329 244
GlifName: napostrophe
Width: 1024
VWidth: 0
Flags: W
HStem: 0 21G<256 384 768 896> 920 120<475.002 700.546> 1004 20G<256 384> 1024 120<128 224.514> 1404 20G<256 384>
VStem: 256 128<0 853.095 912 1024 1190.74 1424> 768 128<0 853.094>
LayerCount: 5
Back
Fore
SplineSet
384 1319 m 2x9e
 384 1259 383.727500334 1189.2016076 332 1119 c 0
 290 1062 218 1024 128 1024 c 1
 128 1144 l 1
 175 1144 206.879506544 1161.0907765 228 1189 c 0
 256 1226 256 1269 256 1319 c 2
 256 1424 l 5
 384 1424 l 5
 384 1319 l 2x9e
596 1040 m 0xce
 696 1040 777.155474098 995.125061269 827 933 c 0
 896 847 896 751 896 657 c 2
 896 0 l 1
 768 0 l 1
 768 657 l 2
 768 744 767.984540224 805.986625366 723 858 c 0
 691 895 640 920 576 920 c 0xce
 512 920 461.010997397 894.990485881 429 858 c 0
 384 806 384 744 384 657 c 2
 384 0 l 1
 256 0 l 1
 256 1024 l 1
 384 1024 l 1xae
 384 912 l 1
 394 912 l 1
 443 989 520 1040 596 1040 c 0xce
EndSplineSet
Layer: 2
Layer: 3
Layer: 4
EndChar
StartChar: Eng
Encoding: 330 330 245
GlifName: E_ng
Width: 1024
VWidth: 0
Flags: W
HStem: -272 120<450.703 767.5> 0 21G<192 320> 1388 20G<192 327.998 832 960>
VStem: 192 128<0 1118> 832 128<290 1408>
LayerCount: 5
Back
Fore
SplineSet
320 0 m 5
 192 0 l 5
 192 1408 l 5
 319 1408 l 5
 822 290 l 5
 832 290 l 5
 832 1408 l 5
 960 1408 l 5
 960 104 l 6
 960 14 960 -82 892 -164 c 4
 840 -227 756 -272 650 -272 c 4
 575 -272 508 -257 448 -237 c 5
 448 -109 l 5
 503 -131 572 -152 640 -152 c 4
 750 -152 815 -90 828 7 c 5
 330 1118 l 5
 320 1118 l 5
 320 0 l 5
EndSplineSet
Validated: 1
Layer: 2
Layer: 3
Layer: 4
EndChar
StartChar: eng
Encoding: 331 331 246
GlifName: eng
Width: 1024
VWidth: 0
Flags: W
HStem: -272 120<450.225 665.418> 0 21G<192 320> 920 120<424.173 624.755> 1004 20G<192 320>
VStem: 192 128<0 843.099 912 1024> 704 128<-111.68 841.255>
LayerCount: 5
Back
Fore
SplineSet
532 1040 m 0xec
 632 1040 713 995 763 933 c 0
 832 847 832 751 832 657 c 2
 832 23 l 2
 832 -37 832 -107 780 -177 c 0
 738 -234 666 -272 576 -272 c 0
 541 -272 495 -270 448 -260 c 1
 448 -140 l 1
 496 -151 542 -152 576 -152 c 0
 623 -152 655 -135 676 -107 c 0
 704 -70 704 -27 704 23 c 2
 704 657 l 2
 704 744 704 806 659 858 c 0
 627 895 576 920 512 920 c 0xec
 448 920 397 895 365 858 c 0
 320 806 320 744 320 657 c 2
 320 0 l 1
 192 0 l 1
 192 1024 l 1
 320 1024 l 1xdc
 320 912 l 1
 330 912 l 1
 379 989 456 1040 532 1040 c 0xec
EndSplineSet
Validated: 1
Layer: 2
Layer: 3
Layer: 4
EndChar
StartChar: obreve
Encoding: 335 335 250
GlifName: obreve
Width: 1024
VWidth: 0
Flags: W
HStem: -16 120<453.486 698.514> 920 120<453.486 698.514> 1136 120<425.835 726.165> 1388 20G<236 364 788 916>
VStem: 224 128<221.199 802.801 1327.25 1408> 800 128<221.199 802.801 1327.25 1408>
LayerCount: 5
Back
Fore
SplineSet
788 1408 m 1
 916 1408 l 1
 916 1240 764 1136 576 1136 c 0
 388 1136 236 1240 236 1408 c 1
 364 1408 l 1
 364 1322 433 1256 576 1256 c 0
 719 1256 788 1322 788 1408 c 1
576 920 m 0
 480 920 416 868 384 789 c 0
 354 714 352 614 352 512 c 0
 352 410 354 310 384 235 c 0
 416 156 480 104 576 104 c 0
 672 104 736 156 768 235 c 0
 798 310 800 410 800 512 c 0
 800 614 798 714 768 789 c 0
 736 868 672 920 576 920 c 0
576 1040 m 0
 736 1040 842 945 888 829 c 0
 926 734 928 633 928 512 c 0
 928 391 926 290 888 195 c 0
 842 79 736 -16 576 -16 c 0
 416 -16 310 79 264 195 c 0
 226 290 224 391 224 512 c 0
 224 633 226 734 264 829 c 0
 310 945 416 1040 576 1040 c 0
EndSplineSet
Validated: 1
Layer: 2
Layer: 3
Layer: 4
EndChar
StartChar: oe
Encoding: 339 339 254
GlifName: oe
Width: 1024
VWidth: 0
Flags: W
HStem: -16 120<239.045 368.417 663.212 957.063> 512 120<577 863> 920 120<239.045 369.471 652.364 798.074>
VStem: 32 128<217.704 806.296> 448 128<219 512 632 806.865> 863 127<632 839.85>
LayerCount: 5
Back
Fore
SplineSet
304 104 m 0
 338 104 364 129 381 151 c 0
 442 231 448 377 448 512 c 0
 448 647 443 793 381 873 c 0
 364 895 338 920 304 920 c 0
 270 920 244 895 227 873 c 0
 166 793 160 647 160 512 c 0
 160 377 165 231 227 151 c 0
 244 129 270 104 304 104 c 0
304 1040 m 0
 424 1040 479 954 508 863 c 1
 518 863 l 1
 563 973 631 1040 726 1040 c 0
 864 1040 943 917 971 802 c 0
 990 725 990 649 990 577 c 2
 990 512 l 1
 576 512 l 1
 576 469 l 2
 576 289 590 104 768 104 c 0
 824 104 898 112 960 117 c 1
 960 -3 l 1
 897 -9 827 -16 765 -16 c 0
 660 -16 572 34 520 148 c 1
 510 148 l 1
 481 61 418 -16 304 -16 c 0
 256 -16 219 -1 188 20 c 0
 44 117 32 309 32 512 c 0
 32 715 44 907 188 1004 c 0
 219 1025 256 1040 304 1040 c 0
863 632 m 1
 861 729 852 820 811 873 c 0
 788 902 760 920 726 920 c 0
 653 920 613 842 594 773 c 0
 582 729 578 682 577 632 c 1
 863 632 l 1
EndSplineSet
Validated: 1
Layer: 2
SplineSet
368 980 m 4
 362.652829754 980 357.306132593 979.661200842 352 979 c 4
 329.346877271 976.177178753 307.603030794 967.486154718 288.465213556 955.041226414 c 4
 269.327396317 942.596298109 252.725653026 926.447783311 238.814593477 908.347653162 c 4
 210.992474381 872.147392865 193.900455742 828.674579002 182.948453588 784.350964468 c 4
 161.044449277 695.7037354 160.000000004 603.313288333 160 512 c 4
 160 420.686711666 161.044449269 328.296264597 182.948453576 239.649035527 c 4
 193.900455732 195.325420992 210.992474373 151.85260713 238.814593472 115.652346834 c 4
 252.725653021 97.5522166853 269.327396314 81.4037018871 288.465213554 68.9587735833 c 4
 307.603030793 56.5138452796 329.346877271 47.8228212459 352 45 c 4
 357.306132593 44.338799158 362.652829754 44 368 44 c 4
 373.347170246 44 378.693867407 44.338799158 384 45 c 4
 406.653122729 47.8228212469 428.396969206 56.5138452816 447.534786444 68.9587735861 c 4
 466.672603683 81.4037018906 483.274346974 97.5522166894 497.185406523 115.652346838 c 4
 525.007525619 151.852607135 542.099544258 195.325420998 553.051546412 239.649035532 c 4
 574.955550723 328.2962646 575.999999996 420.686711667 576 512 c 4
 576 603.313288334 574.955550731 695.703735403 553.051546424 784.350964473 c 4
 542.099544268 828.674579008 525.007525627 872.14739287 497.185406528 908.347653166 c 4
 483.274346979 926.447783315 466.672603686 942.596298113 447.534786446 955.041226417 c 4
 428.396969207 967.48615472 406.653122729 976.177178754 384 979 c 4
 378.693867407 979.661200842 373.347170246 980 368 980 c 4
  Spiro
    368 980 o
    352 979 o
    160 512 o
    352 45 o
    368 44 o
    384 45 o
    576 512 o
    384 979 o
    0 0 z
  EndSpiro
EndSplineSet
Layer: 3
Layer: 4
EndChar
StartChar: uni0157
Encoding: 343 343 258
GlifName: uni0157
Width: 1024
VWidth: 0
Flags: W
HStem: -528 120<256 349.023> 0 21G<256 384> 920 120<549.502 893.328> 1004 20G<256 384>
VStem: 256 128<0 736.269 865 1024> 384 128<-361.261 -128>
LayerCount: 5
Back
Fore
SplineSet
716 920 m 0xe8
 624 920 552 894 501 847 c 0
 384 740 384 589 384 475 c 2
 384 0 l 1
 256 0 l 1
 256 1024 l 1
 384 1024 l 1xd8
 384 865 l 1
 394 865 l 1
 469 967 561 1040 716 1040 c 0
 782 1040 839 1034 896 1027 c 1
 896 907 l 1
 839 914 781 920 716 920 c 0xe8
512 -233 m 2xc4
 512 -293 512 -363 460 -433 c 0
 418 -490 346 -528 256 -528 c 1
 256 -408 l 1xc8
 303 -408 335 -391 356 -363 c 0
 384 -326 384 -283 384 -233 c 2
 384 -128 l 1
 512 -128 l 1
 512 -233 l 2xc4
EndSplineSet
Validated: 1
Layer: 2
Layer: 3
Layer: 4
EndChar
StartChar: scircumflex
Encoding: 349 349 264
GlifName: scircumflex
Width: 1024
VWidth: 0
Flags: W
HStem: -16 120<260.105 715.757> 920 120<420.944 881.877> 1398 20G<469.797 674.203>
VStem: 234 128<683.954 865.373> 800 128<188.193 426.634>
LayerCount: 5
Back
Fore
SplineSet
567 -16 m 0
 464 -16 345 -4 256 6 c 1
 256 126 l 1
 341 116 470 104 567 104 c 0
 755 104 800 228 800 308 c 0
 800 390 757 449 700 478 c 0
 614 522 507 499 402 540 c 0
 317.686523438 572.922851562 234 655.446289062 234 776 c 0
 234 913.397460938 343 1040 572 1040 c 0
 689 1040 799 1028.48339844 886 1019 c 1
 886 899 l 1
 798 907.806640625 675 920 572 920 c 0
 410 920 362 841.717773438 362 776 c 0
 362 713.478515625 403.672851562 669.932617188 450 652 c 0
 543 616 654 640 762 584 c 0
 855 536 928 438 928 308 c 0
 928 145 810 -16 567 -16 c 0
493 1418 m 1
 651 1418 l 1
 948 1162 l 1
 790 1162 l 1
 572 1325.96289062 l 1
 354 1162 l 1
 196 1162 l 1
 493 1418 l 1
EndSplineSet
Validated: 1
Layer: 2
Layer: 3
Layer: 4
EndChar
StartChar: Scedilla
Encoding: 350 350 265
GlifName: S_cedilla
Width: 1024
VWidth: 0
Flags: W
HStem: -273 120<256 472.04> -16 120<135.802 508.803> 1304 120<354.561 854.55>
VStem: 98 128<912.823 1175.1> 512 128<-113.662 -16> 798 128<245.468 516.869>
LayerCount: 5
Back
SplineSet
576 -16 m 4
 452 -16 322 -2 206 16 c 5
 206 139 l 5
 320 121 458 104 576 104 c 4
 755 104 882 209 882 385 c 4
 882 508 813 597 724 632 c 4
 610 678 500 650 367 721 c 4
 260 778 182 895 182 1045 c 4
 182 1266 341 1424 576 1424 c 4
 702 1424 833 1407 946 1389 c 5
 946 1265 l 5
 834 1285 691 1304 576 1304 c 4
 411 1304 310 1198 310 1045 c 4
 310 942 361 863 433 825 c 4
 531 773 656 788 772 742 c 4
 901 691 1010 566 1010 385 c 4
 1010 143 825 -16 576 -16 c 4
EndSplineSet
Fore
SplineSet
640 4 m 5
 639 -58 631 -119 588 -178 c 4
 545 -236 468 -273 374 -273 c 4
 342 -273 299 -270 256 -266 c 5
 256 -146 l 5
 300 -150 343 -153 374 -153 c 4
 467 -153 509 -100 512 -16 c 5
 506 -16 499 -16 492 -16 c 4
 383 -16 259 -5 122 16 c 5
 122 139 l 5
 270 116 393 104 492 104 c 4
 673 104 798 208 798 385 c 4
 798 492 743 571 672 613 c 4
 588 663 436 657 337 694 c 4
 200 744 98 863 98 1045 c 4
 98 1268 267 1424 492 1424 c 4
 582 1424 705 1416 862 1399 c 5
 862 1278 l 5
 700 1295 577 1304 492 1304 c 4
 336 1304 226 1198 226 1045 c 4
 226 935 280 857 354 819 c 4
 437 776 614 781 722 725 c 4
 833 667 926 547 926 385 c 4
 926 192 811 54 640 4 c 5
EndSplineSet
Validated: 1
Layer: 2
Layer: 3
Layer: 4
EndChar
StartChar: scedilla
Encoding: 351 351 266
GlifName: scedilla
Width: 1024
VWidth: 0
Flags: W
HStem: -273 120<320 536.437> -16 120<196.738 574.927> 920 120<369.637 817.564>
VStem: 170 128<666.579 856.466> 576 128<-111.653 -12> 736 128<186.631 395.016>
LayerCount: 5
Back
Fore
SplineSet
511 1040 m 4
 629 1040 728 1029 822 1019 c 5
 822 899 l 5
 727 908 620 920 511 920 c 4
 394 920 298 875 298 760 c 4
 298 692 340 643 390 620 c 4
 482 578 593 602 695 555 c 4
 786 513 864 417 864 291 c 4
 864 171 801 79 704 28 c 5
 704 -43 701 -111 652 -178 c 4
 609 -236 532 -273 438 -273 c 4
 406 -273 363 -270 320 -266 c 5
 320 -146 l 5
 364 -150 407 -153 438 -153 c 4
 533 -153 573 -98 576 -12 c 5
 555 -15 534 -16 512 -16 c 4
 396 -16 294 -3 192 6 c 5
 192 125 l 5
 292 116 402 104 512 104 c 4
 640 104 736 170 736 291 c 4
 736 367 693 422 639 447 c 4
 549 489 436 466 334 512 c 4
 247 551 170 640 170 760 c 4
 170 946 324 1040 511 1040 c 4
EndSplineSet
Validated: 1
Layer: 2
Layer: 3
Layer: 4
EndChar
StartChar: uni0162
Encoding: 354 354 269
GlifName: uni0162
Width: 1024
VWidth: 0
Flags: W
HStem: -272 120<258.225 480.744> 1288 120<128 512 640 1024>
VStem: 512 128<-105.261 1288>
LayerCount: 5
Back
Fore
SplineSet
640 23 m 6
 640 -37 640 -107 588 -177 c 4
 546 -234 474 -272 384 -272 c 4
 349 -272 303 -265 256 -255 c 5
 256 -132 l 5
 304 -143 350 -152 384 -152 c 4
 431 -152 463 -135 484 -107 c 4
 512 -70 512 -27 512 23 c 6
 512 1288 l 1
 128 1288 l 1
 128 1408 l 1
 1024 1408 l 1
 1024 1288 l 1
 640 1288 l 1
 640 23 l 6
EndSplineSet
Validated: 1
Layer: 2
Layer: 3
Layer: 4
EndChar
StartChar: uni0163
Encoding: 355 355 270
GlifName: uni0163
Width: 1024
VWidth: 0
Flags: W
HStem: -273 120<320 535.478> 898 126<64 320 448 832>
VStem: 320 128<180.946 898 1024 1280> 576 127<-111.898 -11.713>
LayerCount: 5
Back
Fore
SplineSet
576 -11 m 5
 496 2 430 41 388 92 c 4
 320 174 320 271 320 360 c 6
 320 898 l 5
 64 898 l 5
 64 1024 l 5
 320 1024 l 5
 320 1280 l 5
 448 1280 l 5
 448 1024 l 5
 832 1024 l 5
 832 898 l 5
 448 898 l 5
 448 370 l 6
 448 284 448 218 491 166 c 4
 524 127 579 104 650 104 c 4
 714 104 780 112 832 119 c 5
 832 -1 l 5
 792 -7 749 -11 703 -14 c 5
 701 -70 691 -125 652 -178 c 4
 609 -236 532 -273 438 -273 c 4
 406 -273 363 -270 320 -266 c 5
 320 -146 l 5
 364 -150 407 -153 438 -153 c 4
 533 -153 574 -97 576 -11 c 5
EndSplineSet
Validated: 1
Layer: 2
Layer: 3
Layer: 4
EndChar
StartChar: tcaron
Encoding: 357 357 287
GlifName: tcaron
Width: 1024
VWidth: 0
Flags: W
HStem: -16 120<524.916 829.438> 770 126<64 320 448 832>
VStem: 320 128<180.946 770 896 1280> 704 128<1152 1536>
LayerCount: 5
Back
Fore
SplineSet
832 -1 m 1
 775 -9 711 -16 640 -16 c 0
 530 -16 441 28 388 92 c 0
 320 174 320 271 320 360 c 2
 320 770 l 1
 64 770 l 1
 64 896 l 1
 320 896 l 1
 320 1280 l 1
 448 1280 l 1
 448 896 l 1
 832 896 l 1
 832 770 l 1
 448 770 l 1
 448 370 l 2
 448 284 448 218 491 166 c 0
 524 127 579 104 650 104 c 0
 714 104 780 112 832 119 c 1
 832 -1 l 1
704 1536 m 1
 832 1536 l 1
 832 1152 l 1
 704 1152 l 1
 704 1536 l 1
EndSplineSet
Validated: 1
Layer: 2
Layer: 3
Layer: 4
EndChar
StartChar: Tbar
Encoding: 358 358 288
GlifName: T_bar
Width: 1024
VWidth: 0
Flags: W
HStem: 0 21G<448 576> 644 120<192 448 576 832> 1288 120<64 448 576 960>
VStem: 448 128<0 644 764 1288>
LayerCount: 5
Back
Fore
SplineSet
960 1408 m 1
 960 1288 l 1
 576 1288 l 1
 576 764 l 1
 832 764 l 1
 832 644 l 1
 576 644 l 1
 576 0 l 1
 448 0 l 1
 448 644 l 1
 192 644 l 1
 192 764 l 1
 448 764 l 1
 448 1288 l 1
 64 1288 l 1
 64 1408 l 1
 960 1408 l 1
EndSplineSet
Validated: 1
Layer: 2
Layer: 3
Layer: 4
EndChar
StartChar: tbar
Encoding: 359 359 289
GlifName: tbar
Width: 1024
VWidth: 0
Flags: W
HStem: -16 120<524.916 829.438> 520 120<64 320 448 832> 898 126<64 320 448 832>
VStem: 320 128<180.946 520 640 898 1024 1280>
LayerCount: 5
Back
Fore
SplineSet
832 -1 m 1
 775 -9 711 -16 640 -16 c 0
 530 -16 441 28 388 92 c 0
 320 174 320 271 320 360 c 2
 320 520 l 1
 64 520 l 1
 64 640 l 1
 320 640 l 1
 320 898 l 1
 64 898 l 1
 64 1024 l 1
 320 1024 l 1
 320 1280 l 1
 448 1280 l 1
 448 1024 l 1
 832 1024 l 1
 832 898 l 1
 448 898 l 1
 448 640 l 1
 832 640 l 1
 832 520 l 1
 448 520 l 1
 448 370 l 2
 448 284 448 218 491 166 c 0
 524 127 579 104 650 104 c 0
 714 104 780 112 832 119 c 1
 832 -1 l 1
EndSplineSet
Validated: 1
Layer: 2
Layer: 3
Layer: 4
EndChar
StartChar: Uogonek
Encoding: 370 370 207
GlifName: U_ogonek
Width: 1024
VWidth: 0
Flags: W
HStem: -350 120<504.763 640> 1388 20G<192 320 832 960>
VStem: 192 128<220.4 1408> 377 121<-222.015 -76.3287> 832 128<220.016 1408>
LayerCount: 5
Back
Fore
SplineSet
576 -230 m 4
 599 -230 620 -229 640 -225 c 5
 640 -345 l 5
 614 -349 586 -350 556 -350 c 4
 476 -350 377 -287 377 -185 c 4
 377 -104 437 -48 497 -9 c 5
 342 19 238 128 208 273 c 4
 192 351 192 416 192 482 c 6
 192 1408 l 5
 320 1408 l 5
 320 482 l 6
 320 427 320 358 332 300 c 4
 356 183 439 104 576 104 c 4
 713 104 796 183 820 300 c 4
 832 358 832 427 832 482 c 6
 832 1408 l 5
 960 1408 l 5
 960 482 l 6
 960 416 960 351 944 273 c 4
 913 123 802 10 637 -12 c 5
 541 -47 498 -95 498 -158 c 4
 498 -211 541 -230 576 -230 c 4
EndSplineSet
Validated: 1
Layer: 2
Layer: 3
Layer: 4
EndChar
StartChar: uogonek
Encoding: 371 371 208
GlifName: uogonek
Width: 1024
VWidth: 0
Flags: W
HStem: -350 120<760.763 896> -16 120<451.475 677.001> 1004 20G<256 384 768 896>
VStem: 256 128<170.905 1024> 633 121<-222.015 -76.6042> 768 128<-21.8491 112 170.905 1024>
LayerCount: 5
Back
Fore
SplineSet
832 -230 m 4
 855 -230 876 -229 896 -225 c 5
 896 -345 l 5
 870 -349 842 -350 812 -350 c 4
 732 -350 633 -287 633 -185 c 4
 633 -97 704 -39 768 0 c 5
 768 112 l 5
 758 112 l 5
 709 35 632 -16 556 -16 c 4
 456 -16 375 29 325 91 c 4
 256 177 256 273 256 367 c 6
 256 1024 l 5
 384 1024 l 5
 384 367 l 6
 384 280 384 218 429 166 c 4
 461 129 512 104 576 104 c 4
 640 104 691 129 723 166 c 4
 768 218 768 280 768 367 c 6
 768 1024 l 5
 896 1024 l 5
 896 0 l 5
 798 -48 754 -90 754 -158 c 4
 754 -211 797 -230 832 -230 c 4
EndSplineSet
Validated: 1
Layer: 2
Layer: 3
Layer: 4
EndChar
StartChar: Wcircumflex
Encoding: 372 372 209
GlifName: W_circumflex
Width: 1024
VWidth: 0
Flags: W
HStem: 0 21G<257 388.019 763.981 895>
VStem: 116 131<736.711 1152> 905 131<736.711 1152>
LayerCount: 5
Back
Fore
SplineSet
497 1536 m 1
 655 1536 l 1
 952 1280 l 1
 794 1280 l 1
 576 1444 l 1
 358 1280 l 1
 200 1280 l 1
 497 1536 l 1
514 768 m 1
 638 768 l 1
 812 190 l 1
 822 190 l 1
 887 480 905 824 905 1152 c 1
 1036 1152 l 1
 1036 766 988 382 895 2 c 1
 770 0 l 1
 581 628 l 1
 571 628 l 1
 382 0 l 1
 257 2 l 1
 164 382 116 766 116 1152 c 1
 247 1152 l 1
 247 824 266 480 330 190 c 1
 340 190 l 1
 514 768 l 1
EndSplineSet
Validated: 1
Layer: 2
Layer: 3
Layer: 4
EndChar
StartChar: ycircumflex
Encoding: 375 375 212
GlifName: ycircumflex
Width: 1024
VWidth: 0
Flags: W
HStem: -400 120<256 447.574> 1004 20G<204 365 788 948> 1398 20G<473.797 678.203>
VStem: 204 131<848.307 1024> 817 131<838.556 1024>
LayerCount: 5
Back
Fore
SplineSet
608 115 m 1
 696 414 759 717 817 1024 c 1
 948 1024 l 1
 878 655 812 351 677 -73 c 0
 644 -177 608 -271 547 -321 c 0
 492 -367 411 -400 256 -400 c 1
 256 -280 l 1
 338 -280 418 -266 453 -239 c 0
 500 -203 520 -140 568 0 c 1
 517 0 l 1
 360 326 273 676 204 1024 c 1
 335 1024 l 1
 395 711 472 400 598 115 c 1
 608 115 l 1
497 1418 m 1
 655 1418 l 1
 952 1162 l 1
 794 1162 l 1
 576 1325.96289062 l 1
 358 1162 l 1
 200 1162 l 1
 497 1418 l 1
EndSplineSet
Validated: 1
Layer: 2
Layer: 3
Layer: 4
EndChar
StartChar: Ydieresis
Encoding: 376 376 213
GlifName: Y_dieresis
Width: 1024
VWidth: 0
Flags: W
HStem: 0 21G<512 640> 1328 224<264.237 439.763 712.237 887.763>
VStem: 113 125<1046.07 1152> 240 224<1352.24 1527.76> 512 128<0 540.454> 688 224<1352.24 1527.76> 914 125<1046.07 1152>
LayerCount: 5
Back
Fore
SplineSet
352 1552 m 0
 418 1552 464 1506 464 1440 c 0
 464 1374 418 1328 352 1328 c 0
 286 1328 240 1374 240 1440 c 0
 240 1506 286 1552 352 1552 c 0
800 1552 m 0
 866 1552 912 1506 912 1440 c 0
 912 1374 866 1328 800 1328 c 0
 734 1328 688 1374 688 1440 c 0
 688 1506 734 1552 800 1552 c 0
113 1152 m 1
 238 1152 l 1
 303 939 398 758 561 612 c 1
 591 612 l 1
 754 758 849 939 914 1152 c 1
 1039 1152 l 1
 978 923 868 714 640 512 c 1
 640 0 l 1
 512 0 l 1
 512 512 l 1
 284 714 174 923 113 1152 c 1
EndSplineSet
Validated: 1
Layer: 2
Layer: 3
Layer: 4
EndChar
